<?xml version="1.0" standalone="no"?>
<!DOCTYPE svg PUBLIC "-//W3C//DTD SVG 1.1//EN" "http://www.w3.org/Graphics/SVG/1.1/DTD/svg11.dtd" >
<svg xmlns="http://www.w3.org/2000/svg">
<metadata></metadata>
<defs>
<font id="AmpirDecoRegular" horiz-adv-x="1024" >
<font-face units-per-em="2048" ascent="1638" descent="-410" />
<missing-glyph horiz-adv-x="675" />
<glyph unicode="&#xd;" horiz-adv-x="675" />
<glyph unicode=" "  horiz-adv-x="675" />
<glyph unicode="&#x09;" horiz-adv-x="675" />
<glyph unicode="&#xa0;" horiz-adv-x="675" />
<glyph unicode="!" horiz-adv-x="630" d="M170 1212q0 195 144.5 195t144.5 -193q0 -94 -45 -303q-69 -322 -74 -485l-2 -72l-2 -30q-2 -29 -23 -29q-20 0 -20 27v32q0 214 -74 549l-8 37q-41 195 -41 272zM186 99q0 54 37 92t90 38t91 -39t38 -93t-36.5 -93t-90.5 -39q-53 0 -91 40t-38 94z" />
<glyph unicode="&#x22;" horiz-adv-x="800" d="M123 1427h221l-37 -548h-147zM455 1427h223l-39 -548h-147z" />
<glyph unicode="#" horiz-adv-x="1228" d="M43 401l27 183h219l35 225h-218l29 182h217l60 375h204l-59 -375h229l60 375h207l-60 -375h215l-28 -182h-215l-35 -225h217l-27 -183h-217l-63 -401h-207l63 401h-229l-64 -401h-204l63 401h-219zM494 584h231l35 225h-232z" />
<glyph unicode="$" horiz-adv-x="1230" d="M76 324q0 88 48 144t113.5 56t104.5 -37.5t39 -78t-10 -93.5l153 332q-213 76 -295 162t-82 215q0 168 130.5 275.5t334.5 107.5q131 0 248 -47l96 207q14 33 41 32h23q37 0 37 -14q0 -6 -4 -18l-117 -250q143 -106 143 -248q0 -74 -45 -127t-101 -53t-90 33.5t-34 85.5 q0 18 8 57l-117 -248l37 -14q225 -88 295 -152q94 -86 94 -231q0 -203 -152.5 -332t-389.5 -129q-109 0 -258 43l-84 -176q-16 -33 -54 -33h-30q-23 4 -23 14t4 19l107 221q-170 104 -170 277zM190 256q0 -80 82 -150l17 33q41 82 41 123q0 80 -68 80q-29 0 -50.5 -25.5 t-21.5 -60.5zM319 1130q0 -180 299 -282l218 459q-109 49 -228 49t-204 -64.5t-85 -161.5zM348 55q131 -47 230 -47q147 0 251.5 88t104.5 213q0 150 -141 226q-88 47 -156 71l-29 10zM852 1104q0 -59 45 -60q66 0 66 81t-56 132q-55 -117 -55 -153z" />
<glyph unicode="%" horiz-adv-x="1445" d="M82 1022q0 154 77 255t193 101q117 0 194 -102t77 -256t-77 -255t-194 -101t-193.5 102t-76.5 256zM209 1020.5q0 -320.5 142.5 -320.5t142.5 320.5t-142.5 320.5t-142.5 -320.5zM350 -4q0 8 4 16l660 1342q14 29 41 28h22q19 0 19 -14q0 -8 -2 -14l-652 -1342 q-14 -29 -39 -28h-38q-14 0 -15 12zM821 345.5q0 152.5 78 254.5t194 102t193.5 -102t77.5 -256t-78 -256t-193.5 -102t-193.5 103.5t-78 256zM950.5 345q-0.5 -321 141.5 -320q141 -1 141 319.5t-141 321.5q-141 0 -141.5 -321z" />
<glyph unicode="&#x26;" horiz-adv-x="2351" d="M82 1071q0 82 50 146.5t119.5 64.5t114 -43t44.5 -96t-28 -91t-73 -44l-8 6q6 18 6 33q0 49 -45 49q-35 0 -54.5 -33t-19.5 -72q0 -139 150 -235q168 213 436 213q74 0 133 -29q78 -35 78 -100q0 -195 -383 -195q-113 0 -209 31q-6 -37 -6 -74q0 -215 125 -354 t325.5 -139t312.5 120.5t112 315.5t-66 319q-25 47 -125 158q-66 76 -65.5 161t67 146.5t158.5 61.5q127 0 335 -139.5t346 -139.5t208 78q49 55 102 211q10 29 25 29q22 0 22 -29q0 -80 -71 -223q-139 -274 -375 -275q-78 0 -187 111q-94 104 -188 209 q-109 113 -180.5 112.5t-114.5 -42.5t-43 -107q0 -135 76 -197q6 -6 141 -71q76 -35 76 -109q0 -365 -156 -584q-184 -266 -559 -266q-201 0 -336 135t-135 336q0 145 88 281q-223 117 -223 360zM406 721q70 -27 142.5 -27t170.5 25t98 74q0 92 -153 92q-197 0 -258 -164z " />
<glyph unicode="'" horiz-adv-x="548" d="M164 1427h221l-37 -548h-147z" />
<glyph unicode="(" horiz-adv-x="765" d="M123 563q0 236 81 437.5t214 321.5t276 173q33 12 52.5 12t19.5 -17t-27 -28q-129 -49 -207 -180q-164 -281 -163 -641q0 -430 100 -647t231 -283l29 -14q18 -6 19 -25q0 -16 -17.5 -16t-48.5 12q-129 51 -262 182q-207 205 -273 484q-25 106 -24 229z" />
<glyph unicode=")" horiz-adv-x="765" d="M0 1489.5q0 17.5 19.5 17.5t52.5 -12q143 -53 276 -173t214 -321.5t81 -437.5q0 -417 -297 -713q-133 -131 -262 -182q-31 -12 -48 -12t-18 16q0 18 19 25l29 14q131 66 231 283t100 647q0 360 -164 641q-78 131 -206 180q-27 10 -27 27.5z" />
<glyph unicode="*" horiz-adv-x="993" d="M123 1104q0 45 27.5 74.5t68.5 29.5q72 0 197 -125q23 -23 38 -22.5t17 14.5v4q0 14 -15 41t-37 90.5t-22 102.5t28 66.5t71 27.5t71.5 -27.5t28.5 -80.5t-68 -199q-6 -10 -6 -19q0 -20 15.5 -20t37.5 22q125 125 197 125q43 0 70.5 -29.5t27.5 -74.5q0 -100 -139 -100 q-33 0 -86 4l-47 4q-20 4 -25 4q-27 0 -26 -19q0 -16 35 -34q184 -94 184 -181q0 -39 -30.5 -68.5t-71.5 -29.5q-104 0 -142 236q-6 45 -26 45t-27 -45q-37 -236 -139 -236q-41 0 -73 29.5t-32 68.5q0 86 185 181q35 18 34 34q0 18 -26 19l-72 -8q-55 -4 -86 -4 q-137 0 -137 100z" />
<glyph unicode="+" d="M68 596v186h344v334h200v-334h344v-186h-344v-334h-200v334h-344z" />
<glyph unicode="," horiz-adv-x="514" d="M102 88q0 53 39 91t104 38t116 -62.5t51 -152.5q0 -190 -189 -328q-29 -20 -47 -20t-18 19t37.5 46t82 102t44.5 120t-29 45q-9 0 -35 -13q-25 -8 -39 -8q-49 0 -83 35t-34 88z" />
<glyph unicode="-" horiz-adv-x="698" d="M123 414v8l6 24q10 45 37 46h379q30 -1 30 -19l-6 -37q-6 -29 -13 -35t-32 -6h-374q-27 0 -27 19z" />
<glyph unicode="." horiz-adv-x="497" d="M123 93q0 52 38 89t89 37t88 -37t37 -90t-37 -90t-89 -37t-89 38t-37 90z" />
<glyph unicode="/" horiz-adv-x="927" d="M0 -315q0 8 4 18l721 1729q16 37 59 36h27q14 0 14 -14l-714 -1755q-14 -35 -48 -35h-26q-10 0 -23.5 5t-13.5 14v2z" />
<glyph unicode="0" horiz-adv-x="1599" d="M72 722q0 321 202.5 536t523.5 215t525.5 -217t204.5 -535.5t-206 -536t-521 -217.5t-522 217t-207 538zM340 690q0 -672 467 -672q453 1 453 702.5t-453 700.5q-289 0 -393 -264q-74 -190 -74 -467z" />
<glyph unicode="1" horiz-adv-x="946" d="M31 1262q0 27 28 28q59 0 217 42t228.5 89.5t92.5 47t21 -43.5v-1138q0 -236 207 -236q29 0 52 4q28 1 28 -27t-28 -28l-375 4l-377 -4q-29 0 -29 28t29 27l49 -4q213 0 213 238v874q2 16 -29 72q-20 27 -99 27t-196 -27q-33 0 -32 27z" />
<glyph unicode="2" horiz-adv-x="1271" d="M92 1069q0 184 172 301q152 104 350.5 104.5t352.5 -102.5q176 -117 176 -302t-146 -296q-100 -78 -303 -139l-182 -53q-317 -94 -340 -394q49 139 215 140q86 0 290 -83t269.5 -83t114.5 41t49 106t-39 112.5t-98 47.5q-16 0 -34.5 -13.5t-33.5 -13.5q-33 0 -33 31 q0 53 87 53t154 -78t67 -189.5t-95.5 -207.5t-220.5 -96q-88 0 -282 76l-189 73q-100 39 -143 39q-92 0 -92 -80q0 -27 30.5 -39t30.5 -34q0 -35 -37 -35q-43 0 -63 65q-16 45 -17 103q0 152 73 276.5t206 190.5l143 72q158 78 234 157q102 109 102 254t-84 239.5t-216 94.5 t-232 -72q-113 -78 -113 -194q0 -27 15.5 -49.5t41.5 -22.5q45 0 45 45q0 35 -24 53q66 -8 115 -63t49 -122t-50.5 -111t-128 -44t-132 75t-54.5 167z" />
<glyph unicode="3" horiz-adv-x="1282" d="M72 330q0 90 54 151.5t132 61.5t130 -53.5t52 -122t-30 -119.5q-29 94 -82 94q-35 0 -60.5 -29.5t-25.5 -70.5q0 -92 95 -161t237.5 -69t252 114t109.5 269.5t-106.5 244.5t-286.5 89q-51 0 -105 -12l-65 -12q-4 -2 -22 -2.5t-17 16.5q0 20 35 29q465 106 465 401 q0 111 -77 186.5t-205 75.5t-220 -104q-45 -53 -45 -96.5t37 -57.5q100 -43 100 -121q0 -53 -41 -91t-103.5 -38t-109.5 54.5t-47 132.5q0 160 154.5 271.5t360 111.5t325.5 -86.5t120 -221.5q0 -174 -186 -266q-43 -20 -129 -45q215 -12 323.5 -116.5t108.5 -274.5 q0 -217 -177 -362.5t-443 -145.5q-217 0 -362.5 107.5t-145.5 267.5z" />
<glyph unicode="4" horiz-adv-x="1366" d="M31 401q0 14 24 37q266 229 369 383q145 219 145 504l-18 94q0 53 90 54q66 0 66 -93q0 -18 -7 -75q127 -59 202 -166t75 -244v-418h65q143 0 238 43q16 8 25.5 8t9.5 -18.5t-53 -114.5q-31 -57 -191 -57q-23 0 -96 4v-57q0 -236 209 -236l51 6q29 0 29 -28 q0 -29 -29 -29l-375 6l-375 -6q-29 0 -28 29q0 29 28 28l52 -6q133 0 178 101q31 63 30 219q-268 45 -386 45t-248 -21q-76 -10 -58 -10q-23 0 -22 18zM215 518q147 35 208.5 35t321.5 -49v391q0 233 -65 291q-47 -201 -171 -381t-294 -287z" />
<glyph unicode="5" horiz-adv-x="1298" d="M72 338q0 82 42 136t98 54t90 -33.5t34 -85.5t-43 -83l-37 -25q-33 -23 -33 -63q0 -98 96.5 -163t260 -65t277.5 109.5t114 270.5t-115 253t-301 92t-324 -86q-16 -10 -26 -10q-20 0 -21 31q0 4 4 34q15 98 23 268t8 270.5t-12 151t-12 68.5q0 31 25.5 31t29.5 -45 q4 -10 8 -27h90l354 -2q209 0 267.5 9.5t81.5 48.5l16 30q8 14 20 15q29 0 29 -21q0 -12 -17.5 -55t-76.5 -203q-8 -25 -53 -26l-74 -5q-37 -2 -221.5 -2t-403.5 4v-143q0 -39 -8 -125l-4 -43q150 61 340 62q264 0 418 -109q190 -138 190 -367t-177 -381.5t-424.5 -152.5 t-390 106.5t-142.5 276.5z" />
<glyph unicode="6" horiz-adv-x="1296" d="M72 674.5q0 324.5 192.5 561.5t472.5 237q160 0 285 -72t125 -166q0 -45 -33 -72.5t-82 -27.5q-94 0 -119 88l-22 75q-35 123 -168 123q-178 0 -289.5 -200.5t-114.5 -522.5q51 111 115 164q113 94 281 94q213 0 361.5 -139t148.5 -346t-168 -361.5t-412 -154.5 t-408.5 197.5t-164.5 522zM344 455.5q0 -193.5 89 -319.5t225 -126t220.5 127t84.5 324.5t-84 312.5t-222.5 115t-225.5 -120t-87 -313.5z" />
<glyph unicode="7" horiz-adv-x="1284" d="M72 1063q0 147 110.5 248.5t292.5 126.5q33 4 686 0l27 47q20 37 42.5 37t22.5 -23q0 -4 -16.5 -29.5t-45 -78t-71.5 -125.5q-207 -350 -274 -512q-152 -360 -152 -668v-20q0 -45 -7 -59.5t-46 -12.5l-104 2l-113 -2q-49 -2 -49 39q0 25 16 78l43 125q125 385 404 733 q145 180 159.5 200.5t30.5 49.5h-379q-27 0 -139.5 33.5t-167.5 33.5q-119 0 -119 -125q0 -41 33 -63l37 -25q43 -29 43 -81t-34 -87t-90 -35t-98 54.5t-42 138.5z" />
<glyph unicode="8" horiz-adv-x="1318" d="M72 358q0 143 98 240.5t272 126.5q-293 106 -292 332q0 182 153.5 297.5t373.5 115.5t335 -84t114 -210q0 -72 -43 -118t-109.5 -46t-111.5 46t-45 113q0 31 25 68q14 -70 63 -70q70 0 70 76t-86 125t-211 49t-216 -78.5t-91 -180t57 -159t173 -103.5t187 -71 q104 47 105 78q0 8 -74 29t-114 47q-66 41 -66 107.5t63.5 124t120.5 57.5q-41 -57 -41 -125q0 -23 4 -45q16 -68 134.5 -111t117.5 -63q0 -66 -194 -119q240 -66 321.5 -157t81.5 -226q0 -205 -171 -337t-428 -132t-416.5 112.5t-159.5 290.5zM270 379q0 -164 107.5 -266.5 t272.5 -102.5t270.5 92.5t105.5 229.5q0 102 -61.5 165.5t-282.5 133.5q-61 23 -168 59l-29 8q-215 -86 -215 -319z" />
<glyph unicode="9" horiz-adv-x="1310" d="M72 330q0 90 54 151.5t132 61.5t130 -54.5t52 -122t-30 -118.5q-29 92 -82 92q-35 0 -60.5 -28.5t-25.5 -69.5q0 -92 95 -161t224 -69q170 0 277 133q76 94 110.5 250t44.5 396q-49 -125 -112 -189q-106 -104 -275 -104q-227 0 -373.5 127t-146.5 333.5t168 360.5 t411.5 154t408.5 -200t165 -509q0 -209 -87 -402q-183 -407 -581 -407q-225 0 -362 114t-137 261zM346 994.5q0 -185.5 78 -322.5q68 -119 211 -119t237.5 121t94.5 296t-86 322q-76 129 -217 129t-229.5 -120.5t-88.5 -306z" />
<glyph unicode=":" horiz-adv-x="540" d="M143 93q0 52 38 89t89 37t88 -37t37 -90t-36.5 -90t-89 -37t-89.5 38t-37 90zM145 735q0 51 37 88t90 37t89 -37t36 -89t-35.5 -89t-88 -37t-90.5 38t-38 89z" />
<glyph unicode=";" horiz-adv-x="538" d="M115 88q0 53 39 91t103.5 38t115.5 -62.5t51 -152.5q0 -190 -188 -328q-29 -20 -47.5 -20t-18.5 19t38 46t82 102t44 120t-29 45q-4 0 -16 -4l-19 -9q-25 -8 -39 -8q-49 0 -82.5 35t-33.5 88zM125 736q0 52 37 88t89 36t89 -37t37 -89t-36 -89t-88 -37t-90 38t-38 90z " />
<glyph unicode="&#x3c;" horiz-adv-x="1175" d="M123 594v172l889 432v-201l-674 -317l672 -320l2 -198z" />
<glyph unicode="=" d="M68 444v177h888v-177h-888zM68 776v176h888v-176h-888z" />
<glyph unicode="&#x3e;" horiz-adv-x="1155" d="M164 162v200l674 318l-672 317l-2 201l889 -432v-172z" />
<glyph unicode="?" horiz-adv-x="1294" d="M123 1047q0 184 147.5 305t352.5 121q254 0 391 -105.5t137 -275.5q0 -139 -111 -254q-88 -90 -264 -140q-111 -31 -147.5 -88t-36.5 -168l4 -102q0 -51 -31 -51t-28 84l2 110q0 84 20.5 132.5t109.5 122t121.5 109.5t63.5 101.5t31 151.5q0 143 -83 233t-218 90 t-245 -91t-110 -206q0 -45 21.5 -74.5t52.5 -29.5q45 0 45 49l-6 33q2 4 8 4q31 0 66 -35t35 -94t-43 -102t-111 -43t-121 62t-53 151zM434 95q0 56 38 96t94 40t95 -41t39 -97t-37.5 -97t-94 -41t-95.5 42t-39 98z" />
<glyph unicode="@" horiz-adv-x="1581" d="M82 591q0 286 233 494q59 53 125 93q0 57 -28 90q35 6 87 6t79 -31l4 2q-20 59 -21 109q0 117 115 116q20 0 43 -2q-33 -18 -33 -57q0 -10 12 -56.5t11 -76.5l20 4q35 29 46 47.5t3 54.5q33 -23 94 -90h5q252 0 428 -137q194 -149 194 -391q0 -150 -84 -301 q-113 -207 -313 -207q-129 0 -203 70t-74 159q0 55 7.5 91t7.5 41t-2 16q-61 133 -170 133q-133 -2 -133 -180q0 -25 2 -45q-106 88 -107 159q0 70 107 105q0 8 -37 30q-54 32 -119 17q25 125 174 117l-35 24q-49 33 -71 64q-236 -193 -236 -462t178 -419.5t440 -150.5 q88 0 224.5 33.5t253.5 121.5q6 4 14 4q35 0 35 -34q0 -14 -15 -25q-256 -168 -539.5 -168t-494.5 168q-227 178 -227 464zM637 1065q0 -33 14.5 -59.5t75 -65.5t66.5 -45q37 -31 69.5 -86t30.5 -92q10 31 10 66.5t-53 97t-57 112.5q-14 129 -95 129q-61 0 -61 -57z M866 1094q51 74 176 61l-49 -127q82 39 144.5 39t98.5 -42t36 -91t-37 -141q-35 121 -119 120q-106 0 -106 -84l14 -104q0 -47 -57.5 -104.5t-57.5 -83.5q0 -207 232 -207q137 0 223 170q66 133 66 262q0 211 -170 340q-154 119 -373 119h-4q-2 -27 -15 -93q0 -18 -2 -34z " />
<glyph unicode="A" horiz-adv-x="1560" d="M20 25q0 27 50 26q123 0 188 129q57 111 57 279v235q-141 74 -143 74q-37 0 -37 -34t19 -34q6 0 18 9.5t21 9.5q51 0 51 -51t-64 -52q-37 0 -64.5 32t-27.5 67t27.5 61.5t60.5 26.5q10 0 139 -68v113q0 246 107.5 390t341.5 224q84 27 201.5 27t178.5 -26t105.5 -93 t44.5 -76q0 -18 -18 -18l-21 4q-18 0 -49 -25q14 6 25 7q23 0 22 -43v-932q0 -236 209 -236l49 4q29 1 29 -27t-29 -28l-372 4l-355 -4q-29 0 -28 27q0 29 28 28l45 -4q86 0 139.5 56.5t53.5 142.5v88l-653 330v-209q0 -408 221 -408q4 0 10 1t10 1q29 0 29 -27.5t-29 -27.5 l-270 6l-291 -6q-29 0 -29 27zM369 707l653 -330v102l-653 320v-92zM369 834l653 -316v96q0 408 -30 443t-64.5 35t-34.5 25.5t30 29.5t63.5 9t105.5 38q-16 2 -25.5 34t-22.5 44q-22 24 -73 24h-4q-254 0 -412 -100q-186 -121 -186 -362z" />
<glyph unicode="B" horiz-adv-x="1488" d="M20 28q0 28 29 27l51 -4q207 0 209 236v114q0 309 -30.5 344t-64.5 35t-34 26t37 32t68 10q-74 12 -118 72.5t-44 138.5q0 131 101 231t227.5 141.5t257 41.5t268 -44t240 -153t102.5 -246t-139 -282q227 -107 227 -345q0 -135 -103.5 -243t-240.5 -146q-59 -16 -156 -16 l-483 6l-375 -4q-29 0 -29 28zM293 1147q0 -37 24.5 -68.5t59.5 -31.5q57 0 84 94q29 -50 29 -108q0 -61 -31 -109q37 27 57 26q23 0 23 -43v-620q0 -236 206 -236q164 0 279 100.5t115 249t-56 242.5q-68 115 -192 115q-76 0 -151 -47t-74 -119q0 -102 77 -103 q33 0 55.5 26t22.5 52.5t-30 48.5q4 -6 4 -12q0 -35 -35 -35t-35 35q0 49 59 49q35 0 56.5 -26.5t21.5 -67.5t-35.5 -75.5t-83.5 -34.5q-127 0 -127 143q0 98 105 158q86 51 183 51t116 -2q61 84 61 242.5t-104 267.5q-110 110 -286 110h-3q-188 0 -317 -119 q-78 -72 -78 -153z" />
<glyph unicode="C" horiz-adv-x="1525" d="M61 709q0 337 207 550q207 214 525 214q111 0 206 -29t91 -29q45 0 65 31q12 33 27 65q4 11 21 11h1q16 0 25 -21l176 -457q2 -10 2 -18q0 -25 -18 -25q-23 0 -46 43q-53 104 -172 213q-180 164 -370 164q-293 0 -393 -266q-76 -197 -76 -471q0 -676 469 -676 q266 0 399 98q104 76 105 187q0 37 -22.5 63.5t-53.5 26.5q-70 0 -70 -82q-31 8 -52.5 49t-21.5 91t50.5 92t119 42t118.5 -59t50 -151q0 -158 -135 -271q-168 -139 -474 -139t-519 197q-234 218 -234 557z" />
<glyph unicode="D" horiz-adv-x="1826" d="M61 846q0 297 250 471q223 156 549 156q432 0 676 -246q209 -209 209 -514q0 -160 -64.5 -309.5t-179.5 -245.5t-224 -128t-269 -32l-465 10l-375 -6q-29 0 -29 27t29 26l49 -4q211 0 211 238v168q-25 -6 -49 -6q-158 0 -238 116.5t-80 278.5zM127 850q0 -90 45 -169 t128 -79t83 68q0 51 -68 63q35 25 63 25t50 -6q-6 246 -28 268.5t-60.5 34.5t-38.5 28q0 25 27 31q86 18 134 32.5t107.5 47.5t67.5 33q23 0 22 -41v-897q0 -145 78 -197q59 -41 212 -41t247 37q121 45 184 164q99 182 99 485q0 682 -621 682q-303 0 -502 -131 q-229 -154 -229 -438z" />
<glyph unicode="E" horiz-adv-x="1542" d="M20 26q0 28 29 27l47 -4q213 0 213 238v856q0 235 -207 235h-2l-51 -6q-29 0 -29 29t29 29l596 -7l572 4q43 0 47 -40.5t4 -272.5q0 -27 -29 -27t-29 27l7 53q0 137 -160 189q-91 28 -265 28h-12q-242 0 -241 -241v-350h24q197 0 287 36q117 49 117 177v12q-2 6 -2 10 q0 29 28 29q29 0 29 -29l-6 -260l6 -260q0 -29 -29 -29q-23 0 -26 19v32q0 129 -127 179q-92 36 -288 36h-11l-2 -458q0 -109 72.5 -173.5t185 -64.5t157.5 21q88 39 168 186q59 127 121 252q70 125 139 125q49 0 84 -28t35 -70t-24.5 -71.5t-68.5 -29.5t-44 35q0 6 33 14.5 t33 44.5q0 45 -50 45q-90 0 -90 -348q0 -100 18.5 -149.5t18.5 -59.5q0 -18 -18 -18l-885 6l-375 -6q-29 0 -29 28z" />
<glyph unicode="F" horiz-adv-x="1349" d="M20 27q0 29 29 28l51 -4q209 0 209 236v856q0 235 -207 235h-2l-51 -6q-29 0 -29 29t29 29l596 -7l588 4q31 0 31 -38l4 -275q0 -27 -29 -27t-29 27l7 53q0 137 -160 189q-91 28 -265 28h-12q-242 0 -241 -241v-350h24q186 0 279 36q125 49 125 177v12q-2 6 -2 10 q0 29 28 29q29 0 29 -29l-6 -260l6 -260q0 -29 -28 -29t-27 49q0 129 -136 181q-95 36 -282 36h-10v-458q0 -236 211 -236l49 4q29 0 28 -28q0 -29 -28 -29l-375 6l-375 -6q-29 0 -29 29z" />
<glyph unicode="G" horiz-adv-x="1730" d="M61 716q0 323 205 540t527 217q104 0 147 -12.5t90 -28.5t60 -17q53 0 76.5 53.5t37.5 53.5t27.5 -29t94.5 -242t81 -231.5t-18 -18.5t-46 43q-236 377 -534.5 377t-400.5 -266q-80 -203 -80 -445.5t63 -418.5q104 -283 410 -283q412 0 411 344v60q0 237 -206 237h-2 l-52 -4q-29 0 -28 29q0 29 28 28l375 -6l354 6q29 1 29 -28t-29 -29l-49 4q-188 0 -188 -237v-226q0 -66 45 -125t45 -77q0 -29 -27 -29q-20 0 -31 35t-22 47q-25 31 -97.5 31t-264 -56.5t-293.5 -56.5q-319 0 -528.5 219t-209.5 542z" />
<glyph unicode="H" horiz-adv-x="1794" d="M20 27q0 29 29 28l51 -4q207 0 209 236v854q0 237 -207 237h-2l-51 -6q-29 0 -29 29t29 29l375 -7l375 7q29 0 28 -29q0 -29 -28 -29l-49 6q-209 0 -209 -237l-2 -219l716 -353v572q0 237 -206 237h-2l-52 -6q-29 0 -28 29q0 29 28 29l375 -7l375 7q29 0 29 -29t-29 -29 l-49 6q-209 0 -209 -237v-854q0 -236 209 -236l49 4q29 0 29 -28q0 -29 -29 -29l-375 6l-375 -6q-29 0 -28 29q0 29 28 28l52 -4q209 0 208 236v100l-716 365v-465q0 -236 209 -236l51 4q29 0 28 -28q0 -29 -28 -29l-375 6l-375 -6q-29 0 -29 29zM539 793l716 -367v102 l-716 357v-92z" />
<glyph unicode="I" horiz-adv-x="929" d="M61 28q0 28 29 27l51 -4q207 0 209 236v854q0 237 -207 237h-2l-51 -4q-29 0 -29 28t29 28l375 -7l375 7q28 0 28 -28t-28 -28l-49 4q-209 0 -209 -237l-2 -854q0 -236 208 -236l52 4q28 0 28 -26q0 -29 -28 -29l-375 4l-375 -4q-29 0 -29 28z" />
<glyph unicode="J" horiz-adv-x="1425" d="M61 336q0 76 39 134t97.5 58t93.5 -34.5t35 -84.5t-56.5 -90t-56.5 -81q0 -113 107.5 -171.5t228.5 -58.5q172 0 250 78q66 63 78 197q4 35 4 266l4 637q0 196 -255 196h-3q-168 0 -256 -30q-141 -49 -142 -185l7 -53q0 -27 -28 -27t-28 35v123.5t2 143.5q6 38 57 38h3 l538 -4l596 7q29 0 29 -29t-29 -29l-49 6q-209 0 -209 -235l-2 -686q0 -502 -543 -502q-201 0 -344 88q-168 104 -168 293z" />
<glyph unicode="K" horiz-adv-x="1787" d="M41 28q0 28 29 27l51 -4q207 0 209 236v854q0 237 -207 237h-2l-51 -4q-29 0 -29 28t29 28l374 -7l375 7q29 0 29 -28t-29 -28l-49 4q-209 0 -209 -237l-2 -520l467 446q150 143 150 224t-138 81q-32 0 -32 29t28 29l258 -7l262 7q29 0 29 -28t-43 -28q-76 0 -194 -94 q-45 -41 -134 -123l-268 -248l543 -768q66 -92 190 -92l64 6q26 1 26 -28t-26 -29l-375 6l-377 -6q-27 0 -26 29q0 29 26 28l68 -6q117 0 117 78q0 59 -70 160l-326 471l-219 -201v-270q0 -236 209 -236l51 4q29 0 29 -27.5t-29 -27.5l-375 4l-374 -4q-29 0 -29 28z" />
<glyph unicode="L" horiz-adv-x="1501" d="M41 28q0 28 29 27l51 -4q209 0 209 236v854q0 237 -209 237h-2l-49 -4q-29 0 -29 28t29 28l374 -7l377 7q27 0 27 -28t-27 -28l-51 4q-211 0 -211 -237v-854q0 -236 211 -236q83 0 123 21q88 37 178 184q70 127 139 252q78 125 142 125q47 0 77.5 -26.5t30.5 -69.5 t-24.5 -73t-68.5 -30t-44 35q0 6 33 14.5t33 44.5q0 49 -48 50q-57 0 -90 -154q-23 -109 -23 -199q0 -97 27 -170q10 -25 11 -37q0 -18 -19 -18l-803 4l-374 -4q-29 0 -29 28z" />
<glyph unicode="M" horiz-adv-x="2027" d="M20 25q0 27 50 26q125 0 180 162q37 109 37 266v574q0 323 -182 323h-1l-55 -4q-29 0 -29 29t29 29l205 -5l131 5q20 0 55 -58l531 -883l512 822q74 119 112 119l158 -9l223 9q29 0 29 -29t-29 -29l-49 6q-211 0 -211 -237v-854q0 -238 213 -238l49 4q29 1 29 -27 t-29 -28l-376 6l-375 -6q-29 0 -29 28t29 27l49 -4q213 0 213 238v946l-494 -782q99 -175 99 -272q0 -95 -69 -159t-169 -65q-51 0 -89 38t-38 92t119 214l-514 844v-664q0 -156 37 -266q55 -162 178 -162q4 0 10 1t10 1q29 0 29 -27.5t-29 -27.5l-258 6l-262 -6 q-29 0 -29 27zM774 96q0 -94 80 -94q31 0 58.5 34.5t27.5 67.5t-70 162q-96 -136 -96 -170z" />
<glyph unicode="N" horiz-adv-x="1579" d="M41 25q0 27 49 26q125 0 180 162q37 109 37 266v574q0 323 -181 323h-1l-55 -4q-29 0 -29 29t29 29l204 -5l129 5q18 0 33 -19.5t31 -40.5l758 -797v377q0 156 -37 264q-53 162 -178 162h-11q-6 -2 -10 -2q-29 0 -28 29q0 27 28 27h520q29 0 29 -27t-49 -27 q-125 0 -180 -162q-37 -109 -37 -264v-424l104 -110q119 -127 119 -271q0 -188 -174 -188q-96 0 -96 104v197l-871 889v-668q0 -158 37 -266q53 -162 178 -162q4 0 10.5 1t10.5 1q29 0 28 -26q0 -29 -28 -29l-260 6l-260 -6q-29 0 -29 27zM1272 66q0 -25 16.5 -49.5 t38.5 -24.5q23 0 40 25.5t17 58.5t-38 71t-74 70v-151z" />
<glyph unicode="O" horiz-adv-x="1591" d="M61 716q0 325 206 541t530 216q156 0 280 -70q152 -84 152 -227q0 -70 -42 -117t-110 -47t-112.5 47t-44.5 96t22 84q12 -70 66 -70q68 0 68 80q0 82 -107 131q-84 39 -176 39q-283 0 -385 -264q-76 -195 -76 -447.5t59 -418.5q102 -283 410 -283q459 0 459 705 q0 115 -49.5 155.5t-148 45.5t-144.5 20q-176 45 -177 160q0 61 60.5 119.5t124.5 58.5q-47 -74 -47 -150q0 -131 202.5 -140t292.5 -46q156 -63 156 -225q0 -317 -208 -535.5t-525 -218.5t-526.5 218t-209.5 543z" />
<glyph unicode="P" horiz-adv-x="1392" d="M20 28q0 28 29 27l51 -4q152 0 193 135q16 55 16 287.5t-30.5 268.5t-64.5 36t-34 27t38 33t69 10q-74 10 -119 71.5t-45 139.5q0 131 105 241q184 193 481 193q355 0 518 -166q104 -108 104 -262q0 -80 -35 -164q-109 -252 -391 -252q-143 0 -243.5 94.5t-100.5 235.5 q0 66 39 117t94 51t89 -34t34 -81q0 -86 -84 -98q4 14 4 27q0 39 -35 38q-57 0 -57 -80.5t67.5 -147t147.5 -66.5q127 0 187.5 94t60.5 227q0 193 -112.5 303.5t-305.5 110.5q-197 0 -319 -129q-76 -82 -76 -164q0 -37 23.5 -68.5t60.5 -31.5q55 0 82 94q31 -51 31 -111.5 t-35 -107.5q38 28 58 28h1q23 0 23 -43v-620q0 -236 209 -236l51 4q29 0 28 -28q0 -27 -28 -27l-375 4l-375 -4q-29 0 -29 28z" />
<glyph unicode="Q" horiz-adv-x="1601" d="M61 717q0 324 206 540t530 216q156 0 280 -68q152 -84 152 -229q0 -68 -43 -115t-110 -47t-111.5 46t-44.5 97.5t22 83.5q12 -70 66 -70q68 0 68 80q0 82 -96 126q-95 44 -187 44q-461 0 -461 -737q0 -676 469 -676q459 0 459 703q0 160 -109 188q-117 16 -233 33 q-176 47 -177 160q0 63 60.5 120.5t124.5 59.5q-47 -76 -47 -152q0 -111 163 -134.5t318 -45.5q170 -53 170 -231q0 -221 -111 -407.5t-307 -276.5q-37 -18 -144.5 -45.5t-152.5 -59.5q31 4 57 4q127 0 220 -63q72 -59 141 -119q82 -63 199 -64h2q115 0 170 54q55 53 96 188 q10 29 24 29q21 0 21 -29q0 -150 -102.5 -306.5t-255.5 -156.5t-240 115q-63 106 -129 211q-77 106 -205 106h-16q-74 -4 -74 -45q0 -23 35 -66.5t35 -88.5t-37 -78t-89 -33t-93.5 40t-41.5 93q0 147 267 244q-319 0 -528.5 219t-209.5 543z" />
<glyph unicode="R" horiz-adv-x="1482" d="M20 28q0 28 29 27l51 -4q129 0 176 94q35 68 35 207v209q0 106 -4 135t-26 45q-29 12 -65 28.5t-36 35.5q0 33 107 43q-74 10 -119 71.5t-45 139.5q0 205 199 330q173 109 420 109h2q248 0 411 -107q184 -119 184 -351q0 -166 -116.5 -273.5t-284.5 -115.5 q37 -39 106 -116q92 -113 128 -163q73 -103 135 -347q31 -119 55 -162q37 -68 110 -68t134 72q-33 -174 -244 -174q-174 0 -263 110t-89 285v70q0 219 -168 497q-119 18 -199 110.5t-80 211.5q0 66 42 111t97.5 45t87 -30t31.5 -73q0 -84 -73 -92q14 -84 143 -231 q194 29 194 316q0 198 -77 296q-94 123 -318 123q-160 0 -277.5 -83t-117.5 -212q0 -37 23.5 -68.5t60.5 -31.5q59 0 82 94q31 -51 31 -110.5t-35 -108.5q34 28 57 28h2q23 0 23 -43v-620q0 -236 209 -236l51 4q29 0 28 -28q0 -27 -28 -27l-375 4l-375 -4q-29 0 -29 28z M633 969q0 -86 51 -163t131 -95q-41 66 -90 143.5t-49 122.5t35 45q16 0 27.5 -14.5t4.5 -30.5q31 12 31 49q0 57 -63 57q-37 0 -57.5 -37t-20.5 -77z" />
<glyph unicode="S" horiz-adv-x="1376" d="M82 367q0 81 48 145q48 63 117 64h1q70 0 121 -40t51 -98q0 -113 -72 -137q0 82 -72 82q-33 0 -53 -27.5t-20 -62.5q0 -92 99 -165t196.5 -97.5t229.5 -24.5t240 77q107 77 108 222q0 147 -146 232q-72 43 -277 100q-63 -84 -63 -123t19.5 -62.5t43.5 -23.5q66 0 66 53 q0 16 -12 25q-4 -27 -32 -27t-28 27q0 35 35 35q70 0 70 -66q0 -39 -29 -69.5t-74 -30.5t-77.5 38t-32.5 97.5t61 140.5q-219 61 -328 135q-166 113 -166 299.5t175 294.5q147 92 352 93q344 0 512 -213l-332 -406q481 -139 481 -448q0 -231 -200 -351q-164 -100 -412 -100 q-410 0 -555 250q-45 80 -45 162zM317 1163q0 -139 166 -215q47 -20 287 -82l154 191q51 65 51 137q0 115 -119 176q-96 51 -218 51t-221 -71.5t-100 -186.5z" />
<glyph unicode="T" horiz-adv-x="1568" d="M82 1065l6 262l-6 117q0 29 29 29q14 0 49 -29q26 -20 626 -20q14 0 27 -1q573 0 598 21q33 29 47 29q29 0 29 -29l-6 -117l6 -262q0 -29 -29 -29q-23 0 -26 27q2 -10 2 43q0 145 -82 205.5t-195 60.5l-59 4q-199 0 -199 -235v-854q0 -236 209 -236l51 4q29 0 29 -28 q0 -29 -29 -29l-375 6l-374 -6q-29 0 -29 29t29 28l49 -4q209 0 209 236l2 854q0 235 -201 235h-2h-29q-23 -2 -28 -4q-272 -14 -273 -266v-21q2 -14 2 -20q0 -29 -28 -29q-29 0 -29 29z" />
<glyph unicode="U" horiz-adv-x="1730" d="M20 1406q0 28 29 28l375 -4l375 4q29 0 28 -27q0 -29 -28 -29l-49 4q-211 0 -211 -237v-594q0 -297 32.5 -366.5t129 -122.5t253.5 -54q344 0 412 232q29 96 29 372v342q0 154 -35 263q-55 165 -177 165h-1q-4 0 -11.5 -1t-9.5 -1q-29 0 -28 29q0 25 35.5 25t122.5 -1 t130 -1h131q86 2 122 2t36 -26t-49 -26q-125 0 -180 -163q-35 -111 -35 -265v-313q0 -350 -39 -448q-90 -238 -516 -238q-307 0 -465 123q-76 59 -96 124.5t-21 184.5v758q0 237 -209 237h-2l-49 -4q-29 0 -29 28z" />
<glyph unicode="V" horiz-adv-x="1738" d="M20 1401q0 29 29 29l375 -7l375 7q29 0 28 -29q0 -29 -28 -29l-66 6q-172 0 -172 -123q0 -47 27 -110l280 -676l318 477q139 207 139 305q0 123 -197 123q-29 0 -28 29q0 27 28 27l261 -5l301 5q28 0 28 -27t-32 -27q-152 0 -459 -452l-338 -500q78 -178 78 -269 t-71 -150.5t-177 -59.5q-121 0 -121 125q0 37 33 82l86 116l-365 877q-4 12 -30 53q-119 182 -232 182q-25 0 -41 -8q-29 0 -29 29zM643 72q0 -82 72 -82q67 0 67 102q0 37 -45 129q-94 -123 -94 -149z" />
<glyph unicode="W" horiz-adv-x="2250" d="M20 1401q0 29 29 29l375 -7l375 7q29 0 28 -29q0 -29 -28 -29l-66 6q-172 0 -172 -123q0 -47 27 -110l256 -608l325 409q156 195 156 305q0 123 -197 123q-29 0 -28 29q0 27 28 27l261 -5l251 5q53 92 175 92t217 -105q137 -158 137 -442q0 -389 -162 -674 q-195 -346 -557 -346q-190 0 -320 274q-94 201 -124 445l-144 -182q78 -176 78 -244q0 -115 -61 -203t-172 -88q-72 0 -127 32q-56 32 -56 89q0 56 60 129l98 127l-219 549q-33 88 -107 262q-39 84 -114.5 159.5t-151.5 75.5q-25 0 -41 -8q-29 0 -29 29zM571 90 q0 -82 74 -82q88 0 88 139q0 61 -33 140q-129 -145 -129 -197zM1190 905q25 -240 84 -432q94 -307 235 -307q317 0 478 280q127 228 127 572q0 106 -56 214t-153 108h-1q-97 0 -98 -85q0 -66 82 -75q-37 -29 -80 -29q-80 0 -136 54.5t-56 133.5q0 16 4 31 q-102 -47 -430 -465z" />
<glyph unicode="X" horiz-adv-x="1751" d="M20 1401q0 29 29 29l375 -7l375 7q29 0 28 -29q0 -29 -28 -29l-58 6q-110 0 -110 -72q0 -52 63 -143l240 -340l199 244q135 166 135 244q0 65 -85 65h-3l-39 -4q-29 0 -29 29t29 29l258 -7l262 7q29 0 29 -29t-29 -29q-78 0 -178.5 -47t-149.5 -106l-366 -441l360 -514 q152 -213 332 -213l43 4q29 1 29 -27t-29 -28l-375 4l-375 -4q-29 0 -28 27q0 29 28 28l58 -4q110 0 110 71q0 54 -63 142l-238 338l-201 -242q-135 -162 -135 -241q0 -66 90 -66h21q12 2 18 2q29 0 29 -27.5t-29 -27.5l-260 4l-262 -4q-27 0 -27 28t27 27q12 -6 35 -6 q126 0 330 191q113 135 333 407l-364 516q-152 215 -330 215l-45 -6q-29 0 -29 29z" />
<glyph unicode="Y" horiz-adv-x="1683" d="M20 1401q0 29 29 29l375 -7l375 7q29 0 28 -29q0 -29 -28 -29l-70 8q-125 0 -125 -88q0 -57 60 -151l280 -439l166 261q135 211 135 313t-102 102l-29 -4q-29 0 -29 28t29 28l258 -5l262 5q29 0 29 -28t-32 -28t-79 -18q-190 -80 -393 -393l-141 -218q-51 -80 -51 -144.5 t112.5 -132t112.5 -126.5t-65.5 -107.5t-137.5 -66.5q45 -117 189 -117l51 4q27 0 26 -28q0 -29 -26 -29l-377 6l-375 -6q-27 0 -26 29q0 29 26 28l51 -4q131 0 183 101q-182 23 -304 133.5t-122 285.5q0 82 50 147.5t120.5 65.5t113.5 -43t43 -101t-34.5 -94t-65.5 -36 q-4 0 -8 4q6 24 6 35q0 49 -45 49q-37 0 -55.5 -34t-18.5 -70q0 -119 106.5 -205t229.5 -94q10 41 10 92v331l-344 521q-155 235 -324 235h-1h-11q-6 -2 -8 -2q-29 0 -29 29zM969 287q0 -25 2 -45q73 43 73 127q0 53 -75 123v-205z" />
<glyph unicode="Z" horiz-adv-x="1576" d="M20 942q0 94 86 94q47 0 48 -35q0 -6 -32 -14t-32 -43q0 -49 45 -49q57 0 90 152q25 106 25 201t-18.5 144.5t-18.5 61.5q0 18 18 19l480 -7l641 7q47 0 47 -18.5t-103 -160.5l-856 -1179q-12 -14 -12 -31q0 -35 100 -35h353q74 0 123 23q88 39 174 184q66 125 134 248 t134 123q110 0 110 -92q0 -41 -23.5 -71t-67.5 -30t-44 35q0 6 33 14.5t33 44.5q0 49 -47 50q-57 0 -84 -148q-20 -109 -20 -196q0 -104 28 -179q10 -27 10 -37q0 -18 -18 -18l-479 6l-760 -6q-47 0 -47 20q0 10 16 35q231 307 690 928l178 248q103 128 103 155 q0 35 -101 35q-214 0 -214 1l30 1q-141 -2 -188 -22q-86 -39 -176 -187q-68 -125 -139.5 -248.5t-137.5 -123.5q-45 0 -78 27.5t-33 72.5z" />
<glyph unicode="[" horiz-adv-x="878" d="M205 -215v1591q0 92 127 92h434q31 0 31 -24.5t-25 -24.5h-199q-84 0 -115.5 -19.5t-31.5 -94.5v-1448q0 -76 32 -95.5t115 -19.5h199q25 0 25 -24t-31 -23h-434q-127 0 -127 90z" />
<glyph unicode="\" horiz-adv-x="927" d="M102 1454q0 14 15 14h26q43 0 60 -36l721 -1729q4 -10 4 -18v-2q0 -8 -13.5 -13.5t-23.5 -5.5h-27q-33 0 -47 35l-706 1735q-4 10 -9 20z" />
<glyph unicode="]" horiz-adv-x="878" d="M82 -281.5q0 23.5 24 23.5h199q84 0 116 19.5t32 95.5v1448q0 76 -32 95t-116 19h-199q-25 0 -24 23q0 27 31 26h434q127 0 127 -92v-1591q0 -90 -127 -90h-434q-31 0 -31 23.5z" />
<glyph unicode="^" horiz-adv-x="1163" d="M102 719l347 651h266l346 -651h-213l-266 491l-267 -491h-213z" />
<glyph unicode="_" horiz-adv-x="1146" d="M61 -119h1024v-180h-1024v180z" />
<glyph unicode="`" d="M162 1206q0 43 27.5 74t71.5 31t108 -58l245 -219q15 -12 15 -23t-11.5 -11.5t-330.5 94.5q-125 37 -125 112z" />
<glyph unicode="a" horiz-adv-x="1208" d="M82 193q0 190 242 276q168 59 403 59v47q0 147 -27 207q-43 92 -172 92q-59 0 -121.5 -32.5t-62.5 -85.5q0 -6 11.5 -35t11.5 -47q0 -53 -41 -84t-92.5 -31t-82 36t-30.5 85q0 82 82 139q145 101 361 102h4q213 0 309 -112q41 -49 49 -129q4 -20 4 -150h37q163 0 163 -87 q0 -38 -26.5 -67.5t-63.5 -29.5q-61 0 -61 50t49 50l39 -12q20 0 20 23q0 39 -157 39v-291q0 -147 84 -148q51 0 75.5 52.5t34.5 52.5q23 0 23 -27q0 -86 -62.5 -133t-150.5 -47q-209 0 -209 186v41q-92 -227 -365 -227q-113 0 -195.5 63.5t-82.5 174.5zM303 235.5 q0 -76.5 51.5 -125.5t128 -49t140 57.5t84 122t20.5 144.5v107q-264 -4 -367 -117q-57 -63 -57 -139.5z" />
<glyph unicode="b" horiz-adv-x="1366" d="M20 1380q0 27 35 33q78 0 189.5 26.5t156.5 54.5t58 28q23 0 22 -43v-740q95 181 311 181h1q215 0 353 -128t138 -339t-145.5 -354.5t-362.5 -143.5t-364.5 117t-147.5 338v753q0 121 -31 151t-122 37t-91 29zM479 419q0 -172 56 -280q74 -137 230.5 -137t231.5 152 q58 114 58 285t-58 286q-72 147 -227.5 147t-232.5 -157q-58 -120 -58 -296z" />
<glyph unicode="c" horiz-adv-x="1132" d="M82 428q0 225 156 358.5t391 133.5q123 0 229 -46q135 -61 135 -165q0 -51 -39 -83t-90 -32q-102 0 -119 115q0 20 -4 61q-18 104 -137 104q-154 0 -233 -120q-70 -104 -70 -281t92 -295q100 -133 287 -133q63 0 140 37t77 94q0 82 -68 82q-55 0 -65 -70q-23 31 -23 82.5 t45 98.5t112 47t110 -48t43 -116q0 -147 -166 -232q-133 -65 -294 -65h-5q-219 0 -361.5 124t-142.5 349z" />
<glyph unicode="d" horiz-adv-x="1343" d="M82 434q0 209 134 347.5t336 138.5t310 -170v727q0 43 23 43q8 0 78.5 -40t271.5 -65q20 -2 54 -7t34 -30q0 -18 -33 -26l-4 2q-141 0 -174 -29q-43 -41 -43 -186l-2 -848q0 -205 76 -228q57 -18 96 -18h53q25 0 25 -22q0 -23 -30 -23h-97q-68 2 -100 2l-146 -4 q-55 0 -72 39q-8 20 -12 88q-94 -170 -302 -170t-342 135t-134 344zM313 431q0 -164 58 -279q74 -150 221 -150q125 0 205 104q69 95 69 224v200q0 133 -72 239q-72 105 -198 105h-2q-147 0 -223 -155q-58 -120 -58 -288z" />
<glyph unicode="e" horiz-adv-x="1144" d="M82 430q0 219 143.5 355.5t376.5 136.5q172 0 283 -72q131 -84 131 -246q0 -133 -108.5 -224t-240.5 -91t-214 47q-102 59 -103 180q0 61 48 105.5t113 44.5t105.5 -50.5t40.5 -119.5q-25 55 -92 55q-37 0 -64.5 -28.5t-27.5 -65.5q1 -63 59 -95q58 -31 132 -31q0 1 2 1 q76 0 120 79q43 78 44 182q0 107 -68 189t-197 82t-205 -114q-76 -113 -76 -275q0 -166 118 -290q116 -124 294 -124t326 175q16 20 47 45l14 -17q-6 -78 -133 -180q-158 -129 -377 -129t-355 128t-136 347z" />
<glyph unicode="f" horiz-adv-x="821" d="M20 23q0 23 39 24q-29 -2 43 -2t99 12q74 31 73 209v574h-198q-25 0 -25 24q0 25 25 25h198v125q0 41 15.5 125t15.5 125q0 71 -36 71h-1q-41 0 -41 -43q0 -31 43 -39q-23 -14 -53.5 -14t-59 27.5t-28.5 68.5t29.5 68t70.5 27q96 0 150 -107q119 150 323 150 q98 0 179 -35q104 -43 104 -129q0 -102 -115 -103q-84 0 -114 58q-14 51 -30.5 105t-78.5 54t-116 -73.5t-54 -262.5l2 -198h168q88 0 88 -90q0 -37 -25.5 -64.5t-62.5 -27.5q-63 0 -63 51t51 51l37 -14q20 0 20 22q0 23 -47 23h-164l-2 -561q0 -190 76 -222q29 -12 154 -12 q25 0 24 -22q0 -23 -24 -23l-332 6l-332 -6q-25 0 -25 23z" />
<glyph unicode="g" horiz-adv-x="1187" d="M20 -219q0 74 43 127t115 53t122 -40t50 -99t-22 -98q-12 71 -68 71h-2q-72 0 -72 -88t117 -135q90 -37 207 -37t231.5 87t114.5 214q0 180 -164 291q-106 72 -323 127q-117 -39 -117 -150q0 -43 71.5 -65.5t141.5 -44.5q74 -35 74 -105q0 -141 -191 -198q49 63 49 125 q0 90 -75 135q-72 27 -145 56.5t-73 90.5q0 133 213 187q-176 94 -176 265t133.5 269t307.5 99q70 0 145 -19q180 137 279 137q49 0 84.5 -27.5t35.5 -72.5t-30.5 -78t-86 -33t-99.5 51.5t-60 51.5q-33 0 -74 -54q219 -88 219 -296q0 -158 -110 -255.5t-271 -109.5 q430 -139 430 -381q0 -352 -577 -352q-168 0 -293 65q-154 82 -154 236zM358 596q0 -156 33 -229q51 -109 187 -109q104 0 159 111q43 89 43 206q0 295 -225 295q-197 0 -197 -274z" />
<glyph unicode="h" horiz-adv-x="1314" d="M4 1380q0 27 34 31t62 6q188 23 262 64t80 41q23 0 23 -43l-2 -744q274 186 399 187q96 0 149.5 -56.5t53.5 -154.5v-420q0 -201 82 -234q31 -12 108 -12q23 1 23 -22t-23 -23l-251 6l-273 -6q-23 0 -22 23q0 23 22 22q78 0 104.5 22.5t26.5 101.5v241q-2 160 -2 241 q0 162 -112 162q-102 0 -285 -127v-438q0 -168 57 -193q10 -4 63.5 -8t53.5 -25.5t-25 -21.5l-252 6l-290 -6q-25 0 -25 23t25 22q88 0 116 10q74 22 74 181v8v583q0 438 -45 490q-25 25 -84 33l-94 4q-33 6 -33 26z" />
<glyph unicode="i" horiz-adv-x="796" d="M41 781.5q0 25.5 30 29.5t56 6q193 23 285 72q53 33 67 33q23 0 23 -41v-590q0 -203 80 -234q31 -12 149 -12q25 1 25 -22t-25 -23l-332 6l-331 -6q-25 0 -25 21.5t37 25.5q-20 -2 47 -2t94 12q76 31 76 230l2 233q0 147 -47 197q-29 29 -120 34t-91 30.5zM233 1117 q0 56 39 95t95 39q55 0 94 -40t39 -96t-38 -97t-94 -41t-95.5 42t-39.5 98z" />
<glyph unicode="j" horiz-adv-x="1079" d="M76 -154q45 45 106 45t102.5 -42t41.5 -91t-14 -63q-19 -20 -19 -2q-25 40 -49 40l-33 -18q-18 -16 -18 -51t38 -74q67 -69 163 -69h3h6q172 0 295 113q123 114 123 231v2q0 61 -39 96q-49 20 -100 39q-70 37 -70 148v364q0 154 -41 198t-182 44q-33 0 -33 26q0 27 29 31 q51 0 167 23t173 53q49 33 71 33t21 -41v-590q0 -135 31 -193q12 -25 50 -50.5t38 -74.5q0 -150 -169 -334t-380 -186q-168 0 -287 117q-70 70 -70 150q0 82 46 126zM530 1116q0 57 39 96t95 39q55 0 94 -40t39 -97t-38 -97t-93 -40t-95.5 41t-40.5 98z" />
<glyph unicode="k" horiz-adv-x="1511" d="M61 297q0 299 330 358v332q0 238 -29 277q-39 49 -186 49l-4 -2h-6q-31 0 -31 20t29 23q139 18 205.5 31t130 52.5t75.5 39.5q20 0 21 -33v-782q66 0 140.5 -36t121.5 -85q156 147 156 223q0 45 -56.5 53t-56.5 27q0 25 25 24l235 -6l234 8q25 0 24 -22q0 -25 -24 -25 q-98 0 -226.5 -76t-210.5 -161l-71 -78q57 -76 106 -236.5t62 -187.5q45 -88 123 -88q49 0 78.5 36t29.5 82t-33.5 79.5t-81.5 33.5q-47 0 -79 -34q14 61 64 100t119 39t122 -55.5t53 -143.5t-80 -134t-192 -46q-217 0 -322 139q-49 68 -113 279l-145 -138q4 -98 27 -135 q29 -53 111.5 -53t82.5 -21t-33 -26q6 2 -49 2l-274 4l-211 -4q-82 0 -82 21.5t29 25.5q-2 -2 58.5 -2t89 27.5t36.5 88t8 150.5v297q-186 -41 -186 -219q0 -41 53 -79t53 -86t-32.5 -77.5t-88 -29.5t-92.5 55t-37 125zM596 299l131 121q-27 84 -43 108q-31 51 -88 72v-301z " />
<glyph unicode="l" horiz-adv-x="794" d="M41 21.5q0 21.5 35 25.5q-16 -2 42 -2t103 18q74 29 74 224v841q0 94 -6 126q-13 70 -123 85q-45 4 -84 9.5t-39 25.5q0 27 33 30.5t63 6.5q188 27 275 70q16 10 34.5 22.5t34.5 12.5t17 -43v-1182q0 -201 80 -232q35 -14 96 -14h53q25 3 25 -21t-25 -24l-332 6l-331 -6 q-25 0 -25 21.5z" />
<glyph unicode="m" horiz-adv-x="1906" d="M20 782q0 27 34 31t63 6q190 23 262.5 63t79.5 40q23 0 22 -41v-146q272 186 400 187q182 0 200 -181q269 181 377 181h1q107 0 161 -56t53 -155v-420q0 -201 82 -234q29 -12 107 -12q24 1 24 -23t-24 -24l-252 8l-250 -8q-25 0 -25 24t25 23q74 0 92 31t18 112l-2 461 q0 164 -114 164q-96 0 -271 -119v-461q0 -154 43 -176q10 -6 59.5 -10t49.5 -25.5t-23 -21.5l-192 6l-229 -6q-25 0 -25 23t25 22q51 0 69 41q19 40 19 174v391q0 162 -113 162q-104 0 -285 -127v-438q0 -168 58 -193q10 -4 62 -8t52 -25.5t-22 -21.5l-252 6l-293 -6 q-23 0 -23 23t23 22q88 0 117 10q55 16 69 101q4 33 4 131l3 233q0 150 -48 197q-25 27 -78 31t-93 8t-40 26z" />
<glyph unicode="n" horiz-adv-x="1316" d="M20 782q0 27 37 33q31 0 60 2q193 27 265 66t77 39q23 0 22 -43v-144q272 186 400 187q203 0 202 -211v-420q0 -201 82 -234q29 -12 107 -12q24 1 24 -22t-24 -23l-252 6l-270 -6q-25 0 -25 23t25 22q76 0 103.5 22.5t27.5 101.5v241q-2 160 -2 239q0 164 -115 164 q-102 0 -283 -127v-395q0 -207 54 -234q23 -12 96 -12q23 0 22.5 -23.5t-22.5 -23.5l-252 8l-293 -8q-23 0 -23 24t23 23q88 0 117 10q53 16 69 99q4 35 4 133l3 233q0 147 -42.5 191.5t-179.5 44.5h-4q-33 4 -33 26z" />
<glyph unicode="o" horiz-adv-x="1157" d="M82 438q0 211 144.5 346.5t354.5 135.5t352 -138.5t142 -348.5t-141 -344t-354 -134t-355.5 136t-142.5 347zM315 436q1 -434 265 -434t264 436t-261 436h-1q-267 0 -267 -438z" />
<glyph unicode="p" horiz-adv-x="1345" d="M20 -523q0 24 25 23q141 0 168 15q59 33 59 180v794q0 158 -28.5 208.5t-118.5 50.5q-53 0 -65.5 3t-12.5 17q0 20 27 23l37 2q152 8 321 118q16 10 25 11q20 0 20 -35v-135q96 170 307.5 170t345.5 -135.5t134 -344.5t-134.5 -348t-340 -139t-312.5 172v-387 q0 -178 58 -219q31 -20 174 -21q25 0 24 -24q0 -23 -24 -23l-332 8l-332 -8q-25 0 -25 24zM477 346q31 -344 273 -344q129 0 204.5 119.5t75.5 319.5t-74.5 316.5t-203.5 116.5q-70 0 -132 -38q-124 -74 -143 -289v-201z" />
<glyph unicode="q" horiz-adv-x="1335" d="M82 433q0 208 148.5 348.5t357.5 140.5q123 0 231 -60.5t138 -60.5t93.5 60.5t105.5 60.5t71.5 -26t29.5 -68t-28.5 -69.5t-60.5 -27.5t-52 14q43 8 43 39q0 43 -39 43t-39 -71v-1014q0 -195 70 -229q29 -13 145 -13h17q22 1 22 -23t-22 -24l-334 8l-332 -8q-25 0 -24 23 q0 23 39 24q-29 -2 44.5 -2t102.5 15q68 35 68 225v395q-94 -178 -303.5 -178t-350.5 135t-141 343zM315 434q0 -169 60 -282q74 -150 227 -150q285 0 285 438q0 193 -45 289q-70 145 -230 145t-235 -149q-62 -118 -62 -291z" />
<glyph unicode="r" horiz-adv-x="1064" d="M20 777q0 21 31 24q221 14 342 86l49 31q12 4 19 4q20 0 22 -33v-31q35 16 70 35q68 29 131 29q129 0 214 -55.5t85 -150.5t-56 -144.5t-122 -49.5q-154 0 -184 131q18 -10 34 -22h33q35 0 60.5 30.5t25.5 66.5t-45 75t-115 39t-131 -51v-478q0 -162 28 -214t116 -52h24 q31 0 43.5 -4t12.5 -20q0 -23 -33 -23h-51l-207 4h-68l-211 -4h-49q-31 0 -31 20q0 27 54 27h22q90 0 118 51.5t28 214.5v84q0 178 -5.5 232.5t-25.5 79.5q-37 49 -185 49l-10 -2q-33 0 -33 21z" />
<glyph unicode="s" horiz-adv-x="1073" d="M92 244q0 63 42 109t107 46t109.5 -38.5t44.5 -89t-24 -83.5q-10 70 -64 70q-69 0 -69 -80q0 -84 98 -135q80 -43 182.5 -43t181.5 39q100 51 101 156q0 104 -172 150t-338 87q-180 68 -180 214t125 214q100 53 256 53l208 -20q41 0 66 29.5t33 29.5q14 0 22 -20 q29 -98 67.5 -211t39.5 -115q0 -20 -21 -20q-14 0 -37 45q-49 100 -150.5 167.5t-197.5 67.5t-159.5 -33.5t-63.5 -109.5q0 -98 178 -135q317 -68 328 -72q176 -70 176 -237t-160 -252q-129 -72 -300 -72t-285 61q-143 76 -144 228z" />
<glyph unicode="t" horiz-adv-x="929" d="M41 864q0 25 25 25q51 0 118 35q225 111 236 319q4 70 33 70t28 -47l-2 -377h226q88 0 88 -90q0 -37 -26 -64.5t-62 -27.5q-63 0 -64 51q0 51 51 51l37 -14q20 0 21 22q0 23 -48 23h-221v-594q0 -109 31 -160q39 -66 139 -66q59 0 112.5 30t64.5 89t36 60q25 0 25 -29 q0 -100 -93.5 -157.5t-201.5 -57.5q-207 0 -279 108q-39 57 -39 199v578h-210q-25 0 -25 24z" />
<glyph unicode="u" horiz-adv-x="1378" d="M20 783.5q0 23.5 30 27.5t56 6q193 25 285 72q53 33 68 33q23 0 22 -41v-678q0 -152 119 -152q94 0 322 144v319q0 154 -48 203q-25 25 -83 33q-47 2 -87.5 5t-39.5 27q0 25 29.5 29t56.5 6q195 25 284 70q47 35 69 35t21 -43v-588q0 -205 80 -234q31 -12 56 -12h55 q22 1 22 -22t-29 -23h-77q-45 2 -80 2l-145 -4q-53 0 -72 49q-8 23 -10 96q-301 -188 -435.5 -188t-172.5 55q-37 54 -37 186v7v388q0 77 -48 126q-25 25 -84 33q-47 2 -87 6t-40 27.5z" />
<glyph unicode="v" horiz-adv-x="1292" d="M57 865.5q0 23.5 25 23.5l356 -8l43 -105q111 145 252 146q209 0 351.5 -138.5t142.5 -347.5t-140.5 -345t-349.5 -136q-113 0 -168 129l-182 422q-25 57 -72 158.5t-95 139.5t-138 38q-25 0 -25 23.5zM508 713l287 -703q200 48 200 443q0 421 -261 421h-1 q-164 0 -225 -161z" />
<glyph unicode="w" horiz-adv-x="1898" d="M20 865.5q0 23.5 25 23.5l373 -8l336 -822l207 478q-20 49 -62.5 140t-90.5 128t-140 37q-23 0 -23 23.5t23 23.5l368 -8l43 -105q80 145 252 146q231 0 358.5 -128.5t127.5 -347.5t-140.5 -355t-353.5 -136q-109 0 -166 129q-14 33 -172 393l-199 -465q-25 -57 -69 -57 q-129 0 -185 129l-182 420q-23 53 -68.5 154.5t-93.5 142.5t-143 41q-25 0 -25 23.5zM1100 727l293 -717q200 56 200 443q0 421 -261 421h-1q-160 0 -231 -147z" />
<glyph unicode="x" horiz-adv-x="1325" d="M41 19.5q0 23.5 25 23.5q113 0 278 131q47 37 231 213l-174 211q-20 27 -59 82q-123 162 -244 162q-25 0 -24 22q0 23 24 23l230 -6l272 6q25 0 25 -21.5t-47.5 -28t-47.5 -36.5q0 -56 193 -273l104 97q76 74 76 137q0 78 -112 78q-23 0 -23 23.5t23 23.5l235 -6l234 8 q24 0 24 -24t-24 -23q-113 0 -279 -131q-47 -37 -231 -213l174 -211q63 -80 127 -160q80 -84 176 -84q25 0 24 -23q0 -23 -24 -22l-232 6l-270 -6q-25 0 -25 21t47.5 27t47.5 38q0 39 -68.5 124t-124.5 148l-104 -96q-76 -74 -76 -137q0 -78 113 -78q23 0 22.5 -23.5 t-22.5 -23.5l-236 6l-233 -8q-25 0 -25 23.5z" />
<glyph unicode="y" horiz-adv-x="1343" d="M41 783.5q0 25.5 34 29.5t73.5 6t134 25t139.5 50.5t57 27.5q23 0 23 -41v-678q0 -152 119 -152q74 0 319 142v327q0 162 -45 197q-29 23 -120 32t-91 33q0 25 39 33q29 2 68.5 4t134 25t140.5 50.5t56 27.5q23 0 23 -43v-654q0 -94 31 -139q8 -10 57 -47 q29 -23 29 -84.5t-56 -163.5q-186 -338 -491 -338q-129 0 -243 77t-114 200q0 66 43 113.5t102.5 47.5t104.5 -37.5t45 -98.5t-28 -70q-23 43 -56 43q-49 0 -49 -60.5t69 -106.5t136 -46q154 0 289 102t135 250q0 76 -53 104q-51 20 -101 41q-53 35 -55 129 q-295 -186 -432 -186t-178 68q-31 49 -31 180v350q0 117 -47 164q-31 29 -121 35t-90 31.5z" />
<glyph unicode="z" horiz-adv-x="1071" d="M82 580.5q0 15.5 69.5 167t86 178t26.5 26.5t22.5 -22.5t19.5 -31.5t122 -9h360l132 8q37 0 36 -16q0 -16 -33.5 -54t-463.5 -542q76 20 162 20q158 0 263 -113.5t105 -285.5q0 -201 -158 -309q-139 -96 -348 -97q-147 0 -260 68q-135 80 -135 217q0 63 41 108.5 t102 45.5t104.5 -45.5t43.5 -92.5t-23 -75q-8 63 -59 63q-66 0 -66 -80t80 -126t172 -46q150 1 225 103t75 254q-1 155 -77 250q-76 94 -210 94q-61 0 -174 -40t-183 -89q-6 -4 -20 -5q-18 0 -21 27q10 23 31 47l500 592q27 33 43 59q0 23 -47 23q-180 0 -296 -58t-196 -202 q-16 -27 -33.5 -27t-17.5 15.5z" />
<glyph unicode="{" horiz-adv-x="759" d="M123 522v168q115 27 115 170v340q0 154 69.5 220.5t231.5 66.5q47 0 98 -2v-174h-19q-113 0 -146.5 -31t-33.5 -131v-303q0 -100 -26.5 -152.5t-98.5 -95.5q70 -41 97.5 -95t27.5 -153v-297q0 -102 33 -134t139 -32h27v-174q-41 0 -51 -2h-51q-160 0 -228.5 69.5 t-68.5 229.5v328q0 156 -115 184z" />
<glyph unicode="|" horiz-adv-x="1019" d="M410 -512v2048h200v-2048h-200z" />
<glyph unicode="}" horiz-adv-x="761" d="M123 -113h22q109 0 144 32t35 130v303q0 102 25.5 153.5t96.5 94.5q-70 41 -96 96.5t-26 153.5l-2 330q-4 84 -42.5 107t-132.5 24h-24v174l53 2h49q160 0 229.5 -68.5t69.5 -228.5v-330q0 -160 115 -184v-166q-115 -29 -115 -170v-342q0 -152 -70.5 -219.5t-232.5 -67.5 q-47 0 -98 2v174z" />
<glyph unicode="~" horiz-adv-x="1234" d="M123 1247q63 129 108 178q74 78 185 78q74 0 208 -59.5t203 -59.5q94 0 168 123l117 -67q-123 -250 -311 -250q-70 0 -202 59.5t-200 59.5q-88 0 -163 -138z" />
<glyph unicode="&#xa1;" horiz-adv-x="630" d="M170 158q0 94 45 303q69 322 74 485l2 72l2 31q2 29 22 28q20 0 21 -26v-33q0 -214 74 -549l8 -37q41 -194 41 -272q0 -195 -144.5 -195t-144.5 193zM186 1275q0 54 37 93t90 39t91 -40t38 -94t-36.5 -92t-90 -38t-91.5 39t-38 93z" />
<glyph unicode="&#xa2;" horiz-adv-x="1148" d="M31 -30q0 9 18 28l101 96q-119 121 -119 323.5t158.5 352.5t380 150t325.5 -107l98 96q12 12 25 13q29 0 29 -29q0 -14 -15 -29l-102 -100q12 -27 12 -65.5t-38 -71.5t-78 -33t-62 10l-420 -405q111 -154 285 -154q66 0 141.5 38t75.5 93q0 82 -68 82q-49 0 -65 -70 q-23 37 -23 68q0 68 45 114t112 46t109.5 -46t42.5 -118q0 -135 -140 -216t-334.5 -81t-329.5 100l-105 -102q-14 -14 -27 -14q-12 0 -22 11t-10 20zM252 515.5q0 -148.5 59 -263.5l406 391q-20 27 -23 66l-4 61q-2 45 -41 74.5t-96 29.5q-129 0 -215 -105t-86 -253.5z" />
<glyph unicode="&#xa3;" horiz-adv-x="1273" d="M61 164.5q0 89.5 59.5 135.5t147.5 46q150 0 396 -127q16 47 16 92q0 119 -109 224q-47 45 -209 153h-206q-27 0 -27 11t9 33t15.5 23t147.5 1q-96 117 -96 245q0 178 141 292t324 114l194 -23q43 0 68.5 38t30.5 38q14 0 20 -16q170 -416 170 -430t-16 -15q-14 0 -41 50 q-53 98 -181.5 204.5t-255.5 106.5t-199.5 -65.5t-72.5 -180.5q0 -139 166 -287q27 -23 78 -71h272q29 0 29 -15q0 -51 -35 -53h-211q94 -96 94 -234.5t-84 -248.5q166 -55 239 -55t137.5 41.5t64.5 106t-37 106.5t-92 42q-14 0 -34 -10t-30 -10q-37 0 -37 35q0 41 80 41 t142.5 -69t62.5 -163q0 -137 -97.5 -224t-225.5 -87t-285 111q-127 -111 -283 -111q-94 0 -167 58t-73 147.5zM104 155.5q0 -63.5 63.5 -110.5t156 -47t233.5 94q-18 14 -96 77.5t-114 87.5t-97 24t-103.5 -31t-42.5 -94.5z" />
<glyph unicode="&#xa4;" horiz-adv-x="1800" d="M41 682l25 39q12 18 28 18h193q2 68 14 133h-254q-16 0 -6 17l25 41q12 16 28 16h223q66 240 255.5 383.5t445.5 143.5q111 0 206 -29t91 -29q45 0 65 31q12 33 27 65q4 10 21 10.5t26 -20.5l176 -457q2 -10 2 -18q0 -25 -18 -25q-23 0 -45 43q-53 104 -172 213 q-180 164 -371 164q-293 0 -393 -266q-31 -82 -53 -209h481q16 0 6 -16l-25 -41q-12 -16 -28 -17h-445q-8 -70 -10 -133h502q16 0 6 -18l-25 -39q-12 -16 -28 -16h-457q4 -215 59 -375q100 -283 410 -283q231 0 365 77t221 284q10 20 33 20q33 0 32 -31q0 -6 -2 -14 q-72 -195 -220.5 -292t-441 -97t-500.5 200.5t-224 510.5h-242q-16 0 -6 16z" />
<glyph unicode="&#xa5;" horiz-adv-x="1765" d="M61 1401q0 29 29 29l375 -7l375 7q29 0 28 -29q0 -29 -28 -29q-35 8 -70 8q-125 0 -125 -88q0 -57 60 -151l280 -439l166 261q135 211 135 313t-102 102q-16 0 -29 -4q-29 0 -29 28t29 28l258 -5l262 5q29 0 29 -28t-29 -28q-66 -2 -137 -43q-182 -103 -348 -385h199 q18 0 8 -16l-27 -41q-10 -16 -27 -17h-198l-84 -133h328q18 0 8 -18l-27 -39q-10 -16 -27 -16h-327l-6 -11v-368q0 -236 209 -236q27 0 51 4q27 0 26 -28q0 -29 -26 -29l-377 6l-375 -6q-27 0 -26 29q0 29 26 28q25 -4 51 -4q209 0 209 236v331l-30 48h-373q-16 0 -6 16 l26 39q10 18 27 18h278l-90 133h-235q-16 0 -6 17l26 41q10 16 27 16h139l-127 193q-164 248 -344 233q-29 0 -29 29z" />
<glyph unicode="&#xa7;" horiz-adv-x="1230" d="M112.5 548q0.5 171 155.5 314q-78 84 -78 203q0 152 126 247t307.5 95t296 -53.5t114.5 -128.5q0 -35 -26.5 -60.5t-63.5 -25.5q-80 0 -102 88q-31 123 -203 123q-119 0 -196.5 -59.5t-77.5 -140.5t40.5 -126t149.5 -89t223.5 -85t175 -75t111.5 -98t51 -179 q0 -172 -151 -310q100 -98 100 -239q0 -186 -136 -304t-336.5 -118t-337 81t-136.5 193q0 51 29.5 83t74.5 32q86 0 86 -84l-18 -104q0 -53 88 -97.5t211.5 -44.5t218 80t94.5 205t-129 188q-61 31 -233.5 97.5t-274.5 128.5q-154 92 -153.5 263zM270 644q0 -79 53 -132 t254 -132t308 -130q69 84 69 162q0 125 -145 188q-92 41 -236.5 93.5t-222.5 103.5q-80 -74 -80 -153z" />
<glyph unicode="&#xa8;" d="M182 1156q0 52 37 88t90 36t90 -36t37 -88t-37 -89t-89 -37t-90 37t-38 89zM588 1157q0 51 37 87t90 36t90 -37t37 -88t-37 -88t-89 -37t-90 38t-38 89z" />
<glyph unicode="&#xa9;" horiz-adv-x="1415" d="M102 709q0 250 177.5 427t428.5 177t428 -177t177 -427t-177.5 -427.5t-428 -177.5t-428 177.5t-177.5 427.5zM150 709q0 -231 163.5 -394t394 -163t393.5 163t163 394t-163 394t-393 163t-394 -163t-164 -394zM336 709q0 164 103.5 271t260.5 107q33 0 87.5 -15 t62.5 -15q33 0 45 45q0 10 9 10t14 -12l88 -228q8 -20 -5.5 -20t-25.5 20q-27 53 -86 107q-88 82 -184 82q-145 0 -197 -133q-37 -98 -37 -236q0 -336 234 -338q117 0 183 39t109 142q6 14 23 10q14 -7 8 -23q-70 -195 -323 -194q-160 0 -264.5 108.5t-104.5 272.5z" />
<glyph unicode="&#xaa;" horiz-adv-x="819" d="M72 618q0 31 43 31h620q39 0 39 -35t-43 -34h-618q-41 0 -41 38z" />
<glyph unicode="&#xab;" horiz-adv-x="800" d="M82 443.5q0 10.5 16 29.5l209 236q8 10 26.5 10t18.5 -21q0 -2 -8 -26l-102 -230l108 -264q2 -4 2 -16q0 -23 -18 -23q-12 0 -23 13l-209 256q-20 25 -20 35.5zM428.5 443.5q-0.5 10.5 15.5 29.5l209 236q8 10 26.5 10t18.5 -21q0 -2 -8 -26l-102 -230l108 -264 q2 -4 2 -16q0 -23 -18 -23q-12 0 -23 13l-208 256q-20 25 -20.5 35.5z" />
<glyph unicode="&#xac;" horiz-adv-x="2213" d="M20 28q0 28 29 27l51 -4q207 0 209 236v854q0 238 -209 237l-51 -4q-29 0 -29 28t29 28l375 -7l375 7q29 0 28 -29q0 -27 -28 -27l-49 4q-209 0 -209 -237l-2 -520l467 446q150 143 149.5 224t-137.5 81q-33 0 -33 29t29 29l258 -7l262 7q29 0 29 -28t-43 -28 q-76 0 -195 -94q-37 -33 -108 -100l-211 -195q-12 -82 -13 -162q0 -178 56 -334q76 -213 241.5 -350t378.5 -137q106 0 205 55q117 63 117 162q0 98 -82 98q-59 0 -78 -81q-27 43 -27 79q0 82 53.5 137.5t134.5 55.5t131 -57.5t50 -139.5q0 -174 -178 -276 q-150 -86 -336 -86q-920 0 -897 811l-223 -203v-270q0 -236 209 -236l51 4q29 0 28 -28q0 -27 -28 -27l-375 4l-375 -4q-29 0 -29 28z" />
<glyph unicode="&#xad;" horiz-adv-x="698" d="M123 414v8l6 24q10 45 37 46h379q30 -1 30 -19l-6 -37q-6 -29 -13 -35t-32 -6h-374q-27 0 -27 19z" />
<glyph unicode="&#xae;" horiz-adv-x="1415" d="M102 709q0 250 177.5 427t428.5 177t428 -177t177 -427t-177.5 -427.5t-428 -177.5t-428 177.5t-177.5 427.5zM150 709q0 -164 88 -301q2 12 13 11t25 -1q104 0 105 117v129q2 82 -14.5 100t-33 18t-16.5 13.5t15.5 13.5t38.5 6q-82 12 -82 100.5t85 150.5t214 62 t217 -60t88 -137t-45 -136q-59 -78 -168 -78h-18q29 -137 118.5 -228.5t202.5 -91.5q66 0 114 31t48 77t-41 46q-31 0 -39 -41q-14 23 -14 51.5t26.5 56t66.5 27.5t65.5 -27.5t25.5 -53.5v-36q29 87 29 181q0 231 -163 394t-393 163t-394 -163t-164 -394zM248 391 q168 -240 459 -239q164 0 298.5 87t204.5 228q-68 -94 -242.5 -97t-309 125t-119.5 291q-31 43 -31 87.5t22.5 68t53.5 23.5q51 0 51 -52.5t-39 -52.5q-31 0 -31 25q0 18 17.5 18t17.5 -18q0 -4 -2 -6q16 8 16 26q0 27 -30 27q-41 0 -41 -51t31.5 -94t82.5 -44 q117 6 117 162q0 90 -60.5 143.5t-142.5 53.5t-139 -44t-57 -93t41 -50q27 0 41 48q16 -27 16 -57t-16 -52q18 12 28 12t11 -20l2 -311q0 -117 104 -117q12 0 25.5 1t13.5 -13t-14 -15l-189 4l-186 -4h-4z" />
<glyph unicode="&#xaf;" d="M170 1155q0 37 45 37h598q41 0 41 -37t-47 -37h-592q-45 0 -45 37z" />
<glyph unicode="&#xb0;" d="M211 1067q0 123 88 209t213 86t213 -86t88 -209t-88 -210t-213 -87t-213 87t-88 210zM334 1067q0 -72 52 -123t126 -51t125 51t51 123t-51 123t-125 51t-126 -51t-52 -123z" />
<glyph unicode="&#xb1;" horiz-adv-x="1589" d="M82 862q0 92 57 197q90 166 257 253t366 87q322 0 533.5 -173.5t211.5 -490.5t-181 -495.5t-501 -178.5q-80 0 -168 54q-135 84 -219 233.5t-84 308.5q0 96 59.5 164t146.5 68t147 -51q23 80 89 131t161.5 51t165 -77t69.5 -195.5t-96 -219.5q-88 -74 -176 -147 q-96 -84 -97 -180q0 -61 86 -62q215 0 345.5 162t129.5 381q0 295 -165.5 464t-458.5 169q-164 0 -312.5 -72t-234.5 -203q-61 -94 -61 -182q0 -41 -35 -41t-35 45z" />
<glyph unicode="&#xb4;" d="M416 1010.5q0 11.5 14 23.5l246 219q109 99 178 28q29 -30 29 -75q0 -76 -125 -112l-314 -93q-4 -2 -16 -2t-12 11.5z" />
<glyph unicode="&#xb6;" horiz-adv-x="1298" d="M61 1079q0 201 181 293q121 61 254 56.5t174 -5.5l434 7q29 0 29 -28t-29 -28q-23 4 -49 4q-209 0 -209 -237v-1399q0 -238 209 -238q27 0 49 7q29 0 29 -29t-29 -29l-436 6l-435 -6q-29 0 -28 29q0 29 28 29q23 -6 50 -7q209 0 209 238v1003q-430 0 -431 334zM561 -332 q0 -88 12 -112q18 -47 95.5 -47.5t97.5 40.5q10 23 10 119v1546q0 88 -8 111q-18 49 -95 49t-100 -43q-12 -25 -12 -114v-1549z" />
<glyph unicode="&#xb7;" horiz-adv-x="548" d="M123 711.5q0 62.5 44 106.5t107 44t107.5 -44t44.5 -107t-44 -107.5t-108 -44.5q-63 0 -107 45t-44 107.5z" />
<glyph unicode="&#xb8;" d="M315 -327q0 19 19 20q8 0 12 -2l29 -15q45 -23 106 -22q115 0 115 96q0 88 -96 88q-35 0 -63.5 -13t-30.5 -13q-16 0 -16.5 14t11.5 33l97 141h69l-86 -119q41 8 66 8q78 0 127 -39t49 -101t-58.5 -103t-144.5 -41t-170 37q-35 12 -35 31z" />
<glyph unicode="&#xba;" horiz-adv-x="819" d="M74 1083q0 139 96 231.5t240.5 92.5t239.5 -93.5t95 -232.5t-94 -230t-239 -91t-241.5 92t-96.5 231zM82 618q0 31 41 31h575q39 0 39 -35t-43 -34h-571q-41 0 -41 38zM238 1077q0 -279 172 -278q172 0 172 284.5t-172 284.5t-172 -281v-10z" />
<glyph unicode="&#xbb;" horiz-adv-x="800" d="M102 162q0 12 2 16l109 264l-102 230q-8 25 -9 26q0 20 21 21q16 0 24 -10l209 -236q17 -19 17 -30t-21 -35l-209 -256q-10 -12 -22 -13q-18 0 -19 23zM449 162q0 12 2 16l108 264l-102 230q-8 25 -8 26q0 20 20 21q16 0 25 -10l208 -236q17 -19 17 -30t-21 -35 l-209 -256q-10 -12 -22 -13q-18 0 -18 23z" />
<glyph unicode="&#xbf;" horiz-adv-x="1265" d="M92 323.5q0 151.5 111 266.5q88 92 264 141q115 33 149.5 81t34.5 173l-4 102q0 51 31 52q31 0 29 -82l-2 -111q-2 -84 -21.5 -133t-109 -121.5t-122 -108.5t-63.5 -103t-31 -152q0 -143 83 -233.5t217 -90.5t245 92t111 207q0 45 -21.5 75t-52.5 30q-45 0 -45 -50l6 -34 q-2 -4 -8 -5q-31 0 -66 35t-34 95q0 59 43 102t110.5 43t120.5 -61.5t53 -151.5q0 -188 -144.5 -307t-369.5 -119t-369.5 108.5t-144.5 260zM543 1335q0 57 37.5 97.5t94 40.5t95.5 -41.5t39 -98.5t-38 -96t-94 -39t-95 40t-39 97z" />
<glyph unicode="&#xc0;" horiz-adv-x="1560" d="M20 25q0 27 50 26q123 0 188 129q57 111 57 279v235q-141 74 -143 74q-37 0 -37 -34t19 -34q6 0 18 9.5t21 9.5q51 0 51 -51t-64 -52q-37 0 -64.5 32t-27.5 67t27.5 61.5t60.5 26.5q10 0 139 -68v113q0 246 107.5 390t341.5 224q84 27 201.5 27t178.5 -26t105.5 -93 t44.5 -76q0 -18 -18 -18l-21 4q-18 0 -49 -25q14 6 25 7q23 0 22 -43v-932q0 -236 209 -236l49 4q29 1 29 -27t-29 -28l-372 4l-355 -4q-29 0 -28 27q0 29 28 28l45 -4q86 0 139.5 56.5t53.5 142.5v88l-653 330v-209q0 -408 221 -408q4 0 10 1t10 1q29 0 29 -27.5t-29 -27.5 l-270 6l-291 -6q-29 0 -29 27zM369 707l653 -330v102l-653 320v-92zM369 834l653 -316v96q0 408 -30 443t-64.5 35t-34.5 25.5t30 29.5t63.5 9t105.5 38q-16 2 -25.5 34t-22.5 44q-23 25 -77 24q-254 0 -412 -100q-186 -121 -186 -362zM563 1778q0 45 30 79.5t72 34.5 t113 -57l275 -219q16 -15 11 -31t-26 -8l-340 86q-135 35 -135 115z" />
<glyph unicode="&#xc1;" horiz-adv-x="1560" d="M20 25q0 27 50 26q123 0 188 129q57 111 57 279v235q-141 74 -143 74q-37 0 -37 -34t19 -34q6 0 18 9.5t21 9.5q51 0 51 -51t-64 -52q-37 0 -64.5 32t-27.5 67t27.5 61.5t60.5 26.5q10 0 139 -68v113q0 246 107.5 390t341.5 224q84 27 201.5 27t178.5 -26t105.5 -93 t44.5 -76q0 -18 -18 -18l-21 4q-18 0 -49 -25q14 6 25 7q23 0 22 -43v-932q0 -236 209 -236l49 4q29 1 29 -27t-29 -28l-372 4l-355 -4q-29 0 -28 27q0 29 28 28l45 -4q86 0 139.5 56.5t53.5 142.5v88l-653 330v-209q0 -408 221 -408q4 0 10 1t10 1q29 0 29 -27.5t-29 -27.5 l-270 6l-291 -6q-29 0 -29 27zM369 707l653 -330v102l-653 320v-92zM369 834l653 -316v96q0 408 -30 443t-64.5 35t-34.5 25.5t30 29.5t63.5 9t105.5 38q-16 2 -25.5 34t-22.5 44q-23 25 -77 24q-254 0 -412 -100q-186 -121 -186 -362zM631 1594q0 11 14 24l246 219 q66 57 108 57q43 0 71 -29.5t28 -74.5q0 -76 -125 -113l-314 -92q-4 -2 -16 -2t-12 11z" />
<glyph unicode="&#xc2;" horiz-adv-x="1560" d="M20 25q0 27 50 26q123 0 188 129q57 111 57 279v235q-141 74 -143 74q-37 0 -37 -34t19 -34q6 0 18 9.5t21 9.5q51 0 51 -51t-64 -52q-37 0 -64.5 32t-27.5 67t27.5 61.5t60.5 26.5q10 0 139 -68v113q0 246 107.5 390t341.5 224q84 27 201.5 27t178.5 -26t105.5 -93 t44.5 -76q0 -18 -18 -18l-21 4q-18 0 -49 -25q14 6 25 7q23 0 22 -43v-932q0 -236 209 -236l49 4q29 1 29 -27t-29 -28l-372 4l-355 -4q-29 0 -28 27q0 29 28 28l45 -4q86 0 139.5 56.5t53.5 142.5v88l-653 330v-209q0 -408 221 -408q4 0 10 1t10 1q29 0 29 -27.5t-29 -27.5 l-270 6l-291 -6q-29 0 -29 27zM369 707l653 -330v102l-653 320v-92zM369 834l653 -316v96q0 408 -30 443t-64.5 35t-34.5 25.5t30 29.5t63.5 9t105.5 38q-16 2 -25.5 34t-22.5 44q-23 25 -77 24q-254 0 -412 -100q-186 -121 -186 -362zM465 1599.5q0 12.5 16 30.5l260 289 q31 33 50.5 33t48.5 -33l260 -289q16 -18 16 -30t-13 -12.5t-38 16.5l-274 190l-275 -190q-23 -16 -35 -17q-16 0 -16 12.5z" />
<glyph unicode="&#xc3;" horiz-adv-x="1560" d="M20 25q0 27 50 26q123 0 188 129q57 111 57 279v235q-141 74 -143 74q-37 0 -37 -34t19 -34q6 0 18 9.5t21 9.5q51 0 51 -51t-64 -52q-37 0 -64.5 32t-27.5 67t27.5 61.5t60.5 26.5q10 0 139 -68v113q0 246 107.5 390t341.5 224q84 27 201.5 27t178.5 -26t105.5 -93 t44.5 -76q0 -18 -18 -18l-21 4q-18 0 -49 -25q14 6 25 7q23 0 22 -43v-932q0 -236 209 -236l49 4q29 1 29 -27t-29 -28l-372 4l-355 -4q-29 0 -28 27q0 29 28 28l45 -4q86 0 139.5 56.5t53.5 142.5v88l-653 330v-209q0 -408 221 -408q4 0 10 1t10 1q29 0 29 -27.5t-29 -27.5 l-270 6l-291 -6q-29 0 -29 27zM369 707l653 -330v102l-653 320v-92zM369 834l653 -316v96q0 408 -30 443t-64.5 35t-34.5 25.5t30 29.5t63.5 9t105.5 38q-16 2 -25.5 34t-22.5 44q-23 25 -77 24q-254 0 -412 -100q-186 -121 -186 -362zM508 1655.5q0 13.5 31 62.5 q80 127 178 127q49 0 145 -43t137 -43t87.5 41t59.5 41t13 -16t-24 -58q-80 -137 -195 -137q-49 0 -139 42t-136.5 42t-90.5 -40t-48 -40q-18 8 -18 21.5z" />
<glyph unicode="&#xc4;" horiz-adv-x="2060" d="M20 25q0 27 50 26q123 0 188 129q57 111 57 279v235q-141 74 -143 74q-37 0 -37 -34t19 -34q6 0 18 9.5t21 9.5q51 0 51 -51t-64 -52q-37 0 -64.5 32t-27.5 67t27.5 61.5t60.5 26.5q10 0 139 -68v113q0 246 107.5 390t341.5 224q84 27 201.5 27t178.5 -26t105.5 -93 t44.5 -76q0 -18 -18 -18l-21 4q-18 0 -49 -25q14 6 25 7q23 0 22 -43v-932q0 -236 209 -236l49 4q29 1 29 -27t-29 -28l-372 4l-355 -4q-29 0 -28 27q0 29 28 28l45 -4q86 0 139.5 56.5t53.5 142.5v88l-653 330v-209q0 -408 221 -408q4 0 10 1t10 1q29 0 29 -27.5t-29 -27.5 l-270 6l-291 -6q-29 0 -29 27zM369 707l653 -330v102l-653 320v-92zM369 834l653 -316v96q0 408 -30 443t-64.5 35t-34.5 25.5t30 29.5t63.5 9t105.5 38q-16 2 -25.5 34t-22.5 44q-23 25 -77 24q-254 0 -412 -100q-186 -121 -186 -362zM504 1711q0 52 37 88t90 36t90 -36 t37 -88t-37 -89t-89 -37t-90 37t-38 89zM909 1712q0 51 37 87t90 36t90 -37t37 -88t-36.5 -88t-89 -37t-90.5 38t-38 89z" />
<glyph unicode="&#xc5;" horiz-adv-x="2060" d="M20 25q0 27 50 26q123 0 188 129q57 111 57 279v235q-141 74 -143 74q-37 0 -37 -34t19 -34q6 0 18 9.5t21 9.5q51 0 51 -51t-64 -52q-37 0 -64.5 32t-27.5 67t27.5 61.5t60.5 26.5q10 0 139 -68v113q0 246 107.5 390t341.5 224q84 27 201.5 27t178.5 -26t105.5 -93 t44.5 -76q0 -18 -18 -18l-21 4q-18 0 -49 -25q14 6 25 7q23 0 22 -43v-932q0 -236 209 -236l49 4q29 1 29 -27t-29 -28l-372 4l-355 -4q-29 0 -28 27q0 29 28 28l45 -4q86 0 139.5 56.5t53.5 142.5v88l-653 330v-209q0 -408 221 -408q4 0 10 1t10 1q29 0 29 -27.5t-29 -27.5 l-270 6l-291 -6q-29 0 -29 27zM369 707l653 -330v102l-653 320v-92zM369 834l653 -316v96q0 408 -30 443t-64.5 35t-34.5 25.5t30 29.5t63.5 9t105.5 38q-16 2 -25.5 34t-22.5 44q-23 25 -77 24q-254 0 -412 -100q-186 -121 -186 -362zM664 1769q0 78 55 132.5t133 54.5 t133 -54.5t55 -132.5t-55 -133t-133 -55t-133 55.5t-55 132.5zM741 1769q0 -45 33 -77.5t79 -32.5t78 32.5t32 77.5t-32 77t-78 32t-79 -31.5t-33 -77.5z" />
<glyph unicode="&#xc6;" horiz-adv-x="2205" d="M20 25q0 27 56 26q129 0 192 148q47 111 47 260v340q0 473 437 622q84 29 223 29q23 0 165 -12q177 -15 418.5 -13t321.5 2q41 0 46 -33.5t5 -207.5q0 -72 2 -60q-4 -39 -31.5 -39t-27.5 27l6 53q0 137 -160 189q-94 29 -276 28q-240 0 -240 -241v-350h23q178 0 260 26 q143 47 143 187v12q-2 6 -2 10q0 29 29 29t29 -29l-7 -260l7 -260q0 -29 -29 -29q-20 0 -25 17q-2 2 -2 34q0 139 -153 189q-86 27 -271 26l-2 -458q0 -115 75 -176t185.5 -61.5t153.5 20.5q88 39 168 188q61 125 125.5 250t136.5 125q47 0 82 -28t35 -70t-24.5 -71.5 t-67.5 -29.5t-43 35q0 6 31.5 15.5t31.5 43.5q0 45 -47 45q-92 0 -92 -348q0 -98 18 -148.5t18.5 -64.5t-18.5 -14l-885 6l-374 -6q-29 0 -29 29t29 28l51 -4q209 0 209 236v458h-604v-286q0 -408 221 -408h8q8 2 10 2q31 0 31 -27.5t-29 -27.5l-270 6l-291 -6q-29 0 -29 27 zM371 793h602v454q0 35 -17 39q-4 2 -49 2q-512 0 -536 -495z" />
<glyph unicode="&#xc7;" horiz-adv-x="1574" d="M31 710q0 335 206.5 549t524.5 214q111 0 206 -29t91 -29q45 0 65 31q12 33 27 65q4 10 21 10.5t26 -20.5l176 -457q2 -10 2 -18q0 -25 -18 -25q-23 0 -45 43q-53 104 -172 213q-180 164 -371 164q-293 0 -393 -266q-76 -197 -76 -471q0 -676 469 -676q266 0 399 98 q104 76 105 187q0 37 -22.5 63.5t-53.5 26.5q-70 0 -70 -82q-31 8 -52 49t-21 91t50 92t118.5 42t119 -59t50.5 -151q0 -152 -127 -263q-156 -135 -453 -145l-55 -76q41 8 65 8q78 0 127 -38.5t49 -101t-58 -103.5t-144 -41t-170 37q-35 12 -35 31t18 20q8 0 13 -2l28 -15 q45 -23 107 -22q115 0 114 96q0 88 -96 88q-35 0 -63.5 -13t-30.5 -13q-16 0 -16 18q0 10 12 29l65 98q-285 8 -487 205q-225 213 -225 548z" />
<glyph unicode="&#xc8;" horiz-adv-x="1542" d="M20 26q0 28 29 27l47 -4q213 0 213 238v856q0 236 -209 235l-51 -6q-29 0 -29 29t29 29l596 -7l572 4q43 0 47 -40.5t4 -272.5q0 -27 -29 -27t-29 27l7 53q0 137 -160 189q-94 29 -277 28q-242 0 -241 -241v-350h24q197 0 287 36q117 49 117 177v12q-2 6 -2 10 q0 29 28 29q29 0 29 -29l-6 -260l6 -260q0 -29 -29 -29q-23 0 -26 19v32q0 129 -127 179q-94 37 -299 36l-2 -458q0 -109 72.5 -173.5t185 -64.5t157.5 21q88 39 168 186q59 127 121 252q70 125 139 125q49 0 84 -28t35 -70t-24.5 -71.5t-68.5 -29.5t-44 35q0 6 33 14.5 t33 44.5q0 45 -50 45q-90 0 -90 -348q0 -100 18.5 -149.5t18.5 -59.5q0 -18 -18 -18l-885 6l-375 -6q-29 0 -29 28zM502 1778q0 45 29.5 79.5t71.5 34.5t114 -57l274 -219q17 -15 12 -31t-28 -8l-340 86q-133 35 -133 115z" />
<glyph unicode="&#xc9;" horiz-adv-x="1542" d="M20 26q0 28 29 27l47 -4q213 0 213 238v856q0 236 -209 235l-51 -6q-29 0 -29 29t29 29l596 -7l572 4q43 0 47 -40.5t4 -272.5q0 -27 -29 -27t-29 27l7 53q0 137 -160 189q-94 29 -277 28q-242 0 -241 -241v-350h24q197 0 287 36q117 49 117 177v12q-2 6 -2 10 q0 29 28 29q29 0 29 -29l-6 -260l6 -260q0 -29 -29 -29q-23 0 -26 19v32q0 129 -127 179q-94 37 -299 36l-2 -458q0 -109 72.5 -173.5t185 -64.5t157.5 21q88 39 168 186q59 127 121 252q70 125 139 125q49 0 84 -28t35 -70t-24.5 -71.5t-68.5 -29.5t-44 35q0 6 33 14.5 t33 44.5q0 45 -50 45q-90 0 -90 -348q0 -100 18.5 -149.5t18.5 -59.5q0 -18 -18 -18l-885 6l-375 -6q-29 0 -29 28zM471 1679q-6 14 12 29l275 219q70 57 112.5 57.5t72.5 -34.5t30 -80q0 -80 -135 -115l-340 -86q-23 -8 -27 10z" />
<glyph unicode="&#xca;" horiz-adv-x="1542" d="M20 26q0 28 29 27l47 -4q213 0 213 238v856q0 236 -209 235l-51 -6q-29 0 -29 29t29 29l596 -7l572 4q43 0 47 -40.5t4 -272.5q0 -27 -29 -27t-29 27l7 53q0 137 -160 189q-94 29 -277 28q-242 0 -241 -241v-350h24q197 0 287 36q117 49 117 177v12q-2 6 -2 10 q0 29 28 29q29 0 29 -29l-6 -260l6 -260q0 -29 -29 -29q-23 0 -26 19v32q0 129 -127 179q-94 37 -299 36l-2 -458q0 -109 72.5 -173.5t185 -64.5t157.5 21q88 39 168 186q59 127 121 252q70 125 139 125q49 0 84 -28t35 -70t-24.5 -71.5t-68.5 -29.5t-44 35q0 6 33 14.5 t33 44.5q0 45 -50 45q-90 0 -90 -348q0 -100 18.5 -149.5t18.5 -59.5q0 -18 -18 -18l-885 6l-375 -6q-29 0 -29 28zM432 1602q0 10 17 28l260 289q29 33 49 33t49 -33l260 -289q16 -18 16 -30t-13 -12.5t-38 16.5l-274 190l-275 -190q-25 -16 -34 -17q-16 0 -17 15z" />
<glyph unicode="&#xcb;" horiz-adv-x="1542" d="M20 26q0 28 29 27l47 -4q213 0 213 238v856q0 236 -209 235l-51 -6q-29 0 -29 29t29 29l596 -7l572 4q43 0 47 -40.5t4 -272.5q0 -27 -29 -27t-29 27l7 53q0 137 -160 189q-94 29 -277 28q-242 0 -241 -241v-350h24q197 0 287 36q117 49 117 177v12q-2 6 -2 10 q0 29 28 29q29 0 29 -29l-6 -260l6 -260q0 -29 -29 -29q-23 0 -26 19v32q0 129 -127 179q-94 37 -299 36l-2 -458q0 -109 72.5 -173.5t185 -64.5t157.5 21q88 39 168 186q59 127 121 252q70 125 139 125q49 0 84 -28t35 -70t-24.5 -71.5t-68.5 -29.5t-44 35q0 6 33 14.5 t33 44.5q0 45 -50 45q-90 0 -90 -348q0 -100 18.5 -149.5t18.5 -59.5q0 -18 -18 -18l-885 6l-375 -6q-29 0 -29 28zM436 1711q0 52 37 88t90 36t90 -36t37 -88t-37 -89t-89 -37t-90 37t-38 89zM842 1712q0 51 36.5 87t90.5 36q53 0 90 -37t37 -88t-37 -88t-89 -37t-90 38 t-38 89z" />
<glyph unicode="&#xcc;" horiz-adv-x="929" d="M61 28q0 28 26 25.5t54 -2.5q207 0 209 236v854q0 238 -209 237q-29 0 -51 -4q-29 0 -29 28t29 28l375 -7l375 7q28 0 28 -28t-28 -28q-23 4 -49 4q-209 0 -209 -237l-2 -854q0 -236 208 -236q29 0 52 4q29 0 28 -28q0 -27 -28 -27l-375 4l-375 -4q-29 0 -29 28z M195 1778q0 45 29.5 79.5t71.5 34.5t114 -57l274 -219q16 -15 11 -31t-27 -8l-340 86q-133 35 -133 115z" />
<glyph unicode="&#xcd;" horiz-adv-x="929" d="M61 28q0 28 26 25.5t54 -2.5q207 0 209 236v854q0 238 -209 237q-29 0 -51 -4q-29 0 -29 28t29 28l375 -7l375 7q28 0 28 -28t-28 -28q-23 4 -49 4q-209 0 -209 -237l-2 -854q0 -236 208 -236q29 0 52 4q29 0 28 -28q0 -27 -28 -27l-375 4l-375 -4q-29 0 -29 28z M262 1594q0 11 14 24l246 219q63 57 106.5 57t72 -29.5t28.5 -74.5q0 -76 -125 -113l-313 -92q-4 -2 -16.5 -2t-12.5 11z" />
<glyph unicode="&#xce;" horiz-adv-x="929" d="M61 28q0 28 26 25.5t54 -2.5q207 0 209 236v854q0 238 -209 237q-29 0 -51 -4q-29 0 -29 28t29 28l375 -7l375 7q28 0 28 -28t-28 -28q-23 4 -49 4q-209 0 -209 -237l-2 -854q0 -236 208 -236q29 0 52 4q29 0 28 -28q0 -27 -28 -27l-375 4l-375 -4q-29 0 -29 28z M156 1599.5q0 12.5 16 30.5l260 289q29 33 49 33t49 -33l261 -289q16 -18 16 -30t-13 -12.5t-38 16.5l-275 190l-274 -190q-25 -16 -35 -17q-16 0 -16 12.5z" />
<glyph unicode="&#xcf;" horiz-adv-x="929" d="M61 28q0 28 26 25.5t54 -2.5q207 0 209 236v854q0 238 -209 237q-29 0 -51 -4q-29 0 -29 28t29 28l375 -7l375 7q28 0 28 -28t-28 -28q-23 4 -49 4q-209 0 -209 -237l-2 -854q0 -236 208 -236q29 0 52 4q29 0 28 -28q0 -27 -28 -27l-375 4l-375 -4q-29 0 -29 28z M129 1711q0 52 37 88t90 36t90 -36t37 -88t-37 -89t-89 -37t-90 37t-38 89zM535 1712q0 51 36.5 87t90.5 36q53 0 89.5 -37t36.5 -88t-36.5 -88t-88.5 -37t-90 38t-38 89z" />
<glyph unicode="&#xd1;" horiz-adv-x="1538" d="M20 25q0 27 50 26q125 0 180 162q37 109 37 266v574q0 324 -183 323l-55 -4q-29 0 -29 29t29 29l205 -5l129 5q18 0 32.5 -19.5t30.5 -40.5l758 -797v377q0 156 -37 264q-53 162 -178 162h-10q-6 -2 -10 -2q-29 0 -29 28t29 28h520q29 0 29 -27t-50 -27q-125 0 -180 -162 q-37 -109 -37 -264v-424l105 -110q119 -127 119 -271q0 -188 -175 -188q-96 0 -96 104v197l-870 889v-668q0 -158 37 -266q53 -162 178 -162q4 0 10 1t10 1q29 0 29 -27.5t-29 -27.5l-260 6l-260 -6q-29 0 -29 27zM473.5 1655.5q-0.5 13.5 30.5 62.5q80 127 178 127 q49 0 145.5 -43t137.5 -43t87 41t59 41t13 -16t-24 -58q-80 -137 -195 -137q-49 0 -139 42t-136 42t-90 -40t-48 -40q-18 8 -18.5 21.5zM1251 66q0 -25 16.5 -49.5t39.5 -24.5t40 25.5t17 58.5t-38 71t-75 70v-151z" />
<glyph unicode="&#xd2;" horiz-adv-x="1591" d="M61 766q0 328 208 542t528 214q182 0 307 -85t125 -212q0 -70 -43 -116t-110 -46t-111.5 46t-44.5 114q0 31 22 67q16 -70 66 -69q68 0 67.5 75t-86.5 124.5t-196 49.5q-285 0 -385 -266q-76 -197 -76 -446.5t59 -417.5q100 -283 410 -283q459 0 459 703q0 115 -50.5 158 t-176.5 46t-209 55t-83 120t62.5 125t122.5 57q-47 -82 -47 -152q0 -137 202 -139q449 -6 449 -272q0 -322 -210 -538t-523 -216t-524.5 217t-211.5 545zM563 1778q0 45 30 79.5t72 34.5t113 -57l275 -219q16 -15 11 -31t-28 -8l-340 86q-133 35 -133 115z" />
<glyph unicode="&#xd3;" horiz-adv-x="1591" d="M61 716q0 325 206 541t530 216q156 0 280 -70q152 -84 152 -227q0 -70 -42 -117t-110 -47t-112.5 47t-44.5 96t22 84q12 -70 66 -70q68 0 67.5 81t-106.5 130q-84 39 -176 39q-283 0 -385 -264q-76 -195 -76 -447.5t59 -418.5q102 -283 410 -283q459 0 459 705 q0 115 -49.5 155.5t-148 45.5t-144.5 20q-176 45 -177 160q0 61 60.5 119.5t124.5 58.5q-47 -74 -47 -150q0 -131 202.5 -140t292.5 -46q156 -63 156 -225q0 -317 -208 -535.5t-525 -218.5t-526.5 218t-209.5 543zM569 1595q0 10 15 23l245 219q63 57 106.5 57t72 -29.5 t28.5 -74.5q0 -76 -125 -113l-313 -92q-4 -2 -16 -2t-13 12z" />
<glyph unicode="&#xd4;" horiz-adv-x="1591" d="M61 716q0 329 208 543t528 214q182 0 307 -85t125 -212q0 -70 -43 -117t-110 -47t-111.5 46t-44.5 113q0 31 22 68q16 -70 66 -70q68 0 67.5 76t-86.5 125t-196 49q-285 0 -385 -264q-76 -199 -76 -447.5t59 -418.5q100 -283 410 -283q459 0 459 705q0 115 -50.5 157.5 t-176.5 45.5t-209 55.5t-83 119t62.5 124t122.5 57.5q-47 -80 -47 -150q0 -137 202 -141q449 -6 449 -270q0 -322 -210 -538t-523 -216t-524.5 216t-211.5 545zM463 1599.5q0 12.5 16 30.5l260 289q29 33 49 33t50 -33l260 -289q16 -18 16 -30t-13 -12.5t-38 16.5l-275 190 l-274 -190q-25 -16 -35 -17q-16 0 -16 12.5z" />
<glyph unicode="&#xd5;" horiz-adv-x="1591" d="M61 716q0 329 208 543t528 214q182 0 307 -85t125 -212q0 -70 -43 -117t-110 -47t-111.5 46t-44.5 113q0 31 22 68q16 -70 66 -70q68 0 67.5 76t-86.5 125t-196 49q-285 0 -385 -264q-76 -199 -76 -447.5t59 -418.5q100 -283 410 -283q459 0 459 705q0 115 -50.5 157.5 t-176.5 45.5t-209 55.5t-83 119t62.5 124t122.5 57.5q-47 -80 -47 -150q0 -137 202 -141q449 -6 449 -270q0 -322 -210 -538t-523 -216t-524.5 216t-211.5 545zM524 1660q0 9 31 58q80 127 178 127q45 0 103 -24l47 -21l47 -18q57 -23 82 -23q51 0 112 62q20 20 36 20 t16 -16t-25 -58q-80 -137 -195 -137q-45 0 -90 21l-53 24q-84 39 -132 39t-89 -40t-50 -40q-16 0 -16 17q-2 0 -2 9z" />
<glyph unicode="&#xd6;" horiz-adv-x="1591" d="M61 716q0 325 206 541t530 216q156 0 280 -70q152 -84 152 -227q0 -70 -42 -117t-110 -47t-112.5 47t-44.5 96t22 84q12 -70 66 -70q68 0 67.5 81t-106.5 130q-84 39 -176 39q-283 0 -385 -264q-76 -195 -76 -447.5t59 -418.5q102 -283 410 -283q459 0 459 705 q0 115 -49.5 155.5t-148 45.5t-144.5 20q-176 45 -177 160q0 61 60.5 119.5t124.5 58.5q-47 -74 -47 -150q0 -131 202.5 -140t292.5 -46q156 -63 156 -225q0 -317 -208 -535.5t-525 -218.5t-526.5 218t-209.5 543zM457 1711q0 52 36.5 88t90.5 36q53 0 90 -36t37 -88 t-37 -89t-89 -37t-90 37t-38 89zM862 1712q0 51 37 87t90 36t90 -37t37 -88t-37 -88t-89 -37t-90 38t-38 89z" />
<glyph unicode="&#xd8;" horiz-adv-x="1630" d="M31 718q0 327 207.5 541t527.5 214q184 0 309 -86.5t123 -210.5v-7l225 234q14 14 27 14q35 0 35 -33q0 -16 -15 -30l-362 -377q391 -18 391 -268q0 -322 -210 -538t-505 -216t-497 174l-158 -164q-16 -16 -29 -16q-37 0 -37 33q0 14 17 30l158 164q-207 215 -207 542z M301 712.5q0 -243.5 57 -413.5l596 619q-111 14 -177 63t-66 111.5t62.5 120t121.5 57.5q-47 -80 -47 -150q0 -125 168 -139l31 31h-3q-66 0 -110.5 46t-44.5 113q0 31 22 68q16 -70 66 -70q68 0 67.5 76t-86.5 125t-196 49q-285 0 -385 -264q-76 -199 -76 -442.5zM385 231 q111 -225 385 -225q459 0 459 705q0 106 -44 150t-141 52z" />
<glyph unicode="&#xd9;" horiz-adv-x="1730" d="M20 1406q0 28 29 28l375 -4l375 4q29 0 28 -27q0 -29 -28 -29q-23 4 -49 4q-211 0 -211 -237v-594q0 -291 34 -367q29 -70 115 -114q109 -61 269.5 -61.5t269 60t138.5 167t30 405.5v313q0 301 -117 394q-49 39 -117 32q-29 0 -28 29q0 25 32.5 25t140 -1t114.5 -1h114 q106 2 141 2t35 -27t-29 -27q-70 6 -118 -32q-117 -92 -117 -394v-313q0 -344 -39 -448q-27 -76 -96 -130q-143 -109 -434 -108.5t-451 123.5q-70 53 -93.5 116.5t-23.5 192.5v758q0 238 -211 237q-27 0 -49 -4q-29 0 -29 28zM707 1778q0 45 29.5 79.5t71.5 34.5t114 -57 l274 -219q16 -15 11 -31t-27 -8l-340 86q-133 35 -133 115z" />
<glyph unicode="&#xda;" horiz-adv-x="1730" d="M20 1406q0 28 29 28l375 -4l375 4q29 0 28 -27q0 -29 -28 -29q-23 4 -49 4q-211 0 -211 -237v-594q0 -291 34 -367q29 -70 115 -114q109 -61 269.5 -61.5t269 60t138.5 167t30 405.5v313q0 301 -117 394q-49 39 -117 32q-29 0 -28 29q0 25 32.5 25t140 -1t114.5 -1h114 q106 2 141 2t35 -27t-29 -27q-70 6 -118 -32q-117 -92 -117 -394v-313q0 -344 -39 -448q-27 -76 -96 -130q-143 -109 -434 -108.5t-451 123.5q-70 53 -93.5 116.5t-23.5 192.5v758q0 238 -211 237q-27 0 -49 -4q-29 0 -29 28zM743 1595q0 10 15 23l246 219q63 57 106 57 t71.5 -29.5t28.5 -74.5q0 -76 -125 -113l-313 -92q-4 -2 -16 -2t-13 12z" />
<glyph unicode="&#xdb;" horiz-adv-x="1730" d="M20 1406q0 28 29 28l375 -4l375 4q29 0 28 -27q0 -29 -28 -29q-23 4 -49 4q-211 0 -211 -237v-594q0 -291 34 -367q29 -70 115 -114q109 -61 269.5 -61.5t269 60t138.5 167t30 405.5v313q0 301 -117 394q-49 39 -117 32q-29 0 -28 29q0 25 32.5 25t140 -1t114.5 -1h114 q106 2 141 2t35 -27t-29 -27q-70 6 -118 -32q-117 -92 -117 -394v-313q0 -344 -39 -448q-27 -76 -96 -130q-143 -109 -434 -108.5t-451 123.5q-70 53 -93.5 116.5t-23.5 192.5v758q0 238 -211 237q-27 0 -49 -4q-29 0 -29 28zM637 1599.5q0 12.5 16 30.5l260 289 q29 33 50 33q20 0 49 -33l260 -289q16 -18 16 -30t-13 -12.5t-38 16.5l-274 190l-275 -190q-25 -16 -35 -17q-16 0 -16 12.5z" />
<glyph unicode="&#xdc;" horiz-adv-x="1851" d="M31 1407q0 27 28 27l375 -4l375 4q29 0 29 -28t-29 -28q-23 4 -49 4q-211 0 -211 -237v-594q0 -291 32 -364t117 -117q109 -61 270 -61.5t269.5 60t138 167t29.5 405.5v313q0 301 -117 394q-49 39 -117 32q-29 0 -28 29q0 25 32.5 25t140 -1t114.5 -1h114q106 2 141 2 t35 -27t-28 -27q-70 6 -119 -32q-117 -92 -117 -394v-313q0 -344 -39 -448q-27 -76 -96 -130q-143 -109 -438 -108.5t-443 115.5q-70 53 -95.5 130t-25.5 208v737q0 238 -210 237q-27 0 -50 -4q-29 0 -28 29zM651 1711q0 52 37 88t90 36t90 -36t37 -88t-37 -89t-89 -37 t-90 37t-38 89zM1057 1712q0 51 36.5 87t90.5 36q53 0 90 -37t37 -88t-37 -88t-89 -37t-90 38t-38 89z" />
<glyph unicode="&#xdf;" horiz-adv-x="1325" d="M0 21.5q0 21.5 27 21.5h41q182 0 182 332q0 92 -4 160l-10 167q-4 68 -5 125q0 268 134.5 413.5t384.5 145.5q193 0 316.5 -87t123.5 -222q0 -109 -98.5 -186.5t-260.5 -93.5q231 -8 332 -119.5t101 -281.5t-125 -300.5t-301 -130.5q-135 0 -228.5 80t-93.5 186.5 t55.5 168t131.5 61.5t118.5 -44t42.5 -106.5t-38 -104.5t-89 -42q-12 0 -22 2q35 33 35 66t-19.5 54t-50.5 21t-55.5 -31.5t-24.5 -78.5q0 -76 62.5 -131.5t159.5 -55.5t163 101.5t66 274.5t-76 277.5t-203 104.5q-39 0 -72.5 -20.5t-37.5 -47.5l-3 -16q-2 -18 -16 -18 t-33 20l-106 123q-6 6 -6 16q0 18 18 19q6 0 63.5 -18.5t106.5 -18.5q129 0 223.5 85t94.5 196.5t-75 182t-190 70.5q-156 0 -240.5 -104t-84.5 -295q0 -63 11 -230t11 -343.5t-20.5 -274.5t-71.5 -98l-104 6l-211 -2q-29 0 -29 21.5z" />
<glyph unicode="&#xe0;" horiz-adv-x="1187" d="M82 193q0 190 242 276q168 59 403 59v47q0 147 -27 207q-43 92 -172 92q-59 0 -121.5 -32.5t-62.5 -85.5q0 -6 11.5 -35t11.5 -47q0 -53 -41 -84t-92.5 -31t-82 36t-30.5 85q0 82 82 139q145 101 361 102t313 -112q41 -49 49 -129q4 -20 4 -150h37q164 0 163 -88 q0 -37 -26.5 -66.5t-63.5 -29.5q-61 0 -61 50t49 50l39 -12q20 0 20 23q0 39 -157 39v-291q0 -147 84 -148q51 0 75.5 52.5t34.5 52.5q23 0 23 -27q0 -86 -62.5 -133t-150.5 -47q-209 0 -209 186v41q-92 -227 -365 -227q-113 0 -195.5 63.5t-82.5 174.5zM303 235.5 q0 -76.5 51.5 -125.5t128 -49t140 57.5t84 122t20.5 144.5v107q-264 -4 -367 -117q-57 -63 -57 -139.5zM389 1206q0 45 28.5 75t71.5 30t107 -58l246 -219q14 -12 14 -23t-12 -11.5t-17 1.5l-313 93q-125 37 -125 112z" />
<glyph unicode="&#xe1;" horiz-adv-x="1187" d="M82 193q0 190 242 276q168 59 403 59v47q0 147 -27 207q-43 92 -172 92q-59 0 -121.5 -32.5t-62.5 -85.5q0 -6 11.5 -35t11.5 -47q0 -53 -41 -84t-92.5 -31t-82 36t-30.5 85q0 82 82 139q145 101 361 102t313 -112q41 -49 49 -129q4 -20 4 -150h37q164 0 163 -88 q0 -37 -26.5 -66.5t-63.5 -29.5q-61 0 -61 50t49 50l39 -12q20 0 20 23q0 39 -157 39v-291q0 -147 84 -148q51 0 75.5 52.5t34.5 52.5q23 0 23 -27q0 -86 -62.5 -133t-150.5 -47q-209 0 -209 186v41q-92 -227 -365 -227q-113 0 -195.5 63.5t-82.5 174.5zM303 235.5 q0 -76.5 51.5 -125.5t128 -49t140 57.5t84 122t20.5 144.5v107q-264 -4 -367 -117q-57 -63 -57 -139.5zM397 1012q0 10 15 22l245 219q110 100 179 28q28 -30 28 -75q0 -76 -125 -112l-313 -93q-4 -2 -16 -2t-13 13z" />
<glyph unicode="&#xe2;" horiz-adv-x="1187" d="M82 193q0 190 242 276q168 59 403 59v47q0 147 -27 207q-43 92 -172 92q-59 0 -121.5 -32.5t-62.5 -85.5q0 -6 11.5 -35t11.5 -47q0 -53 -41 -84t-92.5 -31t-82 36t-30.5 85q0 82 82 139q145 101 361 102t313 -112q41 -49 49 -129q4 -20 4 -150h37q164 0 163 -88 q0 -37 -26.5 -66.5t-63.5 -29.5q-61 0 -61 50t49 50l39 -12q20 0 20 23q0 39 -157 39v-291q0 -147 84 -148q51 0 75.5 52.5t34.5 52.5q23 0 23 -27q0 -86 -62.5 -133t-150.5 -47q-209 0 -209 186v41q-92 -227 -365 -227q-113 0 -195.5 63.5t-82.5 174.5zM260 985q0 12 16 31 l261 289q29 33 49 32q20 0 49 -32l260 -289q16 -19 16 -31t-13 -12t-38 16l-274 191l-275 -191q-25 -16 -35 -16q-16 0 -16 12zM303 235.5q0 -76.5 51.5 -125.5t128 -49t140 57.5t84 122t20.5 144.5v107q-264 -4 -367 -117q-57 -63 -57 -139.5z" />
<glyph unicode="&#xe3;" horiz-adv-x="1187" d="M82 193q0 190 242 276q168 59 403 59v47q0 147 -27 207q-43 92 -172 92q-59 0 -121.5 -32.5t-62.5 -85.5q0 -6 11.5 -35t11.5 -47q0 -53 -41 -84t-92.5 -31t-82 36t-30.5 85q0 82 82 139q145 101 361 102t313 -112q41 -49 49 -129q4 -20 4 -150h37q164 0 163 -88 q0 -37 -26.5 -66.5t-63.5 -29.5q-61 0 -61 50t49 50l39 -12q20 0 20 23q0 39 -157 39v-291q0 -147 84 -148q51 0 75.5 52.5t34.5 52.5q23 0 23 -27q0 -86 -62.5 -133t-150.5 -47q-209 0 -209 186v41q-92 -227 -365 -227q-113 0 -195.5 63.5t-82.5 174.5zM260 1076q0 9 31 59 q80 127 178 127q45 0 102 -25l95 -39q57 -23 82 -22q51 0 112 61q20 20 35.5 20t15.5 -16t-24 -57q-80 -137 -195 -137q-45 0 -90 20l-53 25q-84 39 -132 38.5t-89.5 -40.5t-49.5 -40q-16 1 -16 17q-2 0 -2 9zM303 235.5q0 -76.5 51.5 -125.5t128 -49t140 57.5t84 122 t20.5 144.5v107q-264 -4 -367 -117q-57 -63 -57 -139.5z" />
<glyph unicode="&#xe4;" horiz-adv-x="1187" d="M82 193q0 190 242 276q168 59 403 59v47q0 147 -27 207q-43 92 -172 92q-59 0 -121.5 -32.5t-62.5 -85.5q0 -6 11.5 -35t11.5 -47q0 -53 -41 -84t-92.5 -31t-82 36t-30.5 85q0 82 82 139q145 101 361 102t313 -112q41 -49 49 -129q4 -20 4 -150h37q164 0 163 -88 q0 -37 -26.5 -66.5t-63.5 -29.5q-61 0 -61 50t49 50l39 -12q20 0 20 23q0 39 -157 39v-291q0 -147 84 -148q51 0 75.5 52.5t34.5 52.5q23 0 23 -27q0 -86 -62.5 -133t-150.5 -47q-209 0 -209 186v41q-92 -227 -365 -227q-113 0 -195.5 63.5t-82.5 174.5zM256 1156 q0 52 37 88t90 36t90 -36t37 -88t-37 -89t-89 -37t-90 37t-38 89zM303 235.5q0 -76.5 51.5 -125.5t128 -49t140 57.5t84 122t20.5 144.5v107q-264 -4 -367 -117q-57 -63 -57 -139.5zM662 1157q0 51 36.5 87t89.5 36t90 -37t37 -88t-36.5 -88t-89 -37t-90 38t-37.5 89z" />
<glyph unicode="&#xe5;" horiz-adv-x="1187" d="M82 193q0 190 242 276q168 59 403 59v47q0 147 -27 207q-43 92 -172 92q-59 0 -121.5 -32.5t-62.5 -85.5q0 -6 11.5 -35t11.5 -47q0 -53 -41 -84t-92.5 -31t-82 36t-30.5 85q0 82 82 139q145 101 361 102t313 -112q41 -49 49 -129q4 -20 4 -150h37q164 0 163 -88 q0 -37 -26.5 -66.5t-63.5 -29.5q-61 0 -61 50t49 50l39 -12q20 0 20 23q0 39 -157 39v-291q0 -147 84 -148q51 0 75.5 52.5t34.5 52.5q23 0 23 -27q0 -86 -62.5 -133t-150.5 -47q-209 0 -209 186v41q-92 -227 -365 -227q-113 0 -195.5 63.5t-82.5 174.5zM303 235.5 q0 -76.5 51.5 -125.5t128 -49t140 57.5t84 122t20.5 144.5v107q-264 -4 -367 -117q-57 -63 -57 -139.5zM397 1155q0 78 55.5 132t133.5 54t133 -54t55 -132t-55 -133t-133 -55t-133.5 55t-55.5 133zM475 1155q0 -45 33 -78t79 -33t77.5 33t31.5 78t-32.5 77t-77.5 32 t-78 -32t-33 -77z" />
<glyph unicode="&#xe6;" horiz-adv-x="1794" d="M82 193q0 147 139 228t352 99q98 8 121 8h33v47q0 170 -43 234.5t-156 64.5q-72 0 -128 -35.5t-56 -82.5q0 -10 6 -19l8 -22q30 -74 -29 -124q-38 -32 -91.5 -32t-85 35t-31.5 86q0 96 128 169t304 73q236 0 344 -138q156 137 379 138q150 0 258 -86t108 -216.5 t-96 -230.5t-243.5 -100t-235.5 58.5t-88 168.5q0 57 45 103.5t113 46.5q137 0 147 -170q-29 55 -92 55q-37 0 -64.5 -28.5t-27.5 -65.5q0 -66 61 -99q47 -27 119 -26.5t124 74t52 174.5q0 141 -106 223q-82 63 -172 63t-158 -75q-88 -98 -88 -281t98 -303 q117 -145 316 -146q94 0 187 52.5t150 136.5q23 31 36.5 30.5t13.5 -16.5q0 -66 -136 -174q-164 -135 -387 -135q-170 0 -293.5 87t-166.5 234q-18 -61 -25 -81q-39 -111 -139.5 -175.5t-223.5 -64.5t-201.5 67.5t-78.5 170.5zM303 233q0 -74 50 -123t126 -49t141.5 55.5 t86 123t20.5 196.5v56q-272 -4 -371 -122q-53 -63 -53 -137z" />
<glyph unicode="&#xe7;" horiz-adv-x="1173" d="M102 410.5q0 209.5 159 359.5t388 150q154 0 259.5 -61.5t105.5 -149.5q0 -49 -38 -82t-91 -33q-111 0 -119 115l-4 61q-2 45 -41 74.5t-96 29.5q-129 0 -215 -105t-86 -281.5t108.5 -309.5t267.5 -133q66 0 142 38t76 93q0 82 -68 82q-49 0 -66 -70q-23 37 -22 68 q0 68 45 114t112 46t109.5 -46t42.5 -118q0 -123 -118 -202t-283 -93l-56 -76q41 8 66 8q78 0 127 -38.5t49 -101t-58.5 -103.5t-144.5 -41t-170 37q-35 12 -34 32q0 18 18 19q8 0 12 -2l29 -15q45 -23 106 -22q115 0 115 96q0 88 -96 88q-35 0 -63.5 -13t-30.5 -13 q-16 0 -16.5 14t12.5 33l65 96q-225 2 -361.5 124t-136.5 331.5z" />
<glyph unicode="&#xe8;" horiz-adv-x="1144" d="M82 422q0 209 157.5 354.5t387.5 145.5q150 0 259 -86t109 -216.5t-96 -230.5t-243.5 -100t-236.5 58t-89 169q0 57 45 103.5t112 46.5q137 0 150 -170q-29 55 -92 55q-37 0 -64.5 -28.5t-27.5 -65.5q0 -66 53 -96t125 -29.5t125 74t53 174.5q0 141 -109 223 q-82 63 -170.5 63t-156.5 -75q-88 -98 -88 -281t98 -303q115 -145 313 -146q94 0 188.5 52.5t151.5 136.5q20 31 33.5 30.5t13.5 -16.5q0 -66 -133 -174q-166 -135 -383 -135t-351 129t-134 338zM336 1206q0 45 28.5 75t71.5 30t107 -58l245 -219q15 -12 15 -23t-12.5 -11.5 t-16.5 1.5l-313 93q-125 37 -125 112z" />
<glyph unicode="&#xe9;" horiz-adv-x="1144" d="M82 423q0 210 148.5 354.5t375.5 144.5q154 0 271.5 -87t117.5 -216.5t-96 -229.5t-243.5 -100t-236.5 58t-89 169q0 57 45 103.5t112 46.5q137 0 150 -170q-29 55 -92 55q-37 0 -64.5 -28.5t-27.5 -65.5q0 -66 53 -96t125 -29.5t125 74t53 174.5q0 143 -94 225 q-72 66 -165 65.5t-171 -82.5q-98 -106 -98 -295.5t106.5 -310.5t308.5 -121q94 0 188.5 52.5t151.5 136.5q20 31 33.5 30.5t13.5 -16.5q0 -66 -133 -174q-166 -135 -383 -135t-351 129t-134 339zM375 1010.5q0 11.5 14 23.5l246 219q109 99 178 28q29 -30 29 -75 q0 -76 -125 -112l-314 -93q-4 -2 -16 -2t-12 11.5z" />
<glyph unicode="&#xea;" horiz-adv-x="1144" d="M82 422q0 209 157.5 354.5t387.5 145.5q150 0 259 -86t109 -216.5t-96 -230.5t-243.5 -100t-236.5 58t-89 169q0 57 45 103.5t112 46.5q137 0 150 -170q-29 55 -92 55q-37 0 -64.5 -28.5t-27.5 -65.5q0 -66 53 -96t125 -29.5t125 74t53 174.5q0 141 -109 223 q-82 63 -170.5 63t-156.5 -75q-88 -98 -88 -281t98 -303q115 -145 313 -146q94 0 188.5 52.5t151.5 136.5q20 31 33.5 30.5t13.5 -16.5q0 -66 -133 -174q-166 -135 -383 -135t-351 129t-134 338zM268 987q0 10 17 29l260 289q29 33 49 32q20 0 49 -32l260 -289 q17 -19 17 -31t-13.5 -12t-38.5 16l-274 191l-275 -191q-25 -16 -34 -16q-16 0 -17 14z" />
<glyph unicode="&#xeb;" horiz-adv-x="1144" d="M82 422q0 209 157.5 354.5t387.5 145.5q150 0 259 -86t109 -216.5t-96 -230.5t-243.5 -100t-236.5 58t-89 169q0 57 45 103.5t112 46.5q137 0 150 -170q-29 55 -92 55q-37 0 -64.5 -28.5t-27.5 -65.5q0 -66 53 -96t125 -29.5t125 74t53 174.5q0 141 -109 223 q-82 63 -170.5 63t-156.5 -75q-88 -98 -88 -281t98 -303q115 -145 313 -146q94 0 188.5 52.5t151.5 136.5q20 31 33.5 30.5t13.5 -16.5q0 -66 -133 -174q-166 -135 -383 -135t-351 129t-134 338zM264 1156q0 52 37 88t90 36t90 -36t37 -88t-37 -89t-89 -37t-90 37t-38 89z M670 1157q0 51 36.5 87t90.5 36q53 0 90 -37t37 -88t-37 -88t-89 -37t-90 38t-38 89z" />
<glyph unicode="&#xec;" horiz-adv-x="837" d="M61 782q0 27 29 31q51 0 167 23t175 53q47 33 69 33t21 -41v-590q0 -180 58 -221q31 -25 172 -25q24 1 24 -23t-24 -22l-332 6l-332 -6q-25 -2 -25 22t25 23q143 0 174 23q55 41 55 219l2 227q0 154 -42 198t-183 44q-33 0 -33 26zM162 1206q0 45 28.5 75t71.5 30 t107 -58l245 -219q15 -12 15 -23t-12.5 -11.5t-16.5 1.5l-313 93q-125 37 -125 112z" />
<glyph unicode="&#xed;" horiz-adv-x="837" d="M61 782q0 27 29 31q51 0 167 23t175 53q47 33 69 33t21 -41v-590q0 -180 58 -221q31 -25 172 -25q24 1 24 -23t-24 -22l-332 6l-332 -6q-25 -2 -25 22t25 23q143 0 174 23q55 41 55 219l2 227q0 154 -42 198t-183 44q-33 0 -33 26zM170 1010.5q0 11.5 14 23.5l246 219 q110 100 178 28q29 -30 29 -75q0 -76 -125 -112l-313 -93q-4 -2 -16.5 -2t-12.5 11.5z" />
<glyph unicode="&#xee;" horiz-adv-x="817" d="M61 782q0 27 29 31q51 0 167 23t175 53q47 33 69 33t21 -41v-590q0 -180 58 -221q31 -25 172 -25q24 1 24 -23t-24 -22l-332 6l-332 -6q-25 -2 -25 22t25 23q143 0 174 23q55 41 55 219l2 227q0 154 -42 198t-183 44q-33 0 -33 26zM94 987q0 10 17 29l260 289 q29 33 49 32q20 0 49 -32l260 -289q16 -19 16 -31t-13 -12t-38 16l-274 191l-275 -191q-25 -16 -34 -16q-16 0 -17 14z" />
<glyph unicode="&#xef;" horiz-adv-x="839" d="M61 1156q0 52 37 88t90 36t90 -36t37 -88t-36.5 -89t-89 -37t-90.5 37t-38 89zM63 782q0 27 29 31q51 0 167 23t175 53q47 33 69 33t21 -41v-590q0 -180 58 -221q31 -25 172 -25q24 1 24 -23t-24 -22l-332 6l-332 -6q-25 -2 -24 23q0 23 24 22q143 0 174 23q55 41 55 219 l3 227q0 154 -42.5 198t-183.5 44q-33 0 -33 26zM467 1157q0 51 37 87t90 36t90 -37t37 -88t-37 -88t-89 -37t-90 38t-38 89z" />
<glyph unicode="&#xf1;" horiz-adv-x="1337" d="M20 782q0 27 29 29q51 0 167 24t175 52q47 35 69 35t21 -43v-144q272 186 400 187q203 0 202 -211v-420q0 -166 50 -213q33 -33 139 -33q24 1 24 -23t-24 -22l-252 6l-270 -6q-25 -2 -25 22t25 23q106 0 122 51q6 16 7 191v362q0 164 -115 164q-102 0 -283 -127v-395 q0 -172 27 -209t123 -37q23 0 22.5 -23.5t-22.5 -23.5q-296 19 -545 0q-23 0 -23 24t23 23q125 0 157.5 36t32.5 206l3 227q0 154 -42.5 198t-183.5 44q-33 0 -33 26zM299 1076q0 9 31 59q80 127 178 127q45 0 102 -25l95 -39q57 -23 81 -22q51 0 113 61q20 20 35.5 20 t15.5 -16t-24 -57q-80 -137 -195 -137q-45 0 -90 20l-53 25q-84 39 -132 38.5t-89.5 -40.5t-50.5 -39.5t-15 12.5q0 2 -1 3t-1 10z" />
<glyph unicode="&#xf2;" horiz-adv-x="1157" d="M82 437q0 208 142.5 345.5t355.5 137.5t354 -139.5t141 -347.5t-140 -343t-355 -135t-356.5 137t-141.5 345zM315.5 438q-0.5 -436 264 -436t264.5 436.5t-262 435.5q-266 0 -266.5 -436zM367 1206q0 45 28.5 75t71.5 30t106 -58l246 -219q15 -12 15 -23t-12.5 -11.5 t-16.5 1.5l-313 93q-125 37 -125 112z" />
<glyph unicode="&#xf3;" horiz-adv-x="1157" d="M82 437q0 208 142.5 345.5t355.5 137.5t354 -139.5t141 -347.5t-140 -343t-355 -135t-356.5 137t-141.5 345zM315.5 438q-0.5 -436 264 -436t264.5 436.5t-262 435.5q-266 0 -266.5 -436zM375 1010.5q0 11.5 14 23.5l246 219q109 99 178 28q29 -30 29 -75 q0 -76 -125 -112l-314 -93q-4 -2 -16 -2t-12 11.5z" />
<glyph unicode="&#xf4;" horiz-adv-x="1157" d="M82 437q0 208 142.5 345.5t355.5 137.5t354 -139.5t141 -347.5t-140 -343t-355 -135t-356.5 137t-141.5 345zM268 987q0 10 17 29l260 289q29 33 49 32q20 0 49 -32l260 -289q17 -19 17 -31t-13.5 -12t-38.5 16l-274 191l-275 -191q-25 -16 -34 -16q-16 0 -17 14z M315.5 438q-0.5 -436 264 -436t264.5 436.5t-262 435.5q-266 0 -266.5 -436z" />
<glyph unicode="&#xf5;" horiz-adv-x="1105" d="M31 437q0 208 142 345.5t355 137.5t354.5 -139.5t141.5 -347.5t-140.5 -343t-355.5 -135t-356 137t-141 345zM248 1076q0 9 31 59q80 127 178 127q45 0 102 -25l94 -39q57 -23 82 -22q51 0 113 61q20 20 35.5 20t15.5 -16t-25 -57q-80 -137 -194 -137q-45 0 -90 20 l-53 25q-84 39 -132.5 38.5t-89.5 -40.5t-50 -39.5t-15 12.5q0 2 -1 3t-1 10zM264 438q0 -436 262 -436q267 0 267 436.5t-263 435.5q-266 0 -266 -436z" />
<glyph unicode="&#xf6;" horiz-adv-x="1157" d="M82 437q0 208 142.5 345.5t355.5 137.5t354 -139.5t141 -347.5t-140 -343t-355 -135t-356.5 137t-141.5 345zM233 1156q0 52 37 88t90 36t90 -36t37 -88t-36.5 -89t-89 -37t-90.5 37t-38 89zM315.5 438q-0.5 -436 264 -436t264.5 436.5t-262 435.5q-266 0 -266.5 -436z M639 1157q0 51 37 87t90 36t90 -37t37 -88t-37 -88t-89 -37t-90 38t-38 89z" />
<glyph unicode="&#xf7;" horiz-adv-x="1513" d="M61 717q0 328 207 542t525 214q111 0 206 -29t91 -29q45 0 65 31q12 33 27 65q4 10 21 10.5t26 -20.5l176 -457q2 -10 2 -18q0 -25 -18 -25q-23 0 -46 43q-53 104 -172 213q-180 164 -370 164q-293 0 -393 -266q-76 -197 -76 -446.5t59 -417.5q100 -283 410 -283 q231 0 365 77t220 284q10 20 33 20q33 0 33 -31q0 -6 -2 -14q-72 -195 -220.5 -292t-447 -97t-510 217t-211.5 545z" />
<glyph unicode="&#xf8;" horiz-adv-x="1179" d="M82 -30q0 9 18 28l111 106q-129 135 -129 338t142.5 340.5t350.5 137.5t349 -127l120 116q12 12 25 13q29 0 29 -29q0 -14 -15 -29l-118 -114q111 -133 110.5 -329t-140.5 -331t-341.5 -135t-337.5 108l-115 -110q-14 -14 -26 -14t-22.5 11t-10.5 20zM315 444 q0 -129 21 -219l479 463q-57 186 -233 186q-266 0 -267 -430zM356 162q61 -160 222 -160q266 0 266 449q0 96 -13 170z" />
<glyph unicode="&#xf9;" horiz-adv-x="1419" d="M41 782q0 27 29 31q51 0 166.5 23t175.5 53q47 33 68.5 33t21.5 -41v-678q0 -152 119 -152q94 0 321 144v319q0 154 -42 198t-183 44q-33 0 -33 26q0 27 29 29q51 0 166.5 24t175.5 52q47 35 68.5 35t21.5 -43v-588q0 -180 57 -221q31 -25 174 -25q23 1 23 -23t-25 -22 q-248 4 -317.5 0t-89 21.5t-23.5 121.5q-199 -123 -290 -155.5t-154 -32.5q-115 0 -158 49t-43 199v311q0 154 -42 198t-183 44q-33 0 -33 26zM383 1206q0 45 28.5 75t71.5 30t107 -58l246 -219q14 -12 14 -23t-12 -11.5t-17 1.5l-313 93q-125 37 -125 112z" />
<glyph unicode="&#xfa;" horiz-adv-x="1419" d="M41 782q0 27 29 31q51 0 166.5 23t175.5 53q47 33 68.5 33t21.5 -41v-678q0 -152 119 -152q94 0 321 144v319q0 154 -42 198t-183 44q-33 0 -33 26q0 27 29 29q51 0 166.5 24t175.5 52q47 35 68.5 35t21.5 -43v-588q0 -180 57 -221q31 -25 174 -25q23 1 23 -23t-25 -22 q-248 4 -317.5 0t-89 21.5t-23.5 121.5q-199 -123 -290 -155.5t-154 -32.5q-115 0 -158 49t-43 199v311q0 154 -42 198t-183 44q-33 0 -33 26zM483 1012q0 10 15 22l245 219q110 100 179 28q28 -30 28 -75q0 -76 -125 -112l-313 -93q-4 -2 -16 -2t-13 13z" />
<glyph unicode="&#xfb;" horiz-adv-x="1419" d="M41 782q0 27 29 31q51 0 166.5 23t175.5 53q47 33 68.5 33t21.5 -41v-678q0 -152 119 -152q94 0 321 144v319q0 154 -42 198t-183 44q-33 0 -33 26q0 27 29 29q51 0 166.5 24t175.5 52q47 35 68.5 35t21.5 -43v-588q0 -180 57 -221q31 -25 174 -25q23 1 23 -23t-25 -22 q-248 4 -317.5 0t-89 21.5t-23.5 121.5q-199 -123 -290 -155.5t-154 -32.5q-115 0 -158 49t-43 199v311q0 154 -42 198t-183 44q-33 0 -33 26zM346 985q0 12 16 31l261 289q29 33 49 32q20 0 49 -32l260 -289q16 -19 16 -31t-13 -12t-38 16l-274 191l-275 -191 q-25 -16 -35 -16q-16 0 -16 12z" />
<glyph unicode="&#xfc;" horiz-adv-x="1419" d="M41 782q0 27 29 31q51 0 166.5 23t175.5 53q47 33 68.5 33t21.5 -41v-678q0 -152 119 -152q94 0 321 144v319q0 154 -42 198t-183 44q-33 0 -33 26q0 27 29 29q51 0 166.5 24t175.5 52q47 35 68.5 35t21.5 -43v-588q0 -180 57 -221q31 -25 174 -25q23 1 23 -23t-25 -22 q-248 4 -317.5 0t-89 21.5t-23.5 121.5q-199 -123 -290 -155.5t-154 -32.5q-115 0 -158 49t-43 199v311q0 154 -42 198t-183 44q-33 0 -33 26zM311 1156q0 52 37 88t90 36t90 -36t37 -88t-36.5 -89t-89 -37t-90.5 37t-38 89zM717 1157q0 51 37 87t90 36t90 -37t37 -88 t-37 -88t-89 -37t-90 38t-38 89z" />
<glyph unicode="&#xff;" horiz-adv-x="1363" d="M41 782q0 27 29 31q51 0 166.5 23t175.5 53q47 33 68.5 33t21.5 -41v-678q0 -152 119 -152q68 0 319 142l2 321q0 154 -42 198t-183 44q-33 0 -33 26q0 27 29 29q51 0 166.5 24t175.5 52q47 35 68.5 35t21.5 -43l2 -654q0 -100 31 -141q6 -10 55 -45q29 -21 29 -66 q0 -150 -158 -325q-178 -193 -389 -195q-170 0 -287 117q-70 70 -70 151t45.5 125.5t105.5 44.5t102 -42t42 -91t-13 -63q-18 -19 -22 -2q-39 66 -79 22q-18 -16 -18.5 -51t38.5 -74q68 -70 166 -69q176 -2 300 113t124 233q0 61 -39 96q-49 20 -98 39q-70 33 -72 139 q-300 -186 -427.5 -186t-170.5 49t-43 199v311q0 154 -42 198t-183 44q-33 0 -33 26zM309 1156q0 52 37 88t90 36t90 -36t37 -88t-37 -89t-89 -37t-90 37t-38 89zM715 1157q0 51 36.5 87t90.5 36q53 0 90 -37t37 -88t-37 -88t-89 -37t-90 38t-38 89z" />
<glyph unicode="&#x131;" horiz-adv-x="845" d="M31 782q0 27 28 31q51 0 167 23t175 53q47 33 69 33t22 -41v-590q0 -180 57 -221q31 -25 172 -25q24 1 24 -23t-24 -22l-332 6l-332 -6q-25 -2 -24 23q0 23 24 22q143 0 174 23q55 41 56 219l2 227q0 154 -42 198t-184 44q-33 0 -32 26z" />
<glyph unicode="&#x152;" horiz-adv-x="2527" d="M61 716q0 325 206 541t530 216q156 0 280 -70q152 -84 152 -227q0 -68 -43 -116t-110 -48t-111.5 47t-44.5 98t22 82q10 -70 66 -70q68 0 67.5 81t-95.5 125t-187 44q-281 0 -385 -264q-76 -188 -76 -473q0 -676 469 -676q459 0 459 705q0 158 -109 188q-117 16 -233 33 q-176 45 -177 160q0 61 60.5 118.5t124.5 59.5q-47 -76 -47 -150q0 -129 202 -141q137 -8 215 -21t142 -59q-90 109 -90 246q0 172 172 262q139 74 333.5 74t325.5 -74q166 -92 166 -277q0 -70 -45 -125t-105.5 -55t-98.5 35t-38 85t56.5 96t56.5 85q0 98 -115 146 q-82 33 -205.5 33t-196.5 -76t-73 -208t84 -257q152 43 243 43t145 -36t54 -104.5t-58 -108.5t-130 -40q-127 0 -264 92q-164 -133 -164 -321.5t118 -294.5t298 -107q137 0 237 47q129 61 129 183q0 37 -23.5 68.5t-60.5 31.5q-68 0 -82 -94q-31 51 -30.5 117.5t53.5 122 t130 55.5t131 -64.5t54 -148.5q0 -190 -192 -293q-156 -82 -367 -82q-401 0 -559 225q-209 -225 -528 -225t-528.5 218t-209.5 543zM1731 799q94 -117 184 -117q57 0 100 27t43 75t-35.5 75.5t-76.5 27.5q-100 0 -215 -88z" />
<glyph unicode="&#x153;" horiz-adv-x="1937" d="M82 437q0 208 142.5 345.5t357.5 137.5q258 0 401 -195q162 197 436 197q150 0 259.5 -86t109.5 -216.5t-96 -230.5t-244.5 -100t-237 58.5t-88.5 168.5q0 57 45 103.5t113 46.5q137 0 147 -170q-27 55 -92 55q-37 0 -63.5 -28.5t-26.5 -65.5q0 -66 53.5 -96t125 -29.5 t123.5 74t52 174.5q0 141 -106 223q-82 63 -172 63t-158 -75q-86 -98 -86 -281t97 -303q117 -145 315 -146q94 0 187 52.5t151 136.5q23 31 36 30.5t13 -16.5q0 -66 -133 -174q-166 -135 -401.5 -135t-372.5 172q-141 -172 -389 -172q-215 0 -356.5 137t-141.5 345z M315.5 438q-0.5 -436 264 -436t264.5 436.5t-262 435.5q-266 0 -266.5 -436z" />
<glyph unicode="&#x178;" horiz-adv-x="1683" d="M20 1401q0 29 29 29l375 -7l375 7q29 0 28 -29q0 -29 -28 -29q-35 8 -70 8q-125 0 -125 -88q0 -57 60 -151l280 -439l166 261q135 211 135 313t-102 102q-16 0 -29 -4q-29 0 -29 28t29 28l258 -5l262 5q29 0 29 -28t-29 -28q-63 -4 -133 -45q-170 -98 -342 -366 l-141 -218q-51 -80 -51 -144.5t112.5 -132t112.5 -118.5t-50 -103t-153 -79q47 -117 189 -117q27 0 51 4q27 0 26 -28q0 -29 -26 -29l-377 6l-375 -6q-27 0 -26 29q0 29 26 28q25 -4 51 -4q131 0 183 101q-193 25 -309.5 138t-116.5 281q0 90 52 151.5t120.5 61.5t111.5 -43 t43 -102t-34.5 -94t-65.5 -35q-8 0 -8 4l6 35q0 49 -45 49q-31 0 -52.5 -30.5t-21.5 -73.5q0 -111 101.5 -201t234.5 -98q10 41 10 92v331l-344 521q-164 248 -344 233q-29 0 -29 29zM578 1711q0 52 36.5 88t90.5 36q53 0 89.5 -36t36.5 -88t-36.5 -89t-88.5 -37t-90 37 t-38 89zM969 287q0 -25 2 -45q73 43 73 127q0 53 -75 123v-205zM983 1712q0 51 37 87t90 36t90 -37t37 -88t-37 -88t-89 -37t-90 38t-38 89z" />
<glyph unicode="&#x192;" horiz-adv-x="1363" d="M61 444q0 127 83.5 229.5t209.5 157.5q-168 135 -168 310.5t170 265.5q139 74 332 74t324 -70q172 -92 172 -281q0 -70 -45 -125t-106.5 -55t-98.5 35t-37 85t56.5 95t56.5 86q0 100 -115 146q-84 33 -209 33t-195.5 -77t-70.5 -208t84 -256q152 43 242 43t145 -36 t55 -104.5t-58.5 -108.5t-129.5 -40q-117 0 -260 94q-168 -137 -168 -324.5t118 -293.5t297 -107q135 0 236 47q131 61 131 183q0 37 -23.5 68.5t-60.5 31.5q-68 0 -82 -94q-31 51 -31 117.5t52.5 122t130.5 55.5t131 -64.5t53 -148.5q0 -190 -190 -293q-156 -82 -396.5 -82 t-419.5 106q-215 129 -215 383zM567 799q96 -117 185 -117q145 0 145 109q0 41 -36 68.5t-77 27.5q-100 0 -217 -88z" />
<glyph unicode="&#x2c6;" d="M186 987q0 10 17 29l260 289q29 33 49 32q20 0 49 -32l260 -289q17 -19 17 -31t-13.5 -12t-38.5 16l-274 191l-274 -191q-25 -16 -35 -16q-16 0 -17 14z" />
<glyph unicode="&#x2c7;" d="M186.5 1312.5q-0.5 12.5 16.5 12.5q8 0 35 -18l274 -191l274 191q27 18 35 18q17 0 17 -16q0 -8 -17 -27l-260 -291q-29 -33 -49 -33t-49 33l-260 291q-16 18 -16.5 30.5z" />
<glyph unicode="&#x2d8;" d="M201 1270q0 18 16 18q8 0 41 -33q100 -102 255 -100t253 100l27 27q12 6 14 6q16 0 16 -23.5t-53 -101.5q-96 -143 -258 -143q-203 0 -303 223q-8 18 -8 27z" />
<glyph unicode="&#x2d9;" d="M385 1157q0 51 37 87t90 36t90 -37t37 -88t-37 -88t-89 -37t-90 38t-38 89z" />
<glyph unicode="&#x2da;" d="M324 1155q0 78 55 132t133 54t133 -54t55 -132t-55 -133t-133 -55t-133 55t-55 133zM401 1155q0 -45 33 -78t79 -33t78 33t32 78t-33 77t-78 32t-78 -32t-33 -77z" />
<glyph unicode="&#x2db;" d="M342 -160q0 39 39 97q6 8 18 28l23 35h102l-20 -27q-43 -57 -43 -88q0 -57 71 -57q43 0 78 27l33 24q14 10 21 10q16 1 16 -20.5t-33 -54.5q-78 -78 -180 -78q-51 0 -88 32.5t-37 71.5z" />
<glyph unicode="&#x2dc;" d="M186 1076q0 9 31 59q80 127 178 127q45 0 103 -25l94 -39q57 -23 82 -22q51 0 112 61q20 20 36 20t16 -16t-25 -57q-80 -137 -195 -137q-45 0 -90 20l-53 25q-84 39 -132 38.5t-89 -40.5t-50 -40q-16 1 -16 17q-2 0 -2 9z" />
<glyph unicode="&#x2dd;" d="M328 1002.5q0 11.5 8 19.5l170 229q55 76 96 76t67.5 -28.5t26.5 -63.5q0 -53 -90 -102l-250 -136q-8 -6 -14 -6q-14 0 -14 11.5zM635 993q0 10 8 19l178 225q57 72 97.5 72t67 -29t26.5 -66q0 -53 -94 -100l-254 -127q-12 -4 -15 -4q-14 0 -14 10z" />
<glyph unicode="&#x394;" horiz-adv-x="1794" d="M20 27q0 29 29 28l51 -4q207 0 209 236v854q0 238 -209 237l-51 -6q-29 0 -29 29t29 29l375 -7l375 7q29 0 28 -29q0 -29 -28 -29l-49 6q-209 0 -209 -237l-2 -348h716v348q0 238 -208 237l-52 -6q-29 0 -28 29q0 29 28 29l375 -7l375 7q29 0 29 -29t-29 -29l-49 6 q-209 0 -209 -237v-854q0 -236 209 -236l49 4q29 0 29 -28q0 -29 -29 -29l-375 6l-375 -6q-29 0 -28 29q0 29 28 28l52 -4q209 0 208 236v454h-716v-454q0 -236 209 -236l51 4q29 0 28 -28q0 -29 -28 -29l-375 6l-375 -6q-29 0 -29 29z" />
<glyph unicode="&#x3a9;" horiz-adv-x="1138" d="M61 12q0 12 154.5 209t441.5 565q25 31 25 43q0 23 -45 23q-182 0 -291 -55q-145 -76 -201 -205q-12 -27 -31 -27t-20 19q0 6 10 30l144 312q12 27 31 26q10 0 18 -24.5t41 -31.5t174 -7h279l141 8q37 0 37 -14t-17.5 -34.5t-572.5 -746.5q-20 -25 -21 -36q0 -23 162 -23 q334 0 334 129q0 35 -19.5 63.5t-54.5 28.5h-30q-18 -10 -35 -22q31 133 184 133q63 0 120.5 -49.5t57.5 -142.5t-119 -144q-94 -39 -237 -39h-629q-31 0 -31 12z" />
<glyph unicode="&#x3bc;" horiz-adv-x="1916" d="M41 179q0 80 45 123.5t100 43.5q160 0 160 -131q0 -12 -2 -25q-43 39 -63 39q-57 0 -58 -67q0 -68 56 -107q45 -35 104 -35q203 2 281 234q51 150 55 440l-62 31q-78 41 -71 41q-47 0 -47 -39q0 -33 20 -33q4 0 16.5 9.5t22.5 9.5q49 0 49 -51t-61 -52q-39 0 -64.5 28 t-25.5 60.5t23.5 63.5t55 31t52.5 -11l92 -47v58q0 375 282 557q186 123 381 123q156 0 260 -160q8 -8 8.5 -22.5t-20.5 -14.5q-6 0 -18 4t-49 -25q14 6 22 7q23 0 23 -43l2 -932q0 -236 209 -236q27 0 49 4q28 1 28 -27t-28 -28l-375 4l-375 -4q-29 0 -28 27q0 29 28 28 q23 -4 51 -4q190 0 207 199v108l-606 310q-4 -399 -94 -545q-102 -168 -393 -168q-80 0 -161 72t-81 152zM772 709l604 -312v113l-602 299q-2 -31 -2 -64v-36zM776 834l600 -293q0 479 -29.5 516t-63.5 36t-34 25q0 27 29 31q76 0 180 47q2 0 -20.5 47t-73.5 47 q-233 2 -367 -71q-197 -106 -221 -385z" />
<glyph unicode="&#x3c0;" horiz-adv-x="1511" d="M20 21q0 27 50 26q123 0 188 129q57 111 57 279v338q0 373 283 557q188 123 383 123q106 0 265 -21.5t216 -21.5q29 0 29 -28t-29 -28q-23 4 -49 4q-211 0 -211 -237v-854q0 -236 209 -236q29 0 51 4q29 0 29 -27.5t-29 -27.5l-375 4l-374 -4q-29 0 -29 28t26 25.5 t52 -2.5q209 0 209 236v458h-602v-290q0 -408 221 -408h10q6 2 10 2q29 0 29 -27.5t-29 -27.5l-270 6l-291 -6q-29 0 -29 27zM371 793h602v348q0 70 -8 96q-14 51 -60 51q-510 0 -534 -495z" />
<glyph unicode="&#x401;" horiz-adv-x="1542" d="M20 26q0 28 29 27l47 -4q213 0 213 238v856q0 236 -209 235l-51 -6q-29 0 -29 29t29 29l596 -7l572 4q43 0 47 -40.5t4 -272.5q0 -27 -29 -27t-29 27l7 53q0 137 -160 189q-94 29 -277 28q-242 0 -241 -241v-350h24q197 0 287 36q117 49 117 177v12q-2 6 -2 10 q0 29 28 29q29 0 29 -29l-6 -260l6 -260q0 -29 -29 -29q-23 0 -26 19v32q0 129 -127 179q-94 37 -299 36l-2 -458q0 -109 72.5 -173.5t185 -64.5t157.5 21q88 39 168 186q59 127 121 252q70 125 139 125q49 0 84 -28t35 -70t-24.5 -71.5t-68.5 -29.5t-44 35q0 6 33 14.5 t33 44.5q0 45 -50 45q-90 0 -90 -348q0 -100 18.5 -149.5t18.5 -59.5q0 -18 -18 -18l-885 6l-375 -6q-29 0 -29 28zM436 1711q0 52 37 88t90 36t90 -36t37 -88t-37 -89t-89 -37t-90 37t-38 89zM842 1712q0 51 36.5 87t90.5 36q53 0 90 -37t37 -88t-37 -88t-89 -37t-90 38 t-38 89z" />
<glyph unicode="&#x404;" horiz-adv-x="1525" d="M57.5 707q-0.5 338 206.5 552t524 214q111 0 206.5 -29t90.5 -29q45 0 66 31q12 33 27 65q4 10 21 10.5t26 -20.5l176 -457q2 -10 2 -18q0 -25 -21 -25t-43 43q-53 104 -172 213q-180 164 -370 164q-293 0 -394 -266q-63 -168 -73 -389h573q16 0 6 -18l-24 -39 q-12 -16 -29 -17h-528v-8q0 -676 469 -676q266 0 399 98q104 76 104 187q0 37 -22.5 63.5t-52.5 26.5q-70 0 -70 -82q-31 8 -52.5 49t-21.5 91t50.5 92t119 42t118.5 -59t50 -151q0 -158 -135 -271q-168 -139 -474 -139t-519 197q-233 217 -233.5 555z" />
<glyph unicode="&#x405;" horiz-adv-x="1916" d="M41 179q0 80 45 123.5t100 43.5q160 0 160 -131q0 -12 -2 -25q-43 39 -63 39q-57 0 -58 -67q0 -68 56 -107q45 -35 104 -35q203 2 281 234q51 150 55 440l-62 31q-78 41 -71 41q-47 0 -47 -39q0 -33 20 -33q4 0 16.5 9.5t22.5 9.5q49 0 49 -51t-61 -52q-39 0 -64.5 28 t-25.5 60.5t23.5 63.5t55 31t52.5 -11l92 -47v58q0 375 282 557q186 123 381 123q156 0 260 -160q8 -8 8.5 -22.5t-20.5 -14.5q-6 0 -18 4t-49 -25q14 6 22 7q23 0 23 -43l2 -932q0 -236 209 -236q27 0 49 4q28 1 28 -27t-28 -28l-375 4l-375 -4q-29 0 -28 27q0 29 28 28 q23 -4 51 -4q190 0 207 199v108l-606 310q-4 -399 -94 -545q-102 -168 -393 -168q-80 0 -161 72t-81 152zM772 709l604 -312v113l-602 299q-2 -31 -2 -64v-36zM776 834l600 -293q0 479 -29.5 516t-63.5 36t-34 25q0 27 29 31q76 0 180 47q2 0 -20.5 47t-73.5 47 q-233 2 -367 -71q-197 -106 -221 -385z" />
<glyph unicode="&#x406;" horiz-adv-x="929" d="M61 28q0 28 29 27l51 -4q207 0 209 236v854q0 238 -209 237l-51 -4q-29 0 -29 28t29 28l375 -7l375 7q28 0 28 -28t-28 -28l-49 4q-209 0 -209 -237l-2 -854q0 -236 208 -236l52 4q29 0 28 -28q0 -27 -28 -27l-375 4l-375 -4q-29 0 -29 28z" />
<glyph unicode="&#x407;" horiz-adv-x="929" d="M61 28q0 28 26 25.5t54 -2.5q207 0 209 236v854q0 238 -209 237q-29 0 -51 -4q-29 0 -29 28t29 28l375 -7l375 7q28 0 28 -28t-28 -28q-23 4 -49 4q-209 0 -209 -237l-2 -854q0 -236 208 -236q29 0 52 4q29 0 28 -28q0 -27 -28 -27l-375 4l-375 -4q-29 0 -29 28z M129 1711q0 52 37 88t90 36t90 -36t37 -88t-37 -89t-89 -37t-90 37t-38 89zM535 1712q0 51 36.5 87t90.5 36q53 0 89.5 -37t36.5 -88t-36.5 -88t-88.5 -37t-90 38t-38 89z" />
<glyph unicode="&#x410;" horiz-adv-x="1560" d="M20 25q0 27 50 26q123 0 188 129q57 111 57 279v235q-141 74 -143 74q-37 0 -37 -34t19 -34q6 0 18 9.5t21 9.5q51 0 51 -51t-64 -52q-37 0 -64.5 32t-27.5 67t27.5 61.5t60.5 26.5q10 0 139 -68v113q0 246 107.5 390t341.5 224q84 27 201.5 27t178.5 -26t105.5 -93 t44.5 -76q0 -18 -18 -18l-21 4q-18 0 -49 -25q14 6 25 7q23 0 22 -43v-932q0 -236 209 -236l49 4q29 1 29 -27t-29 -28l-372 4l-355 -4q-29 0 -28 27q0 29 28 28l45 -4q86 0 139.5 56.5t53.5 142.5v88l-653 330v-209q0 -408 221 -408q4 0 10 1t10 1q29 0 29 -27.5t-29 -27.5 l-270 6l-291 -6q-29 0 -29 27zM369 707l653 -330v102l-653 320v-92zM369 834l653 -316v96q0 408 -30 443t-64.5 35t-34.5 25.5t30 29.5t63.5 9t105.5 38q-16 2 -25.5 34t-22.5 44q-23 25 -77 24q-254 0 -412 -100q-186 -121 -186 -362z" />
<glyph unicode="&#x411;" horiz-adv-x="1468" d="M59 26q0 28 29 27l51 -4q207 0 211 238l2 856q0 236 -209 235l-51 -6q-29 0 -29 29t29 29l596 -7l588 4q31 0 31 -38l4 -275q0 -27 -29 -27t-29 27l7 53q0 137 -160 189q-94 29 -277 28q-242 0 -241 -243l-2 -854q-2 -238 204 -238q164 0 279 100.5t115 374.5 q0 135 -56 230q-68 115 -192 114q-76 0 -151 -47t-74 -119q0 -102 77 -102q33 0 55.5 25.5t22.5 52.5t-31 49q4 -6 5 -12q0 -35 -35 -35t-35 35q0 49 59 49q35 0 56.5 -26.5t21.5 -67.5t-36 -76t-83 -35q-127 0 -127 143q0 98 105 158q86 51 190 51q104 20 269 -53 q227 -106 227 -349t-103.5 -351t-240.5 -146q-59 -16 -156 -16l-483 6l-375 -4q-29 0 -29 28z" />
<glyph unicode="&#x412;" horiz-adv-x="1488" d="M20 28q0 28 29 27l51 -4q207 0 209 236v114q0 309 -30.5 344t-64.5 35t-34 26t37 32t68 10q-74 12 -118 72.5t-44 138.5q0 131 101 231t227.5 141.5t257 41.5t268 -44t240 -153t102.5 -246t-139 -282q227 -107 227 -345q0 -135 -103.5 -243t-240.5 -146q-59 -16 -156 -16 l-483 6l-375 -4q-29 0 -29 28zM293 1147q0 -37 24.5 -68.5t59.5 -31.5q57 0 84 94q29 -51 28.5 -110.5t-30.5 -106.5q37 27 57 26q23 0 23 -43v-620q0 -236 206 -236q164 0 279 100.5t115 249t-56 242.5q-68 115 -192 115q-76 0 -151 -47t-74 -119q0 -102 77 -103 q33 0 55.5 26t22.5 52.5t-30 48.5q4 -6 4 -12q0 -35 -35 -35t-35 35q0 49 59 49q35 0 56.5 -26.5t21.5 -67.5t-35.5 -75.5t-83.5 -34.5q-127 0 -127 143q0 98 105 158q86 51 183 51t116 -2q61 84 61 242.5t-104 267.5q-111 111 -289 110q-188 0 -317 -119q-78 -72 -78 -153z " />
<glyph unicode="&#x413;" horiz-adv-x="1349" d="M20 27q0 29 29 28l51 -4q209 0 209 236v856q0 236 -209 235l-51 -6q-29 0 -29 29t29 29l596 -7l588 4q31 0 31 -38l4 -275q0 -27 -29 -27t-29 27l7 53q0 137 -160 189q-94 29 -277 28q-242 0 -241 -241v-856q0 -236 211 -236l49 4q29 0 28 -28q0 -29 -28 -29l-375 6 l-375 -6q-29 0 -29 29z" />
<glyph unicode="&#x414;" horiz-adv-x="1826" d="M61 846q0 297 250 471q223 156 549 156q432 0 676 -246q209 -209 209 -514q0 -160 -64.5 -309.5t-179.5 -245.5t-224 -128t-269 -32l-465 10l-375 -6q-29 0 -29 27t29 26l49 -4q211 0 211 238v168q-25 -6 -49 -6q-158 0 -238 116.5t-80 278.5zM127 850q0 -90 45 -169 t128 -79t83 68q0 51 -68 63q35 25 63 25t50 -6q-6 246 -28 268.5t-60.5 34.5t-38.5 28q0 25 27 31q86 18 134 32.5t107.5 47.5t67.5 33q23 0 22 -41v-897q0 -145 78 -197q59 -41 212 -41t247 37q121 45 184 164q99 182 99 485q0 682 -621 682q-303 0 -502 -131 q-229 -154 -229 -438z" />
<glyph unicode="&#x415;" horiz-adv-x="1542" d="M20 26q0 28 29 27l47 -4q213 0 213 238v856q0 236 -209 235l-51 -6q-29 0 -29 29t29 29l596 -7l572 4q43 0 47 -40.5t4 -272.5q0 -27 -29 -27t-29 27l7 53q0 137 -160 189q-94 29 -277 28q-242 0 -241 -241v-350h24q197 0 287 36q117 49 117 177v12q-2 6 -2 10 q0 29 28 29q29 0 29 -29l-6 -260l6 -260q0 -29 -29 -29q-23 0 -26 19v32q0 129 -127 179q-94 37 -299 36l-2 -458q0 -109 72.5 -173.5t185 -64.5t157.5 21q88 39 168 186q59 127 121 252q70 125 139 125q49 0 84 -28t35 -70t-24.5 -71.5t-68.5 -29.5t-44 35q0 6 33 14.5 t33 44.5q0 45 -50 45q-90 0 -90 -348q0 -100 18.5 -149.5t18.5 -59.5q0 -18 -18 -18l-885 6l-375 -6q-29 0 -29 28z" />
<glyph unicode="&#x416;" horiz-adv-x="2684" d="M8 31q0 29 27 28l63 -6q125 0 191 92l542 768l-268 248q-88 82 -133 123q-119 94 -194 94q-43 0 -43 28t28 28l262 -7l258 7q29 0 29 -29t-33 -29q-137 0 -137 -81t150 -224l467 -446h2v526q0 238 -209 238l-52 -5q-29 0 -28 27q0 29 28 29l375 -6l375 6q29 0 29 -28 t-29 -28l-49 5q-209 0 -209 -238l-2 -520l467 446q150 143 149.5 224t-137.5 81q-33 0 -33 29t29 29l258 -6l262 6q29 0 29 -28t-43 -28q-76 0 -195 -94q-45 -41 -133 -123l-268 -247l543 -768q66 -92 190 -93l64 7q27 0 26.5 -29t-26.5 -29l-375 6l-377 -6q-27 0 -27 29 t27 29l68 -7q117 0 116 78q0 59 -69 160l-326 471l-219 -201v-270q0 -236 209 -236l51 5q29 0 29 -28t-29 -28l-375 4l-375 -4q-29 0 -28 27q0 29 28 29l52 -5q207 0 209 236v264h-2l-220 201l-325 -471q-70 -100 -70 -160q0 -78 117 -78l67 6q27 0 27 -28q0 -29 -27 -29 l-376 6l-375 -6q-27 0 -27 29z" />
<glyph unicode="&#x417;" horiz-adv-x="1363" d="M61 330q0 84 53.5 148.5t131.5 64.5t130 -55.5t52 -122t-31 -117.5q-14 94 -82 94q-37 0 -60.5 -31.5t-23.5 -68.5q0 -121 131 -183q100 -47 236 -47q180 0 298 107t118 294t-168 324q-143 -94 -260 -94q-72 0 -130.5 40t-58.5 109t55.5 104.5t146 35.5t241.5 -43 q84 125 84 256t-71 208t-196 77t-208 -33q-115 -45 -115 -146q0 -41 56 -86t56 -95t-36.5 -85t-98.5 -35t-106.5 55.5t-44.5 124.5q0 188 172 281q131 70 323 70t332 -74q170 -90 170 -265t-168 -311q127 -55 210 -157.5t83 -229.5q0 -254 -215 -383q-178 -106 -449 -106 q-211 0 -366 82q-191 103 -191 293zM446 791q0 -109 146 -109q88 0 184 117q-117 88 -217 88q-41 0 -77 -27.5t-36 -68.5z" />
<glyph unicode="&#x418;" horiz-adv-x="1579" d="M39 1403q0 27 29 27h520q29 0 28 -27q0 -29 -28 -29q-4 0 -10 1t-11 1q-125 0 -178 -162q-37 -109 -37 -264v-377l758 797q16 20 30.5 40t33.5 20l129 -5l204 5q29 0 29 -29t-29 -29l-55 4q-182 0 -182 -323v-574q0 -158 37 -266q55 -162 180 -162q49 0 49 -24 q0 -29 -29 -29l-260 6l-260 -6q-29 0 -29 28t29 27h10q6 -2 11 -2q125 0 178 162q37 109 37 266v668l-871 -889v-197q0 -104 -96 -104q-174 0 -174 188q0 143 119 271l104 110v424q0 156 -37 264q-55 162 -180 162q-49 0 -49 27zM193 76q0 -33 17 -58.5t40 -25.5t39 24.5 t16 49.5v151q-37 -33 -72 -65q-40 -43 -40 -76z" />
<glyph unicode="&#x419;" horiz-adv-x="1579" d="M39 1403q0 -27 49 -27q104 0 160.5 -112.5t56.5 -313.5v-424l-104 -110q-119 -125 -119 -271q0 -188 174 -188q96 0 96 104v197l871 889v-668q0 -201 -55.5 -314.5t-159.5 -113.5q-6 0 -11 2h-10q-29 0 -29 -27.5t29 -27.5l260 6l260 -6q29 0 29 27t-49 26 q-104 0 -160.5 112.5t-56.5 315.5v574q0 324 182 323l55 -4q29 0 29 29t-29 29l-101 -3l-103 -2l-129 5q-20 0 -33 -20.5t-31 -39.5l-758 -797v377q0 199 55.5 312.5t159.5 113.5h11q4 -2 10 -2q29 0 28 29q0 27 -28 27h-520q-29 0 -29 -27zM193 75q0 32 35.5 67.5 t76.5 74.5v-151q0 -25 -16.5 -49.5t-38.5 -24.5q-23 0 -40 25.5t-17 57.5zM590 1690.5q0 81.5 42 129.5t100 48t91 -34t33 -82t-28.5 -81t-55 -33t-31.5 2q27 25 27 51t-14.5 42t-39 16t-43 -24.5t-18.5 -57.5t15.5 -56.5t39.5 -40.5q53 -38 116.5 -38t110 16.5t75.5 51.5 q61 75 22 208l51 15q33 -72 25 -136.5t-45 -111.5t-96.5 -74.5t-118.5 -27.5t-104.5 18t-79.5 49q-74 69 -74 150.5z" />
<glyph unicode="&#x41a;" horiz-adv-x="1787" d="M41 28q0 28 29 27l51 -4q207 0 209 236v854q0 238 -209 237l-51 -4q-29 0 -29 28t29 28l374 -7l375 7q29 0 29 -28t-29 -28l-49 4q-209 0 -209 -237l-2 -520l467 446q150 143 150 224t-138 81q-32 0 -32 29t28 29l258 -7l262 7q29 0 29 -28t-43 -28q-76 0 -194 -94 q-45 -41 -134 -123l-268 -248l543 -768q66 -92 190 -92l64 6q26 1 26 -28t-26 -29l-375 6l-377 -6q-27 0 -26 29q0 29 26 28l68 -6q117 0 117 78q0 59 -70 160l-326 471l-219 -201v-270q0 -236 209 -236l51 4q29 0 29 -27.5t-29 -27.5l-375 4l-374 -4q-29 0 -29 28z" />
<glyph unicode="&#x41b;" horiz-adv-x="1916" d="M41 179q0 80 45 123.5t100 43.5q160 0 160 -131q0 -16 -2 -25q-41 39 -63 39q-57 0 -58 -67q0 -68 51.5 -105t108.5 -37q205 4 281 234q53 152 55 440v99q0 375 282 557q186 123 381 123q156 0 260 -160q8 -8 8.5 -22.5t-20.5 -14.5q-8 0 -18 4t-49 -25q14 6 22 7 q23 0 23 -43l2 -932q0 -236 209 -236q29 0 49 4q29 0 28 -28q0 -27 -28 -27h-56l-236 4h-166l-234 -4h-58q-29 0 -28 27q0 29 28 28q20 -4 51 -4q193 0 207 199v260q0 511 -26 543q-35 41 -68 40t-33 25q0 27 29 31q74 0 180 47q2 0 -20 47q-23 47 -74 47q-233 2 -367 -71 q-98 -53 -154.5 -161t-68.5 -249q-2 -16 -2 -31v-33l-2 -77q-2 -397 -94 -545q-100 -168 -393 -168q-82 0 -162 72t-80 152z" />
<glyph unicode="&#x41c;" horiz-adv-x="2027" d="M20 25q0 27 50 26q125 0 180 162q37 109 37 266v574q0 324 -183 323l-55 -4q-29 0 -29 29t29 29l205 -5l131 5q20 0 55 -58l531 -883l512 822q74 119 112 119l158 -9l223 9q29 0 29 -29t-29 -29l-49 6q-211 0 -211 -237v-854q0 -238 213 -238l49 4q29 1 29 -27t-29 -28 l-376 6l-375 -6q-29 0 -29 28t29 27l49 -4q213 0 213 238v946l-494 -782q98 -174 98.5 -270.5t-68.5 -161t-169 -64.5q-51 0 -89 38t-38 92t119 214l-514 844v-664q0 -156 37 -266q55 -162 178 -162q4 0 10 1t10 1q29 0 29 -27.5t-29 -27.5l-258 6l-262 -6q-29 0 -29 27z M774 96q0 -94 80 -94q31 0 58.5 34.5t27.5 67.5t-70 162q-96 -136 -96 -170z" />
<glyph unicode="&#x41d;" horiz-adv-x="1794" d="M20 27q0 29 29 28l51 -4q207 0 209 236v854q0 238 -209 237l-51 -6q-29 0 -29 29t29 29l375 -7l375 7q29 0 28 -29q0 -29 -28 -29l-49 6q-209 0 -209 -237l-2 -219l716 -353v572q0 238 -208 237l-52 -6q-29 0 -28 29q0 29 28 29l375 -7l375 7q29 0 29 -29t-29 -29l-49 6 q-209 0 -209 -237v-854q0 -236 209 -236l49 4q29 0 29 -28q0 -29 -29 -29l-375 6l-375 -6q-29 0 -28 29q0 29 28 28l52 -4q209 0 208 236v100l-716 365v-465q0 -236 209 -236l51 4q29 0 28 -28q0 -29 -28 -29l-375 6l-375 -6q-29 0 -29 29zM539 793l716 -367v102l-716 357 v-92z" />
<glyph unicode="&#x41e;" horiz-adv-x="1591" d="M61 716q0 325 206 541t530 216q156 0 280 -70q152 -84 152 -227q0 -70 -42 -117t-110 -47t-112.5 47t-44.5 96t22 84q12 -70 66 -70q68 0 67.5 81t-106.5 130q-84 39 -176 39q-283 0 -385 -264q-76 -195 -76 -447.5t59 -418.5q102 -283 410 -283q459 0 459 705 q0 115 -49.5 155.5t-148 45.5t-144.5 20q-176 45 -177 160q0 61 60.5 119.5t124.5 58.5q-47 -74 -47 -150q0 -131 202.5 -140t292.5 -46q156 -63 156 -225q0 -317 -208 -535.5t-525 -218.5t-526.5 218t-209.5 543z" />
<glyph unicode="&#x41f;" horiz-adv-x="1794" d="M20 27q0 29 29 28l51 -4q207 0 209 236v854q0 238 -209 237l-51 -6q-29 0 -29 29t29 29l298 -7h140t125 2l318 5h65l298 -7h156l296 7q29 0 29 -29t-29 -29l-49 6q-209 0 -209 -237v-854q0 -236 209 -236l49 4q29 0 29 -28q0 -29 -30 -29h-76l-298 6l-296 -6h-79 q-29 0 -28 29q0 29 28 28l52 -4q209 0 208 236v948q0 140 -227 128q-59 -3 -111 -3t-117 2t-123.5 -7t-97 -37t-38.5 -87l-2 -309v-635q0 -236 209 -236l51 4q29 0 28 -28q0 -29 -29 -29h-77l-297 6l-298 -6h-77q-29 0 -29 29z" />
<glyph unicode="&#x420;" horiz-adv-x="1392" d="M20 28q0 28 29 27l51 -4q152 0 193 135q16 55 16 287.5t-30.5 268.5t-64.5 36t-34 27t38 33t69 10q-74 10 -119 71.5t-45 139.5q0 131 105 241q184 193 481 193q355 0 518 -166q104 -108 104 -262q0 -80 -35 -164q-109 -252 -391 -252q-143 0 -243.5 94.5t-100.5 235.5 q0 66 39 117t94 51t89 -34t34 -81q0 -86 -84 -98q4 14 4 27q0 39 -35 38q-57 0 -57 -80.5t67.5 -147t147.5 -66.5q127 0 187.5 94t60.5 227q0 193 -112.5 303.5t-305.5 110.5q-197 0 -319 -129q-76 -82 -76 -164q0 -37 23.5 -68.5t60.5 -31.5q55 0 82 94q31 -51 31 -111.5 t-35 -107.5q39 29 59 28q23 0 23 -43v-620q0 -236 209 -236l51 4q29 0 28 -28q0 -27 -28 -27l-375 4l-375 -4q-29 0 -29 28z" />
<glyph unicode="&#x421;" horiz-adv-x="1525" d="M61.5 707q-0.5 338 206.5 552t525 214q111 0 206 -29t91 -29q45 0 65 31q12 33 27 65q4 10 21 10.5t26 -20.5l176 -457q2 -10 2 -18q0 -25 -18 -25q-23 0 -46 43q-53 104 -172 213q-180 164 -370 164q-293 0 -393 -266q-76 -197 -76 -471q0 -676 469 -676q266 0 399 98 q104 76 105 187q0 37 -22.5 63.5t-53.5 26.5q-70 0 -70 -82q-31 8 -52.5 49t-21.5 91t50.5 92t119 42t118.5 -59t50 -151q0 -158 -135 -271q-168 -139 -474 -139t-519 197q-233 217 -233.5 555z" />
<glyph unicode="&#x422;" horiz-adv-x="1568" d="M82 1065l6 262l-6 117q0 29 29 29q14 0 49 -29q25 -20 625.5 -20.5t625.5 20.5q33 29 47 29q29 0 29 -29l-6 -117l6 -262q0 -29 -29 -29q-23 0 -26 27q2 -10 2 43q0 145 -82 205.5t-195 60.5l-59 4q-199 0 -199 -235v-854q0 -236 209 -236l51 4q29 0 29 -28 q0 -29 -29 -29l-375 6l-374 -6q-29 0 -29 29t29 28l49 -4q209 0 209 236l2 854q0 236 -203 235h-29q-23 -2 -28 -4q-272 -14 -273 -266v-21q2 -14 2 -20q0 -29 -28 -29q-29 0 -29 29z" />
<glyph unicode="&#x423;" horiz-adv-x="1531" d="M8 1389q0 29 29 28l475 10q29 0 29 -27.5t-29 -27.5h-10q-8 4 -10 2q-43 -45 -64.5 -130t-4.5 -185.5t81.5 -202.5t193.5 -178q49 -31 102.5 -61.5t100.5 -65.5q80 -73 80 -162q0 -51 -33 -89t-78 -38t-73.5 31t-28.5 69q0 66 70 66q35 0 34 -35q0 -27 -28 -26 q-29 0 -31 26q-12 -10 -12 -24q0 -53 65 -54q25 0 44.5 23.5t19.5 50.5t-17.5 71t-62.5 79q-49 31 -84 41q-323 86 -465 248q-176 201 -70 520q4 12 -30.5 17t-77.5 8q-115 8 -115 16zM232.5 342q19.5 80 83 110t121 8t81.5 -79q23 -49 5.5 -97t-44.5 -59q-4 -2 -10 0v6 q-17 76 -70 56q-33 -16 -36 -54t12 -73q47 -109 186 -160q30 -6 96 -6q160 0 237 71.5t91 217.5q4 32 4 266l6 592q2 119 -44 178t-150 59l-51 -4q-29 0 -29 28t29 28l360 -7l375 7q29 0 28 -29q0 -27 -28 -27l-49 4q-209 0 -209 -235l-2 -686q-4 -502 -543 -502 q-96 0 -186 22q-178 51 -250 211q-33 74 -13.5 154z" />
<glyph unicode="&#x424;" horiz-adv-x="2027" d="M29 805q0 188 165 317q148 116 355 125q211 9 332 -110v4q0 238 -209 237l-51 -4q-29 0 -29 28t29 28l374 -7l375 7q29 0 29 -28t-29 -28l-49 4q-203 0 -209 -225q124 109 331 93q203 -15 344 -130q159 -128 159 -311q0 -214 -132 -345q-123 -120 -305 -120 q-147 0 -247 104q-103 107 -103 265q0 74 39 131t96.5 57t92 -38t34.5 -91q0 -96 -86 -109q4 20 4 29q0 43 -36 43q-57 0 -58 -90q0 -86 70 -163t149 -77q123 0 188.5 99.5t65.5 261.5q0 191 -114 316q-102 112 -248 116q-148 4 -244 -109l-2 -798q0 -236 209 -236l51 4 q29 0 29 -27.5t-29 -27.5l-375 4l-374 -4q-29 0 -29 28t29 27l51 -4q207 0 209 236v774q-92 130 -246 132q-149 2 -259 -109q-120 -121 -120 -322q0 -162 65.5 -261.5t188.5 -99.5q80 0 150 77q69 77 69 165t-57 88q-37 0 -37 -43q0 -8 4 -29q-86 12 -86 109q0 53 35 91 t92.5 38t96 -57.5t38.5 -134t-27.5 -144t-75.5 -117.5q-101 -104 -247 -104q-182 0 -305 120q-131 130 -131 345z" />
<glyph unicode="&#x425;" horiz-adv-x="1751" d="M20 1401q0 29 29 29l375 -7l375 7q29 0 28 -29q0 -29 -28 -29l-58 6q-111 0 -110 -73q0 -51 63 -142l240 -340l199 244q135 166 135 244q0 66 -88 65l-39 -4q-29 0 -29 29t29 29l258 -7l262 7q29 0 29 -29t-29 -29q-78 0 -178.5 -47t-149.5 -106l-366 -441l360 -514 q152 -213 332 -213l43 4q29 1 29 -27t-29 -28l-375 4l-375 -4q-29 0 -28 27q0 29 28 28l58 -4q111 0 110 72q0 53 -63 141l-238 338l-201 -242q-135 -162 -135 -241q0 -66 90 -66h21q12 2 18 2q29 0 29 -27.5t-29 -27.5l-260 4l-262 -4q-27 0 -27 28t27 27q12 -6 35 -6 q126 0 330 191q113 135 333 407l-364 516q-152 215 -330 215l-45 -6q-29 0 -29 29z" />
<glyph unicode="&#x426;" horiz-adv-x="1789" d="M20 25q0 29 29 28l51 -6q209 0 209 238v854q-2 236 -209 235l-51 -4q-29 0 -29 29t30 28.5t76 -0.5l298 -6l296 6h79q29 0 28 -28q0 -29 -28 -29l-51 4q-209 0 -209 -235v-635l2 -256q0 -107 135 -160q108 -41 242 -41q127 0 201.5 35t108.5 75t34 99v891q0 236 -209 235 l-52 -4q-29 0 -28 29q0 29 31 29h76l296 -6l298 6h77q29 0 29 -29t-29 -29l-49 4q-209 0 -209 -235v-854q0 -106 13.5 -131t35 -43.5t57.5 -46.5l99 -68h-8q-14 7 -29 -8q-129 -77 -137 -211l8 -246q-8 -141 -137 -229q-129 -84 -314 -4q-158 72 -239 194q-16 27 2 35 q10 10 35 -10q109 -90 183.5 -103.5t172.5 50t131 159.5q14 45 26.5 89t26.5 90q45 104 150 174q14 12 43 22l-47 2q-63 2 -109 2h-141t-125 -2l-195 -12h-65l-318 4q-63 2 -109 2h-156l-298 -6q-29 0 -29 29z" />
<glyph unicode="&#x427;" horiz-adv-x="1839" d="M35 1393q0 27 28 26l375 -4l375 4q29 0 29 -27.5t-29 -27.5l-49 4q-211 0 -211 -238q0 -295 32.5 -364.5t129 -122.5t254.5 -53q219 0 327 94v449q0 238 -209 237l-51 -4q-29 0 -28 27q0 29 28 28l375 -6l375 6q29 1 29 -27t-29 -28l-49 4q-209 0 -209 -237l-2 -854 q0 -236 209 -236l51 4q29 0 29 -28t-29 -27l-375 4l-375 -4q-29 0 -28 26q0 29 28 29l51 -4q207 0 209 236v342q-136 -86 -417 -86t-439 122q-76 59 -96 125t-20 348q0 238 -211 238l-50 -4q-29 0 -28 29z" />
<glyph unicode="&#x428;" horiz-adv-x="2742" d="M20 25q0 29 29 28l51 -6q209 0 209 238v854q-2 236 -209 235l-51 -4q-29 0 -29 29t30 28.5t76 -0.5l298 -6l296 6h79q29 0 28 -28q0 -29 -28 -29l-51 4q-209 0 -209 -235v-635l2 -264q0 -106 135 -158q106 -41 242 -41q128 0 200 31.5t104.5 69.5t32.5 98v899 q0 236 -208 235l-52 -4q-29 0 -28 29q0 29 30.5 28.5t76.5 -0.5l296 -6l298 6h77q29 0 29 -28q0 -29 -29 -29l-49 4q-209 0 -209 -235v-887q0 -107 132 -166q105 -47 236 -47q129 0 225 48q120 60 120 167v887q0 236 -209 235l-52 -4q-29 0 -28 29q0 29 31 29h76l296 -7 l375 7q29 0 29 -29t-29 -29l-49 4q-209 0 -209 -235v-854q0 -238 209 -238l49 6q29 0 29 -28q0 -29 -29 -29l-295 6h-157l-298 -6l-175 2l-246 2h-225l-298 -6h-65l-318 4q-63 2 -109 2h-156l-298 -6q-29 0 -29 29z" />
<glyph unicode="&#x429;" horiz-adv-x="2684" d="M20 25q0 29 29 28l51 -6q209 0 209 238v854q-2 236 -209 235l-51 -4q-29 0 -29 29t30 28.5t76 -0.5l298 -6l296 6h79q29 0 28 -28q0 -29 -28 -29l-51 4q-209 0 -209 -235v-635l2 -250q0 -105 135 -158q108 -41 242 -41q126 0 199 32t105.5 70t32.5 97v885q0 236 -208 235 l-52 -4q-29 0 -28 29q0 29 30.5 28.5t76.5 -0.5l296 -6l298 6h77q29 0 29 -28q0 -29 -29 -29l-49 4q-209 0 -209 -235v-881q0 -108 132 -166q109 -47 236 -47q126 0 225 49q120 58 120 166v881q0 236 -209 235l-52 -4q-29 0 -28 29q0 29 31 29h76l296 -7l375 7q29 0 29 -29 t-29 -29l-49 4q-209 0 -209 -235v-854q0 -106 13.5 -131t35 -43.5t57.5 -46.5l99 -68h-8q-15 6 -29 -8q-129 -77 -137 -211l8 -246q-8 -141 -137 -229q-129 -84 -314 -4q-158 72 -239 194q-16 27 2 35q10 10 35 -10q109 -90 183.5 -103.5t172.5 50t131 159.5q14 45 26.5 89 t26.5 89q45 104 150 174q14 12 43 23l-47 2q-63 2 -109 2h-157l-298 -6l-175 2l-246 2h-225l-298 -6h-65l-318 4q-63 2 -109 2h-156l-298 -6q-29 0 -29 29z" />
<glyph unicode="&#x42a;" horiz-adv-x="1824" d="M23 893q0 94 86 94q47 0 47 -35q0 -6 -32 -14t-32 -43q0 -49 45 -49q55 0 90 151q25 106 25 203.5t-27 165.5q-10 31 -10 39q0 18 18 18q80 0 179.5 -2t151.5 -2l255 4h79l296 7q29 0 29 -28t-29 -28l-49 4q-209 0 -209 -237l-4 -854q-4 -238 205 -238q166 0 278 101 q60 52 81 105q34 91 34 224t-61.5 239t-186.5 105q-76 0 -145 -45q-80 -49 -80 -121q0 -102 78 -102q33 0 55 25.5t22 52.5t-30 49q4 -8 4 -12q0 -35 -35 -35t-35 35q0 49 60 49q35 0 56 -26.5t21 -67.5t-35.5 -76t-82.5 -35q-127 0 -127 143q0 98 104 158q84 51 191 51 q104 20 268 -53q227 -109 227 -344q0 -119 -20 -173q-31 -81 -88 -142q-98 -104 -236 -142q-61 -16 -156 -16l-382 6h-180l-218 -4h-78q-29 0 -28 27q0 29 28 28l52 -4q207 0 210 238l3 854l4 215q-53 0 -74 2q-59 6 -135 -72q-45 -47 -85 -116q-83 -142 -145 -255 q-72 -123 -137 -122q-45 0 -77.5 27.5t-32.5 72.5z" />
<glyph unicode="&#x42b;" horiz-adv-x="2224" d="M57 26q0 28 29 27l51 -4q207 0 211 238l2 854q0 238 -209 237l-51 -4q-29 0 -29 28t29 28l375 -7l375 7q29 0 28 -29q0 -27 -28 -27l-49 4q-209 0 -209 -237l-4 -854q-2 -238 204 -238q164 0 279 100.5t115 335.5q0 135 -56 230q-68 115 -192 114q-76 0 -151 -47 t-75 -118q0 -102 78 -103q33 0 55.5 25.5t22.5 52.5t-31 49q4 -6 4 -12q0 -35 -34 -35q-35 0 -35 35q0 49 59 49q35 0 56.5 -26.5t21.5 -67.5t-36 -76t-83 -35q-127 0 -127 144q0 98 105 157q86 51 190 51q104 20 269 -53q227 -106 227 -344q0 -209 -103.5 -317t-240.5 -146 q-59 -16 -156 -16l-483 6l-375 -4q-29 0 -29 28zM1346 23q0 29 28 28l51 -4q207 0 209 236v854q0 238 -209 237l-51 -4q-29 0 -28 27q0 29 28 28l375 -6l375 6q28 1 28 -27t-28 -28l-49 4q-209 0 -209 -237l-2 -854q0 -236 209 -236l51 4q29 0 28 -28q0 -27 -28 -27l-375 4 l-375 -4q-29 0 -28 27z" />
<glyph unicode="&#x42c;" horiz-adv-x="1468" d="M57 26q0 28 29 27l51 -4q207 0 211 238l2 854q0 238 -209 237l-51 -4q-29 0 -29 28t29 28l375 -7l375 7q29 0 28 -29q0 -27 -28 -27l-49 4q-209 0 -209 -237l-4 -854q-2 -238 204 -238q164 0 279 100.5t115 335.5q0 135 -56 230q-68 115 -192 114q-76 0 -151 -47 t-75 -118q0 -102 78 -103q33 0 55.5 25.5t22.5 52.5t-31 49q4 -6 4 -12q0 -35 -34 -35q-35 0 -35 35q0 49 59 49q35 0 56.5 -26.5t21.5 -67.5t-36 -76t-83 -35q-127 0 -127 144q0 98 105 157q86 51 190 51q104 20 269 -53q227 -106 227 -344q0 -209 -103.5 -317t-240.5 -146 q-59 -16 -156 -16l-483 6l-375 -4q-29 0 -29 28z" />
<glyph unicode="&#x42d;" horiz-adv-x="1525" d="M59 365q0 92 50.5 151t119 59t118.5 -41.5t50 -92t-21.5 -91.5t-51.5 -49q0 82 -70 82q-31 0 -53.5 -26.5t-22.5 -63.5q0 -111 105 -187q133 -98 399 -98q469 0 469 676v8h-528q-16 0 -29 17l-25 39q-10 18 6 18h574q-10 221 -74 389q-100 266 -393 266q-190 0 -371 -164 q-119 -109 -172 -213q-23 -43 -43 -43t-20 25q0 8 2 18l176 457q8 20 25.5 20.5t21.5 -10.5q14 -33 27 -65q20 -31 65 -31q-4 0 91.5 29t205.5 29q317 0 524 -214.5t207 -552t-223 -544.5t-529.5 -207t-473.5 139q-136 113 -136 271z" />
<glyph unicode="&#x42e;" horiz-adv-x="2482" d="M20 27q0 29 29 28l51 -4q207 0 209 236v854q0 238 -209 237l-51 -6q-29 0 -29 29t29 29l297 -7h156l297 7q29 0 28 -29q0 -29 -28 -29l-49 6q-209 0 -209 -237l-2 -269l422 -4q35 238 194 404q205 217 531 217q156 0 280 -70q152 -84 152 -227q0 -70 -42 -117t-110 -47 t-113 47t-45 96.5t23 83.5q12 -70 65 -69q68 0 68 81t-106 130q-80 39 -177 39q-285 0 -385 -265q-76 -190 -75.5 -444t59.5 -422q100 -283 410 -282q459 0 458 704q0 113 -53 160q-47 37 -145.5 42t-143.5 19q-176 47 -176 160q0 59 60 119q63 59 125 59q-47 -76 -48 -149 q0 -133 205 -142.5t291 -44.5q156 -63 156 -225q0 -319 -207 -536.5t-525 -217.5t-527.5 216t-209.5 540h-415l4 -440q2 -236 209 -236l51 4q29 0 28 -28q0 -29 -28 -29h-78l-297 6l-299 -6h-76q-29 0 -29 29zM535 770h415q2 30 4 61l-419 7v-68z" />
<glyph unicode="&#x42f;" horiz-adv-x="1650" d="M20 -133q61 -72 134.5 -72t109.5 68q25 43 57.5 172t64.5 207.5t67.5 128.5t128.5 164q70 78 106 116q-168 8 -284.5 115.5t-116.5 273.5q0 231 184 351q162 106 410.5 106t435.5 -116.5t186 -321.5q0 -78 -45 -139.5t-119 -71.5q106 -10 107 -43q0 -18 -36 -34.5 t-64 -29.5q-23 -16 -27 -45t-4 -135v-209q0 -139 35 -207q47 -94 176 -94l51 4q29 0 29 -27.5t-29 -27.5l-375 4l-375 -4q-29 0 -28 27q0 29 28 28l52 -4q209 0 208 236v620q0 43 24 43t58 -28q-35 49 -34.5 108t30.5 111q23 -94 82 -94q37 0 60.5 31.5t23.5 68.5 q0 129 -118 212t-277 83q-223 0 -318 -123q-78 -98 -77 -293q0 -291 194 -319q129 147 144 231q-74 8 -74 92q0 43 31.5 73t87 30t97.5 -45.5t42 -110.5q0 -119 -80 -211t-199 -111q-168 -279 -168 -497v-70q0 -174 -89 -285t-263 -110q-211 0 -244 174zM811 711 q80 18 131 95t51 163q0 41 -20.5 77.5t-57.5 36.5q-63 0 -63 -57q0 -37 31 -49q-6 16 5 30.5t27 14.5q35 0 35 -45t-49 -122.5t-90 -143.5z" />
<glyph unicode="&#x430;" horiz-adv-x="1208" d="M82 193q0 190 242 276q168 59 403 59v47q0 147 -27 207q-43 92 -172 92q-59 0 -121.5 -32.5t-62.5 -85.5q0 -6 11.5 -35t11.5 -47q0 -53 -41 -84t-92.5 -31t-82 36t-30.5 85q0 82 82 139q145 101 361 102t313 -112q41 -49 49 -129q4 -20 4 -150h37q164 0 163 -88 q0 -37 -26.5 -66.5t-63.5 -29.5q-61 0 -61 50t49 50l39 -12q20 0 20 23q0 39 -157 39v-291q0 -147 84 -148q51 0 75.5 52.5t34.5 52.5q23 0 23 -27q0 -86 -62.5 -133t-150.5 -47q-209 0 -209 186v41q-92 -227 -365 -227q-113 0 -195.5 63.5t-82.5 174.5zM303 235.5 q0 -76.5 51.5 -125.5t128 -49t140 57.5t84 122t20.5 144.5v107q-264 -4 -367 -117q-57 -63 -57 -139.5z" />
<glyph unicode="&#x431;" horiz-adv-x="1146" d="M82 440v21q2 174 60.5 316.5t140.5 246.5t169 167.5t142 78t115.5 9.5t119 -14.5t109.5 -14.5t85 8q71 29 28 172q-14 -41 -88 -41q-39 0 -64 19t-25 46t29 44.5t89 17.5q111 0 116 -136q4 -205 -154 -246q-139 -35 -366 52q-45 16 -110 -81q-64 -97 -101 -231 q102 46 205 46q207 0 350 -138.5t143 -348.5t-141 -345q-143 -133 -355 -133t-356 135q-141 137 -141 350zM315.5 438q-0.5 -436 264 -436t264.5 436.5t-262 435.5q-266 0 -266.5 -436z" />
<glyph unicode="&#x432;" horiz-adv-x="1153" d="M41 782q0 27 27.5 29t74.5 8t96.5 13.5t89.5 15.5q68 14 150 43h2q226 81 373 47q174 -40 156 -248q-4 -47 -57.5 -97t-137.5 -65q141 16 226 -60q87 -78 67 -206q-4 -16 -13.5 -58t-42.5 -85q-83 -111 -272 -111h-28q-7 -8 -21 -8l-332 6l-331 -6q-25 0 -25 23t33 24v-2 h55q98 0 131 45q35 49 35 197l2 233q0 133 -23.5 168t-58.5 47.5t-105.5 16.5t-70.5 30zM502 291q0 -134 17.5 -169.5t39.5 -50t59 -20.5h89q98 0 156.5 49.5t58.5 153.5t-40 171t-122 67q-31 2 -68 -10.5t-68.5 -19.5t-53 -1t-21.5 43t21.5 51t51.5 15q59 2 119 -23 q61 33 87 64.5t26 103t-34 114.5t-86 55q-100 22 -232 -55v-538z" />
<glyph unicode="&#x433;" horiz-adv-x="1122" d="M20 776q0 20 31 25q219 14 342 88l49 29h274l226 -3q12 0 12 -10t-12 -42.5t-12 -102.5t14 -142q25 -104 64 -104q33 0 32 33q0 27 -38 37q-7 2 -7 4q0 25 31 24.5t47.5 -21t16.5 -50t-21.5 -48t-52.5 -18.5q-47 0 -98 86q-53 90 -91.5 157.5t-53.5 91.5t-32.5 32 t-52.5 9t-78 2t-80.5 2t-46.5 1v-543q0 -164 27 -215t117 -51h24q31 0 43.5 -4t12.5 -20q0 -23 -33 -23h-94l-122 4h-154l-124 -4h-92q-31 0 -31 20q0 27 54 27h22q90 0 118 52t28 214v84q0 178 -5.5 232.5t-25.5 79.5q-37 49 -185 49l-10 -2q-33 0 -33 20z" />
<glyph unicode="&#x434;" horiz-adv-x="1335" d="M82 432q0 207 150 350q146 140 356 140q90 0 224 -60q52 -24 91 -42.5t52 -18.5t40 18.5t57 42.5q75 60 110.5 60t65 -26t29.5 -68t-28.5 -69.5t-60.5 -27.5t-52 14q43 8 43 39q0 43 -39 43t-39 -71l9 -750q-16 -243 -176 -397q-157 -152 -390 -156q-128 -4 -238 74 q-118 83 -118 203q0 72 45 116.5t91 44.5t72.5 -12t45.5 -31q41 -41 41 -76q0 -89 -27 -89q-3 0 -16 16q-25 33 -40 33t-32.5 -17.5t-17.5 -47.5t18.5 -60.5t47.5 -54.5q59 -51 149.5 -55.5t156.5 54t105 141.5q70 149 70 318v123q-96 -178 -306 -178q-205 0 -347 135 q-142 137 -142 342zM315 434q0 -195 76 -314q76 -118 211 -118q285 0 285 438q0 236 -71 335t-208 99t-215 -119.5t-78 -320.5z" />
<glyph unicode="&#x435;" horiz-adv-x="1144" d="M82 430q0 219 143.5 355.5t376.5 136.5q172 0 283 -72q131 -84 131 -246q0 -133 -108.5 -224t-240.5 -91t-214 47q-102 59 -103 180q0 61 48 105.5t113 44.5t105.5 -50.5t40.5 -119.5q-25 55 -92 55q-37 0 -64.5 -28.5t-27.5 -65.5q0 -63 58.5 -94.5t135 -31t120 79.5 t43 184.5t-68 187t-196.5 81.5t-205 -113.5t-75.5 -277.5t117 -288t294.5 -124t326 175q16 20 47 45l14 -17q-6 -78 -133 -180q-158 -129 -377 -129t-355 128t-136 347z" />
<glyph unicode="&#x436;" horiz-adv-x="1951" d="M8 143q0 79 54 135q52 54 120.5 54t119 -39t65.5 -100q-35 35 -81 34.5t-80 -34t-34 -79.5t29.5 -82t79.5 -36q78 0 122 88q2 2 17.5 55.5t39.5 122.5q66 187 111 246l-71 78q-131 143 -336 216q-58 21 -92 21t-33 25q0 23 24 22l234 -8l235 6q25 0 25 -24 q0 -12 -17.5 -17.5t-39 -11.5t-39 -16.5t-17.5 -34.5q0 -76 156 -223q82 82 192 105q33 7 62 1v332q0 238 -29 276q-41 49 -186 50l-10 -2q-31 0 -31 22q0 25 178 42l27 3q75 15 209 86q22 12 26 12q20 0 21 -32v-783q103 0 205 -73q32 -23 57 -48q156 147 156 224 q0 25 -17.5 35t-39 16t-39 11t-17.5 18q0 25 25 24l235 -6l234 8q25 0 24 -22q0 -25 -24 -25q-79 0 -218 -73q-130 -67 -219 -164l-71 -78q71 -97 150 -369q16 -53 18 -55q45 -88 122 -88q49 0 79 35.5t30 81.5t-34 80t-80 34t-81 -35q14 61 64.5 100.5t100 39.5t83 -14.5 t58.5 -39.5q53 -56 53 -141.5t-74 -134.5t-199 -49q-217 0 -321 139q-47 66 -113 278l-145 -137q2 -111 33.5 -149.5t109.5 -38.5t78 -23t-33 -24l-323 6l-211 -4q-82 0 -82 21.5t29 25.5q-2 -2 46 -2t76.5 5t45.5 24q26 32 30 167l-145 138q-66 -213 -113 -279 q-104 -139 -321 -139q-125 0 -199 49t-74 141zM731 420l131 -121v301q-53 -21 -70 -43q-26 -32 -61 -137zM1059 291l131 121q-31 99 -51.5 125t-38 35.5t-41.5 19.5v-301z" />
<glyph unicode="&#x437;" horiz-adv-x="1073" d="M92 244q0 63 42 109t107 46t109.5 -38.5t44.5 -89t-24 -83.5q-8 70 -64 70q-70 0 -69 -82q0 -69 84 -124q79 -52 198 -52t200 50t81 142.5t-54 160t-169 83.5q-66 -27 -113 -22.5t-67.5 17.5t-20.5 30.5t13 29t37 16.5q59 12 132 -18q59 -4 115 67q59 74 62 155.5 t-58.5 118t-133 36.5t-125.5 -18.5t-103 -49.5q-101 -66 -150 -167q-20 -45 -38.5 -45t-18.5 20l12 35q18 55 35.5 111.5t31.5 100.5q33 99 50 99q4 0 12 -9t20 -21q33 -29 56.5 -29t52.5 3t61 6q72 7 105 11q121 14 214 -27.5t137 -110t26.5 -149.5t-117.5 -147 q88 -35 128 -86t40 -131t-35 -135t-96 -94q-124 -78 -326 -78q-188 0 -306 78t-118 211z" />
<glyph unicode="&#x438;" horiz-adv-x="1378" d="M20 783.5q0 23.5 30 27.5t56 6q193 25 285 72q53 33 68 33q23 0 22 -41v-678q0 -152 119 -152q94 0 322 144v319q0 154 -48 203q-25 25 -83 33q-47 2 -87.5 5t-39.5 27q0 25 29.5 29t56.5 6q195 25 284 70q47 35 69 35t21 -43v-588q0 -205 80 -234q31 -12 56 -12h55 q22 1 22 -22t-29 -23h-77q-45 2 -80 2l-145 -4q-53 0 -72 49q-8 23 -10 96q-301 -188 -435.5 -188t-172.5 55t-37 193v388q0 77 -48 126q-25 25 -84 33q-47 2 -87 6t-40 27.5z" />
<glyph unicode="&#x439;" horiz-adv-x="1378" d="M20 783.5q0 23.5 30 27.5t56 6q193 25 285 72q53 33 68 33q23 0 22 -41v-678q0 -152 119 -152q94 0 322 144v319q0 154 -48 203q-25 25 -83 33q-47 2 -87.5 5t-39.5 27q0 25 29.5 29t56.5 6q195 25 284 70q47 35 69 35t21 -43v-588q0 -205 80 -234q31 -12 56 -12h55 q22 1 22 -22t-29 -23h-77q-45 2 -80 2l-145 -4q-53 0 -72 49q-8 23 -10 96q-301 -188 -435.5 -188t-172.5 55t-37 193v388q0 77 -48 126q-25 25 -84 33q-47 2 -87 6t-40 27.5zM459 1273q0 85 42 133t100 48t91 -34t33 -82t-28.5 -80.5t-55 -32.5t-31.5 2q27 25 27 50.5 t-14.5 41.5t-39 16t-43 -24.5t-18.5 -57.5t13.5 -61.5t34.5 -51.5q49 -53 112 -57t113.5 21.5t82.5 71.5q69 100 29 239l58 39q18 -59 16 -133t-31 -137q-70 -150 -252 -150q-100 0 -172 79q-67 75 -67 160z" />
<glyph unicode="&#x43a;" horiz-adv-x="1511" d="M61 297q0 299 330 358v332q0 238 -29 277q-39 49 -186 49l-4 -2h-6q-31 0 -31 20t29 23q139 18 205.5 31t130 52.5t75.5 39.5q20 0 21 -33v-782q66 0 140.5 -36t121.5 -85q156 147 156 223q0 45 -56.5 53t-56.5 27q0 25 25 24l235 -6l234 8q25 0 24 -22q0 -25 -24 -25 q-98 0 -226.5 -76t-210.5 -161l-71 -78q57 -76 106 -236.5t62 -187.5q45 -88 123 -88q49 0 78.5 36t29.5 82t-33.5 79.5t-81.5 33.5q-47 0 -79 -34q14 61 64 100t119 39t122 -55.5t53 -143.5t-80 -134t-192 -46q-217 0 -322 139q-49 68 -113 279l-145 -138q4 -98 27 -135 q29 -53 111.5 -53t82.5 -21t-33 -26q6 2 -49 2l-274 4l-211 -4q-82 0 -82 21.5t29 25.5q-2 -2 58.5 -2t89 27.5t36.5 88t8 150.5v297q-186 -41 -186 -219q0 -41 53 -79t53 -86t-32.5 -77.5t-88 -29.5t-92.5 55t-37 125zM596 299l131 121q-27 84 -43 108q-31 51 -88 72v-301z " />
<glyph unicode="&#x43b;" horiz-adv-x="1259" d="M39 194.5q0 73.5 40 113.5t91 40q141 0 141 -121v-22q-41 37 -57 37q-51 0 -51 -64t49 -96q49 -40 94 -33q218 42 246 275q13 106 2.5 228t-14.5 181q16 107 113 157q89 45 233 32q109 0 112 -129v-145q0 -128 3 -230.5t4.5 -138t3.5 -81.5q4 -96 36.5 -129.5 t124.5 -33.5q18 0 11.5 -24t-35.5 -23q-90 1 -164.5 3.5t-124 0.5t-90.5 -4t-90 -2h-86q-18 0 -13 22q8 25 31 25q105 0 170 39l12 794q-27 20 -63.5 13t-69.5 -33q-79 -62 -71 -156q34 -393 -43 -534q-45 -86 -118 -126t-210 -40q-72 0 -144.5 65.5t-72.5 139z" />
<glyph unicode="&#x43c;" horiz-adv-x="1824" d="M24.5 194.5q0.5 73.5 40 113.5t91.5 40q141 0 141 -121v-22q-41 37 -57 37q-51 0 -51.5 -64t49.5 -96q49 -40 94 -33q221 42 246 275q14 117 1.5 233.5t-14.5 175.5q15 103 145 157q113 45 263 32q53 0 94 -32t43 -97v-74q38 108 131 167q101 63 234 40q145 -13 141 -135 l2 -420l2 -160q9 -109 29 -133q33 -45 129 -45q27 0 15.5 -24t-36.5 -23l-393 8l-2 842q-114 66 -206 -101q-26 -47 -48 -98l-2 -426q15 -140 -90 -199q-45 -26 -97.5 -28t-93.5 18q-96 48 -55 160q8 18 37 92t76 170l-2 293l-2 133q-27 20 -74 16t-92 -27.5t-76 -61.5 t-25 -87q27 -262 17 -345q-15 -114 -59 -198t-117.5 -120.5t-210.5 -36.5q-72 0 -145 65.5t-72.5 139zM806 94q7 -41 23.5 -54t35 9.5t20.5 97.5l-2 172q-47 -91 -65.5 -137.5t-11.5 -87.5z" />
<glyph unicode="&#x43d;" horiz-adv-x="1316" d="M20 782q0 27 37 33q31 0 60 2q193 27 265 66t77 39q23 0 22 -43v-310l393 -2q-12 113 -47 151t-172 38h-4q-33 4 -33 26q0 27 37 33q31 0 60 2q193 27 265 66t77 39q23 0 22 -39l4 -592q0 -201 82 -234q29 -12 107 -12q25 0 24 -22q0 -23 -24 -23l-252 6l-270 -6 q-25 0 -25 23t25 22q76 0 103.5 22.5t27.5 89t-2 253.5h-398v-119q0 -207 54 -234q23 -12 96 -12q23 0 22.5 -23.5t-22.5 -23.5l-252 8l-293 -8q-23 0 -23 24t23 23q88 0 117 10q53 16 69 99q4 35 4 133l3 233q0 147 -42.5 191.5t-179.5 44.5h-4q-33 4 -33 26zM481 461 l398 -6v26q0 18 -2 35l-396 2v-57z" />
<glyph unicode="&#x43e;" horiz-adv-x="1157" d="M82 438q0 211 143 346t353.5 135.5t353.5 -138t143 -348.5t-141 -345q-143 -133 -355 -133t-356 135q-141 137 -141 348zM315.5 438q-0.5 -436 264 -436t264.5 436.5t-262 435.5q-266 0 -266.5 -436z" />
<glyph unicode="&#x43f;" horiz-adv-x="1316" d="M20 782q0 27 37 33q31 0 60 2q193 27 265 66t77 39q23 0 22 -43v-144q272 186 400 187q203 0 202 -211v-420q0 -201 82 -234q29 -12 107 -12q24 1 24 -22t-24 -23l-252 6l-270 -6q-25 0 -25 23t25 22q76 0 103.5 22.5t27.5 101.5v241q-2 160 -2 239q0 164 -115 164 q-102 0 -283 -127v-395q0 -207 54 -234q23 -12 96 -12q23 0 22.5 -23.5t-22.5 -23.5l-252 8l-293 -8q-23 0 -23 24t23 23q88 0 117 10q53 16 69 99q4 35 4 133l3 233q0 147 -42.5 191.5t-179.5 44.5h-4q-33 4 -33 26z" />
<glyph unicode="&#x440;" horiz-adv-x="1345" d="M20 -523q0 24 25 23q141 0 168 15q59 33 59 180v794q0 158 -28.5 208.5t-118.5 50.5q-53 0 -65.5 3t-12.5 17q0 20 27 23l37 2q152 8 321 118q16 10 25 11q20 0 20 -35v-135q96 170 307.5 170t345.5 -135.5t134 -344.5t-134.5 -348t-340 -139t-312.5 172v-387 q0 -178 58 -219q31 -20 174 -21q25 0 24 -24q0 -23 -24 -23l-332 8l-332 -8q-25 0 -25 24zM477 346q31 -344 273 -344q129 0 204.5 119.5t75.5 319.5t-74.5 316.5t-203.5 116.5q-70 0 -132 -38q-124 -74 -143 -289v-201z" />
<glyph unicode="&#x441;" horiz-adv-x="1132" d="M82 428q0 225 156 358.5t391 133.5q123 0 229 -46q135 -61 135 -165q0 -51 -39 -83t-90 -32q-102 0 -119 115q0 20 -4 61q-18 104 -137 104q-154 0 -233 -120q-70 -104 -70 -281t92 -295q100 -133 287 -133q63 0 140 37t77 94q0 82 -68 82q-55 0 -65 -70q-23 31 -23 82.5 t45 98.5t112 47t110 -48t43 -116q0 -147 -166 -232q-135 -66 -299 -65q-219 0 -361.5 124t-142.5 349z" />
<glyph unicode="&#x442;" horiz-adv-x="1906" d="M20 782q0 27 34 31t63 6q190 23 262.5 63t79.5 40q23 0 22 -41v-146q272 186 400 187q182 0 200 -181q268 180 376.5 180.5t162 -56t53.5 -154.5v-420q0 -201 82 -234q29 -12 107 -12q24 1 24 -23t-24 -24l-252 8l-250 -8q-25 0 -25 24t25 23q74 0 92 31t18 112l-2 461 q0 164 -114 164q-96 0 -271 -119v-461q0 -154 43 -176q10 -6 59.5 -10t49.5 -25.5t-23 -21.5l-192 6l-229 -6q-25 0 -25 23t25 22q51 0 69 41q19 40 19 174v391q0 162 -113 162q-104 0 -285 -127v-438q0 -168 58 -193q10 -4 62 -8t52 -25.5t-22 -21.5l-252 6l-293 -6 q-23 0 -23 23t23 22q88 0 117 10q55 16 69 101q4 33 4 131l3 233q0 150 -48 197q-25 27 -78 31t-93 8t-40 26z" />
<glyph unicode="&#x443;" horiz-adv-x="1343" d="M41 782q0 35 67 35q64 0 142 19q119 28 167 57t62 29q23 0 23 -41v-678q0 -152 119 -152q74 0 319 142l-16 579q17 0 107.5 55.5t135.5 81t75 25.5t59.5 -25.5t29.5 -67.5t-28.5 -70t-60.5 -28t-52 15q43 8 43 39q0 43 -39 43t-39 -72l8 -762q-16 -244 -175 -397 q-158 -152 -390 -156q-128 -4 -238 74q-118 83 -118 203q0 72 45 116.5t91 44.5t72.5 -12t45.5 -31q41 -41 41 -76t-7.5 -62t-19.5 -27q-2 0 -16 16q-27 33 -41 33t-32 -17.5t-18 -47.5t18.5 -60.5t47.5 -54.5q61 -52 151 -56t156 54.5t105 141.5q69 147 69 318v129 q-288 -184 -450 -184q-131 0 -170 68q-31 49 -31 180v350q0 117 -47 164q-33 29 -122 35t-89 30z" />
<glyph unicode="&#x444;" horiz-adv-x="1902" d="M29 440q0 209 149 346q147 141 357 142q117 0 235 -66q25 -14 35 -14t14 6t6 13t9 7q2 66 7 155t1 166t-21.5 124t-60.5 27q-18 -8 -29.5 -14.5t-11.5 -28.5q0 -31 43 -39q-20 -14 -52 -14.5t-57.5 27.5t-25.5 69t26.5 67.5t59.5 26.5t63.5 -9.5t59.5 -26.5 q73 -44 94 -89q59 76 146 122t185.5 46t193.5 -39t95 -125q0 -102 -114 -102q-84 0 -115 57l-31 104q-16 55 -67 56q-72 0 -127 -74q-53 -78 -54 -262l-6 -146v-78q6 0 8.5 -7t6.5 -13t14 -6t35 14q121 66 241 66q209 0 357 -142q150 -137 149.5 -346t-141.5 -344t-355 -135 t-309 178l2 -364q0 -190 76 -221q27 -12 154 -13q25 0 24 -22q0 -23 -26 -23h-68l-262 6l-262 -6h-70q-25 0 -24 23q0 23 39 24q-14 -2 0 -2h55q57 0 90 14.5t53.5 65.5t16.5 141l-6 377q-93 -178 -308 -178t-356 135t-141 344zM262.5 443q-0.5 -171 59.5 -285 q74 -150 227 -150q285 0 285 438q0 197 -46 289q-72 145 -230.5 145.5t-233.5 -149.5q-61 -117 -61.5 -288zM1042 446q0 -438 285 -438q154 0 227 150q59 115 59.5 285.5t-61.5 287.5q-76 150 -234.5 150t-230.5 -146q-45 -92 -45 -289z" />
<glyph unicode="&#x445;" horiz-adv-x="1325" d="M41 19.5q0 23.5 25 23.5q113 0 278 131q47 37 231 213l-174 211q-20 27 -59 82q-123 162 -244 162q-25 0 -24 22q0 23 24 23l230 -6l272 6q25 0 25 -21.5t-47.5 -28t-47.5 -36.5q0 -56 193 -273l104 97q76 74 76 137q0 78 -112 78q-23 0 -23 23.5t23 23.5l235 -6l234 8 q24 0 24 -24t-24 -23q-113 0 -279 -131q-47 -37 -231 -213l174 -211q63 -80 127 -160q80 -84 176 -84q25 0 24 -23q0 -23 -24 -22l-232 6l-270 -6q-25 0 -25 21t47.5 27.5t47.5 37.5q0 39 -68.5 124t-124.5 148l-104 -96q-76 -74 -76 -137q0 -78 113 -78q23 0 22.5 -23.5 t-22.5 -23.5l-236 6l-233 -8q-25 0 -25 23.5z" />
<glyph unicode="&#x446;" horiz-adv-x="1378" d="M20 783.5q0 25.5 28 27.5t91 9q149 17 252 69q16 10 33.5 22.5t34.5 10.5q23 0 22 -41v-678q0 -152 119 -152q96 0 322 144v319q0 153 -44 196q-24 25 -68 33.5t-114 12.5q-33 2 -32 26q0 27 27.5 29t92.5 9q151 16 250 67q47 35 69 35t21 -43v-588q0 -141 35 -193.5 t101 -52.5l73 -31h-6l-8 2q-53 -18 -79 -66t-26 -93q0 -63 5 -176q-4 -72 -66 -131q-66 -62 -160 -62q-119 0 -251 94q-74 51 -74 86q0 25 34 2q98 -73 162 -73q57 0 133 45q71 36 119 189q45 143 166 181l-37 -12l-94 2l-145 -4q-45 0 -61.5 26.5t-20.5 118.5 q-303 -188 -445 -188q-116 0 -157 47q-43 50 -43 201v387q0 85 -45 120q-50 38 -181 46q-33 2 -33 27.5z" />
<glyph unicode="&#x447;" horiz-adv-x="1378" d="M20 782q0 33 60 33q12 0 26 2q188 25 285 72q53 33 68 33q23 0 22 -41v-443q0 -152 119 -151q96 0 322 143q-2 33 -1 75t0 84q-2 99 -20 120.5t-50 28.5t-57.5 10.5t-50 4.5t-52.5 3t-27 26q0 33 58 33q13 0 28 2q199 25 284 70q47 35 69 35t21 -43v-588q0 -207 80 -234 q31 -12 56 -12h55q23 0 22 -22q0 -23 -24 -23h-82q-23 2 -43 2h-37l-145 -4q-71 0 -78 84q-2 24 -4 61v236q-303 -188 -436.5 -188.5t-176.5 61.5q-33 47 -32 186v125q0 39 -12.5 84t-35.5 69t-65 30t-66 7t-52 3t-28 26z" />
<glyph unicode="&#x448;" horiz-adv-x="2000" d="M29 786q0 33 59 33q12 0 27 2q188 25 284 72q53 33 68 33q23 0 22 -41v-678q0 -152 119 -152q96 0 322 144v395q0 76 -47 127q-32 32 -131 36q-25 1 -52.5 3t-27.5 26q0 33 59 33q12 0 27 2q188 25 284 72q53 33 68 33q23 0 23 -41v-678q0 -152 118 -152q96 0 322 144 v319q0 152 -47 203q-32 32 -132 36q-24 1 -51.5 3t-27.5 26q0 33 59 33q12 0 27 2q199 25 285 70q47 35 68.5 35t21.5 -43v-588q0 -207 79 -234q31 -12 56 -12h55q23 0 23 -22q0 -23 -25 -23h-82q-23 2 -43 2h-37l-145 -4q-71 0 -78 84q-2 25 -4 61q-303 -188 -436.5 -188 t-175.5 61q-8 12 -14.5 21.5t-9.5 22.5q-7 29 -7 83q-303 -188 -436.5 -188t-171.5 54t-37 194v387q0 76 -47 127q-32 32 -132 36q-24 1 -52 3t-27 26z" />
<glyph unicode="&#x449;" horiz-adv-x="2000" d="M29 786q0 33 59 33q12 0 27 2q188 25 284 72q53 33 68 33q23 0 22 -41v-678q0 -152 119 -152q96 0 322 144v395q0 76 -47 127q-32 32 -131 36q-25 1 -52.5 3t-27.5 26q0 33 59 33q12 0 27 2q188 25 284 72q53 33 68 33q23 0 23 -41v-678q0 -152 118 -152q96 0 322 144 v319q0 152 -47 203q-32 32 -132 36q-24 1 -51.5 3t-27.5 26q0 33 59 33q12 0 27 2q199 25 285 70q47 35 68.5 35t21.5 -43v-588q0 -207 79 -234l132 -43h-7l-8 2q-53 -18 -78.5 -66t-25.5 -93q0 -86 4 -176q-4 -71 -66 -131q-64 -62 -159 -62q-120 0 -253 94q-73 51 -73 86 q0 25 35 2q98 -73 162 -73q57 0 133 45q35 18 55 49t35.5 66.5t28 73.5t32.5 73q48 81 133 108l-37 -12l-96 2l-145 -4q-71 0 -78 84q-2 25 -4 61q-303 -188 -436.5 -188t-175.5 61q-8 12 -14.5 21.5t-9.5 22.5q-7 29 -7 83q-303 -188 -436.5 -188t-171.5 54t-37 194v387 q0 76 -47 127q-32 32 -132 36q-24 1 -52 3t-27 26z" />
<glyph unicode="&#x44a;" horiz-adv-x="1296" d="M14 474q0 30 16.5 50.5t47.5 20.5t31 -25q0 -2 -7.5 -4t-15.5 -6q-23 -12 -23 -31q0 -33 33 -33q39 0 58.5 88.5t19.5 130t-1 68.5t-3 55q-4 56 -12 80t-8 34.5t12 10.5h471q23 0 22 -41l-4 -585q0 -132 16.5 -168.5t40 -51t60.5 -20.5h88q98 0 156.5 49t58.5 166 q0 156 -99 216q-32 20 -57.5 21t-47 -5.5t-31.5 -8.5q-59 -16 -105.5 7.5t-55.5 61.5t15 71q43 68 111 34q51 -27 26 -63q-16 -27 -45 -11.5t-14 42.5l8 8q-33 0 -49 -25q-31 -49 21 -75q33 -16 75 -3q19 0 74 16q61 17 92 30q155 -8 223 -99q68 -89 45 -221q-4 -16 -13 -58 t-42 -85q-85 -111 -272 -111h-29q-6 -8 -20 -8l-332 6l-332 -6q-25 0 -24 22q0 23 32 25v-2h56q97 0 129 45q36 49 36 197l3 256q0 53 1 115.5t-10 111.5q-27 113 -135 88q6 -97 -83 -289q-71 -157 -134 -157q-31 0 -52.5 18t-21.5 48z" />
<glyph unicode="&#x44b;" horiz-adv-x="1761" d="M39 18q0 23 33 25v-2h55q98 0 130 45q36 51 36 197l2 233q2 109 -18.5 171.5t-98.5 78.5q-33 13 -72 20q-65 11 -65 21q0 27 27.5 29t91 9t135.5 9t103 20q66 41 81 41q23 0 23 -41l-4 -587q0 -132 16 -168.5t40 -51t60 -20.5h88q98 0 157 49t59 166q0 97 -46 164 q-49 72 -127 72q-10 2 -31.5 -4.5t-31.5 -8.5q-59 -16 -105.5 7.5t-55.5 61.5t16 71q43 68 110 34q51 -27 31 -58.5t-49 -16t-15 42.5q4 4 9 8q-33 0 -50 -25q-31 -49 21 -75q33 -17 76 -3q17 0 73 16q62 17 93 30q153 -8 223 -99q66 -86 45 -221q-4 -16 -13.5 -58 t-42.5 -85q-83 -111 -272 -111h-28q-6 -8 -21 -8l-332 6l-332 -6q-25 0 -24 22zM1024 815q0 27 27.5 29t91 9t135.5 9t102.5 20.5t49 30t32.5 11.5q23 0 23 -41v-609q0 -84 8 -132t32.5 -73.5t69.5 -32.5t119 -7q25 0 25 -23t-25 -22l-332 6l-331 -6q-25 0 -25 21t37 26 q-4 0 -4 -2h55q98 0 130 45q36 48 36 196l2 234q0 145 -23.5 190t-58.5 65.5t-105.5 24.5t-70.5 31z" />
<glyph unicode="&#x44c;" horiz-adv-x="1153" d="M39 18q0 23 33 25v-2h55q98 0 130 45q36 51 36 197l2 233q2 109 -18.5 171.5t-98.5 78.5q-33 13 -72 20q-65 11 -65 21q0 27 27.5 29t91 9t135.5 9t103 20q66 41 81 41q23 0 23 -41l-4 -587q0 -132 16 -168.5t40 -51t60 -20.5h88q98 0 157 49t59 166q0 97 -46 164 q-49 72 -127 72q-10 2 -31.5 -4.5t-31.5 -8.5q-59 -16 -105.5 7.5t-55.5 61.5t16 71q43 68 110 34q51 -27 31 -58.5t-49 -16t-15 42.5q4 4 9 8q-33 0 -50 -25q-31 -49 21 -75q33 -17 76 -3q17 0 73 16q62 17 93 30q153 -8 223 -99q66 -86 45 -221q-4 -16 -13.5 -58 t-42.5 -85q-83 -111 -272 -111h-28q-6 -8 -21 -8l-332 6l-332 -6q-25 0 -24 22z" />
<glyph unicode="&#x44d;" horiz-adv-x="1132" d="M80 252q0 68 43 116t109.5 48t111.5 -47t45 -98.5t-22 -82.5q-10 70 -66 70q-68 0 -68 -82q0 -57 77 -94t141 -37q186 0 286 133q76 98 88 248h-397q-16 0 -29 16l-24 39q-10 18 6 19h448q-2 152 -69 254q-80 121 -234 120q-119 0 -137 -104q-4 -41 -4 -61 q-16 -115 -119 -115q-51 0 -90 31.5t-39 83.5q0 104 135 165q106 45 230 46q236 0 377 -121t163 -299h5v-43q2 -18 2 -37q0 -217 -142.5 -341t-361.5 -124q-164 0 -299 65q-166 85 -166 232z" />
<glyph unicode="&#x44e;" horiz-adv-x="1818" d="M20 782q0 27 37 33q31 0 60 2q193 27 265 66t77 39q23 0 22 -43v-310l285 -2q31 127 129 219q143 135 353 135.5t353.5 -138t143.5 -348.5t-141 -345q-143 -133 -355.5 -133t-349.5 131t-147 322h-271v-119q0 -207 54 -234q23 -12 96 -12q23 0 22.5 -23.5t-22.5 -23.5 l-252 8l-293 -8q-23 0 -23 24t23 23q88 0 117 10q53 16 69 99q4 35 4 133l3 233q0 147 -42.5 191.5t-179.5 44.5h-4q-33 4 -33 26zM481 461l271 -4q0 31 4 59l-275 2v-57zM985 440.5q0 -436.5 264 -436.5t264 436.5t-264 436.5t-264 -436.5z" />
<glyph unicode="&#x44f;" horiz-adv-x="1363" d="M11 71.5q5 51.5 47 80t93.5 23.5t85 -30.5t42.5 -64.5q-68 56 -119 14q-25 -22 -29 -50t14.5 -50.5t53.5 -24.5q92 16 163 126q29 46 55.5 98.5t64.5 98.5q89 107 225 124l-101 -6q-142 -12 -228 74q-114 114 -46 274q44 103 172 152q71 28 182 16q49 -6 103.5 -37 t97.5 -82q32 115 205 115q88 0 150.5 -47.5t62.5 -133.5q0 -27 -23 -26q-6 0 -14 16.5t-22 35.5q-36 52 -75 52q-84 0 -84 -147v-189q165 13 183 -65q6 -37 -15.5 -70t-56.5 -41q-63 -12 -70 39q-10 47 37 57q25 0 43 -6q20 6 15 27q-8 27 -136 18v-51q-6 -154 -0.5 -227.5 t28 -100t66.5 -22.5t117 4q25 0 25 -22q0 -23 -25 -23l-309 6l-311 -6q-25 0 -25 23t33 24v-2h55q87 0 109 25q37 43 37 172v78q0 26 -1 52.5t-1 45.5q-78 -15 -110 -31q-65 -33 -122 -117q-135 -280 -327 -322q-62 -14 -141.5 -6.5t-129 43t-44.5 87zM505 596q9 -41 31 -72 q46 -69 130 -73q171 0 219 14l2 231l-4 39q-2 6 -2 19q-47 55 -106.5 77.5t-116 13.5t-99.5 -50t-53 -99.5t-1 -99.5z" />
<glyph unicode="&#x451;" horiz-adv-x="1144" d="M82 422q0 209 157.5 354.5t387.5 145.5q150 0 259 -86t109 -216.5t-96 -230.5t-243.5 -100t-236.5 58t-89 169q0 57 45 103.5t112 46.5q137 0 150 -170q-29 55 -92 55q-37 0 -64.5 -28.5t-27.5 -65.5q0 -66 53 -96t125 -29.5t125 74t53 174.5q0 141 -109 223 q-82 63 -170.5 63t-156.5 -75q-88 -98 -88 -281t98 -303q115 -145 313 -146q94 0 188.5 52.5t151.5 136.5q20 31 33.5 30.5t13.5 -16.5q0 -66 -133 -174q-166 -135 -383 -135t-351 129t-134 338zM264 1156q0 52 37 88t90 36t90 -36t37 -88t-37 -89t-89 -37t-90 37t-38 89z M670 1157q0 51 36.5 87t90.5 36q53 0 90 -37t37 -88t-37 -88t-89 -37t-90 38t-38 89z" />
<glyph unicode="&#x454;" horiz-adv-x="1132" d="M78 420q0 18 2 37v43h4q23 178 154 291q152 129 387 129q123 0 229 -46q135 -61 135 -165q0 -51 -39 -83t-90 -32q-102 0 -119 115q0 20 -4 61q-18 104 -137 104q-154 0 -233 -120q-68 -102 -70 -254h448q16 0 7 -19l-25 -39q-12 -16 -29 -16h-397q12 -150 88 -248 q100 -133 287 -133q63 0 140 37t77 94q0 82 -68 82q-55 0 -65 -70q-23 31 -23 82.5t45 98.5t112 47t110 -48t43 -116q0 -147 -166 -232q-135 -66 -299 -65q-219 0 -361.5 124t-142.5 341z" />
<glyph unicode="&#x455;" horiz-adv-x="2058" d="M27 311q0 82 50 139.5t131 57.5t134 -56.5t53 -136.5q0 -39 -26 -79q-16 82 -76 81q-84 0 -84 -97t117 -159q96 -51 204 -51q272 0 460 181.5t186 451.5v8q-25 -2 -52 -2q-186 0 -307 103.5t-121 287.5q0 238 195 357q162 100 401.5 100t413.5 -104q207 -123 207 -334 q0 -78 -45 -139.5t-119 -71.5q106 -8 106 -43q0 -18 -36 -34.5t-64 -29.5q-31 -20 -31 -153v-236q0 -139 35 -207q47 -94 176 -94l52 4q29 0 28 -28q0 -27 -28 -27l-375 4l-375 -4q-29 0 -29 28t29 27l51 -4q209 0 209 236v620q0 43 24 43t58 -28q-35 49 -35 108t31 111 q20 -94 82 -94q37 0 60.5 31.5t23.5 68.5q0 137 -124 216t-271 79q-209 0 -302.5 -103.5t-93.5 -312.5q0 -131 51 -217q61 -104 171 -104t185 84.5t75 191.5q0 39 -30 75t-69 36q-63 0 -63 -66q0 -35 30 -51q-2 6 -2 12q0 35 35 35t35 -35q0 -49 -61 -49q-80 0 -80 92 q0 45 29.5 79t85 34t99.5 -47t44 -133t-66 -177q6 -59 6 -114q0 -377 -264 -559q-227 -156 -620 -156q-188 0 -336 82q-178 100 -178 272z" />
<glyph unicode="&#x456;" horiz-adv-x="796" d="M41 781.5q0 25.5 30 29.5t56 6q193 23 285 72q53 33 67 33q23 0 23 -41v-590q0 -203 80 -234q31 -12 149 -12q25 1 25 -22t-25 -23l-332 6l-331 -6q-25 0 -25 21.5t37 25.5q-20 -2 47 -2t94 12q76 31 76 230l2 233q0 147 -47 197q-29 29 -120 34t-91 30.5zM233 1117 q0 56 39 95t95 39q55 0 94 -40t39 -96t-38 -97t-94 -41t-95.5 42t-39.5 98z" />
<glyph unicode="&#x457;" horiz-adv-x="839" d="M61 1156q0 52 37 88t90 36t90 -36t37 -88t-36.5 -89t-89 -37t-90.5 37t-38 89zM63 782q0 27 29 31q51 0 167 23t175 53q47 33 69 33t21 -41v-590q0 -180 58 -221q31 -25 172 -25q24 1 24 -23t-24 -22l-332 6l-332 -6q-25 -2 -24 23q0 23 24 22q143 0 174 23q55 41 55 219 l3 227q0 154 -42.5 198t-183.5 44q-33 0 -33 26zM467 1157q0 51 37 87t90 36t90 -37t37 -88t-37 -88t-89 -37t-90 38t-38 89z" />
<glyph unicode="&#x2000;" horiz-adv-x="992" />
<glyph unicode="&#x2001;" horiz-adv-x="1984" />
<glyph unicode="&#x2002;" horiz-adv-x="992" />
<glyph unicode="&#x2003;" horiz-adv-x="1984" />
<glyph unicode="&#x2004;" horiz-adv-x="661" />
<glyph unicode="&#x2005;" horiz-adv-x="496" />
<glyph unicode="&#x2006;" horiz-adv-x="330" />
<glyph unicode="&#x2007;" horiz-adv-x="330" />
<glyph unicode="&#x2008;" horiz-adv-x="248" />
<glyph unicode="&#x2009;" horiz-adv-x="396" />
<glyph unicode="&#x200a;" horiz-adv-x="110" />
<glyph unicode="&#x2010;" horiz-adv-x="698" d="M123 414v8l6 24q10 45 37 46h379q30 -1 30 -19l-6 -37q-6 -29 -13 -35t-32 -6h-374q-27 0 -27 19z" />
<glyph unicode="&#x2011;" horiz-adv-x="698" d="M123 414v8l6 24q10 45 37 46h379q30 -1 30 -19l-6 -37q-6 -29 -13 -35t-32 -6h-374q-27 0 -27 19z" />
<glyph unicode="&#x2012;" horiz-adv-x="698" d="M123 414v8l6 24q10 45 37 46h379q30 -1 30 -19l-6 -37q-6 -29 -13 -35t-32 -6h-374q-27 0 -27 19z" />
<glyph unicode="&#x2013;" horiz-adv-x="1058" d="M82 414v8l6 24q10 45 37 46h821q31 -1 31 -19q-2 -2 -7 -34t-12.5 -38t-31.5 -6h-817q-27 0 -27 19z" />
<glyph unicode="&#x2014;" horiz-adv-x="1605" d="M164 414v8l6 24q10 45 37 46h1204q31 -1 31 -19l-6 -37q-6 -29 -13.5 -35t-33.5 -6h-1199q-27 0 -26 19z" />
<glyph unicode="&#x2018;" horiz-adv-x="514" d="M123 1120q0 193 188 330q25 18 45 18t21 -18q0 -18 -37 -46t-82 -102.5t-45 -118.5t29 -44q10 0 34 12q23 6 39 6q49 0 83 -34t34 -87t-39 -92t-103.5 -39t-115.5 62.5t-51 152.5z" />
<glyph unicode="&#x2019;" horiz-adv-x="514" d="M82 1317q0 53 39 92t103.5 39t115.5 -62.5t51 -152.5q0 -193 -188 -330q-25 -18 -45 -18t-21 18q0 18 46 51t82 107.5t36 114t-29 38.5q-7 0 -29.5 -9t-57.5 -9t-69 34t-34 87z" />
<glyph unicode="&#x201a;" horiz-adv-x="538" d="M115 88q0 53 39 91t103.5 38t115.5 -62.5t51 -152.5q0 -190 -188 -328q-29 -20 -47.5 -20t-18.5 19t38 46t82 102t44 120t-29 45q-4 0 -16 -4l-19 -9q-25 -8 -39 -8q-49 0 -82.5 35t-33.5 88z" />
<glyph unicode="&#x201c;" horiz-adv-x="923" d="M123 1120q0 193 188 330q25 18 45 18t21 -18q0 -18 -37 -46t-82 -102.5t-45 -118.5t29 -44q10 0 34 12q23 6 39 6q49 0 83 -34t34 -87t-39 -92t-103.5 -39t-115.5 62.5t-51 152.5zM532 1120q0 193 189 330q25 18 45 18t20 -18t-36.5 -46t-81.5 -102.5t-45 -118.5t28 -44 q11 0 35 12q23 6 39 6q49 0 83 -34t34 -87t-39 -92t-103.5 -39t-116 62.5t-51.5 152.5z" />
<glyph unicode="&#x201d;" horiz-adv-x="923" d="M82 1317q0 53 39 92t103.5 39t115.5 -62.5t51 -152.5q0 -193 -188 -330q-25 -18 -45 -18t-21 18q0 18 46 51t82 107.5t36 114t-29 38.5q-7 0 -29.5 -9t-57.5 -9t-69 34t-34 87zM492 1317q0 53 38.5 92t103.5 39t116 -62.5t51 -152.5q0 -193 -189 -330q-25 -18 -45 -18 t-20 18t46 51t82 107.5t36 114t-29 38.5q-4 0 -16 -4l-19 -8q-18 -6 -53 -6t-68.5 34t-33.5 87z" />
<glyph unicode="&#x201e;" horiz-adv-x="948" d="M115 88q0 53 39 91t103.5 38t115.5 -62.5t51 -152.5q0 -190 -188 -328q-29 -20 -47.5 -20t-18.5 19t38 46t82 102t44 120t-29 45q-4 0 -16 -4l-19 -9q-25 -8 -39 -8q-49 0 -82.5 35t-33.5 88zM524 88q0 53 39 91t103.5 38t116 -62.5t51.5 -152.5q0 -190 -189 -328 q-29 -20 -47 -20t-18 19t37.5 46t81.5 102t44 120t-28 45q-9 0 -35 -13q-25 -8 -39 -8q-49 0 -83 35t-34 88z" />
<glyph unicode="&#x2020;" horiz-adv-x="1064" d="M164 880.5q0 94.5 100 94.5q53 0 122 -35t126 -41v21q0 96 -27 159l-39 95q-53 125 8 196q31 37 79 37t79 -37t31 -89t-22 -107l-39 -95q-27 -63 -27 -159v-21q55 6 126.5 41t117.5 35q102 0 102 -94t-100 -95q-43 0 -92 23l-68 31q-45 20 -86 22q0 -143 109 -289 q-74 -169 -93 -485q-10 -156 -10 -516h-57q0 391 -9 527q-21 315 -92 474q109 147 109 279v10q-45 -2 -88 -22l-66 -31q-47 -23 -92 -23q-102 0 -102 94.5z" />
<glyph unicode="&#x2021;" horiz-adv-x="1064" d="M164 84q0 90 102 90q45 0 92 -22l66 -31q33 -16 88 -23v13q0 178 -109 381q109 186 109 358v12q-49 -4 -88 -22l-66 -31q-47 -23 -92 -23q-102 0 -102 94.5t100 94.5q53 0 122 -35t126 -41v21q0 96 -27 159l-39 95q-53 125 8 196q31 37 79 37t79 -37t31 -89t-22 -107 l-39 -95q-27 -63 -27 -159v-21q55 6 126.5 41t117.5 35q102 0 102 -94t-100 -95q-43 0 -92 23l-68 31q-39 18 -86 22q0 -182 109 -370q-109 -201 -109 -379v-15q49 4 88 23l66 31q47 23 92 22q100 0 100 -94t-98 -94q-51 0 -122 35t-126 40v-28q0 -109 27 -174l39 -97 q52 -125 -9 -195q-32 -36 -80 -36q-47 0 -78.5 36t-31.5 85t24 110l39 97q27 66 27 174v28q-41 -4 -55.5 -8t-75.5 -35.5t-115 -31.5q-102 0 -102 98z" />
<glyph unicode="&#x2022;" horiz-adv-x="829" d="M154 708q0 114 75.5 180t187.5 66t185.5 -69t73.5 -182t-73 -178.5t-187 -65.5q-115 0 -188.5 67.5t-73.5 181.5z" />
<glyph unicode="&#x2026;" horiz-adv-x="1265" d="M96 95q0 56 38 96t94 40t95 -41t39 -97t-37.5 -97t-94 -41t-95.5 42t-39 98zM496 95q0 56 37.5 96t94 40t95.5 -41t39 -97t-38 -97t-94 -41t-95 42t-39 98zM879 95q0 56 37.5 96t94 40t95.5 -41t39 -97t-38 -97t-94 -41t-95 42t-39 98z" />
<glyph unicode="&#x202f;" horiz-adv-x="396" />
<glyph unicode="&#x2030;" horiz-adv-x="2058" d="M29 27q0 29 28 28l52 -4q129 0 176 94q35 68 34 207v236q0 133 -30 153q-29 12 -65 28.5t-36 35.5q0 35 107 43q-74 10 -119 71.5t-45 139.5q0 211 207 334q174 104 413.5 104t401.5 -100q195 -119 195 -357q0 -184 -121 -287t-307 -104q-27 0 -52 2v-8 q-2 -270 185.5 -451.5t459.5 -181.5q109 0 205 51q117 61 117 158.5t-84 97.5q-59 0 -76 -81q-27 41 -26 79q0 80 53 136.5t134 56.5t131 -57.5t50 -139.5q0 -172 -178 -272q-147 -82 -336 -82q-393 0 -620 156q-264 182 -265 559q0 55 7 114q-66 90 -66 176.5t44 133.5 t99.5 47t85 -34t29.5 -79q0 -92 -80 -92q-61 0 -61 49q0 35 35 35t34 -35q0 -6 -2 -12q31 16 31 51q0 66 -63 66q-39 0 -69 -36t-30 -75q0 -106 75 -191t184.5 -85t170.5 104q51 86 52 217q0 209 -93.5 312.5t-302.5 103.5q-147 0 -271 -79t-124 -216q0 -37 23.5 -68.5 t60.5 -31.5q61 0 82 94q31 -51 31 -110.5t-35 -108.5q35 29 59 28q23 0 23 -43v-620q0 -236 209 -236l51 4q29 0 29 -27.5t-29 -27.5l-375 4l-375 -4q-29 0 -28 27z" />
<glyph unicode="&#x2039;" horiz-adv-x="454" d="M82 443.5q0 10.5 16 29.5l209 236q8 10 26.5 10t18.5 -21q0 -2 -8 -26l-102 -230l108 -264q2 -4 2 -16q0 -23 -18 -23q-12 0 -23 13l-209 256q-20 25 -20 35.5z" />
<glyph unicode="&#x203a;" horiz-adv-x="454" d="M102 162q0 6 4 16l109 264l-102 230q-8 18 -9 26q0 20 19 21q12 0 27 -10l208 -236q15 -17 15 -29t-21 -36l-207 -256q-10 -12 -26 -12.5t-17 22.5z" />
<glyph unicode="&#x2044;" horiz-adv-x="172" d="M-287 -4l4 16l660 1342q14 29 41 28h22q19 0 19 -14q0 -8 -2 -14l-652 -1342q-14 -29 -38 -28h-39q-14 0 -15 12z" />
<glyph unicode="&#x205f;" horiz-adv-x="496" />
<glyph unicode="&#x2116;" horiz-adv-x="2357" d="M41 25q0 27 49 26q125 0 180 162q37 109 37 266v574q0 324 -182 323l-55 -4q-29 0 -29 29t29 29l204 -5l129 5q18 0 33 -19.5t31 -40.5l758 -797v377q0 156 -37 264q-53 162 -178 162h-11q-6 -2 -10 -2q-29 0 -28 29q0 27 28 27h520q29 0 29 -27t-49 -27 q-125 0 -180 -162q-37 -109 -37 -264v-424l104 -110q119 -127 119 -271q0 -188 -174 -188q-96 0 -96 104v197l-871 889v-668q0 -158 37 -266q53 -162 178 -162q4 0 10.5 1t10.5 1q29 0 28 -26q0 -29 -28 -29l-260 6l-260 -6q-29 0 -29 27zM1272 66q0 -25 16.5 -49.5 t38.5 -24.5q23 0 40 25.5t17 58.5t-38 71t-74 70v-151zM1585 655q0 31 43 31h621q39 0 39 -35t-43 -35h-619q-41 0 -41 39zM1675 1079.5q0 155.5 80 254t196 98.5t193.5 -101.5t77.5 -255.5t-78 -252t-194 -98q-117 0 -196 99.5t-79 255zM1804.5 1079q-0.5 -320 143.5 -319 q147 -1 147 318.5t-143 320.5q-147 0 -147.5 -320z" />
<glyph unicode="&#x2122;" horiz-adv-x="1933" d="M82 1198.5q0 20.5 2 63.5v94q-2 20 -2 28q0 20 18 21q8 0 29 -16q12 -8 309 -9q297 0 312 12.5t24 12.5q18 0 19 -21q0 -8 -1 -27t-1 -36t1 -59.5t1 -63t-19 -20.5q-18 0 -18 39q0 129 -162 129q-94 0 -94 -113v-426q0 -111 100 -111h12q8 2 13 2q18 0 18 -19 t-24.5 -19.5t-87 1t-93.5 1.5h-94q-63 -2 -87.5 -2.5t-25.5 18.5q0 20 19 20q4 0 12 -1t12 -1q100 0 101 111v426q0 115 -96 115q-160 0 -160 -131q0 -4 1 -10.5t1 -10.5q0 -18 -19.5 -18t-19.5 20.5zM829 678q0 18 31 18q102 0 103 207v293q0 150 -84 150h-32t-18 18 q0 18 19 18h53q33 -2 47 -2t35.5 1t34.5 1q12 0 31 -30l262 -432l250 401q39 61 59 61l80 -4l110 4q20 0 21 -18q0 -18 -21 -18h-12q-8 2 -12 2q-98 0 -98 -115v-426q0 -113 100 -113q4 0 12 1t12 1q19 0 19 -18t-26 -18.5t-88 1t-93 1.5h-94q-61 -2 -86.5 -2.5t-26.5 18.5 q0 18 21 18h12q8 -2 10 -2q102 0 103 113v455l-236 -373q49 -84 49 -134t-35.5 -83t-76 -33t-60.5 19.5t-20 48.5t57 108l-244 402v-314q0 -207 103 -207h10q18 0 18 -18t-20.5 -18.5t-63.5 1t-64 1.5h-65q-45 -2 -65 -3q-20 0 -21 19zM1217 713q0 -39 34 -39 q14 0 25.5 15.5t11.5 30.5t-28 68q-43 -61 -43 -75z" />
<glyph unicode="&#x2202;" horiz-adv-x="1157" d="M82 440q0 156 88 279t236 174q-111 29 -192 100.5t-81 175.5q0 70 43 117t110 47t111.5 -46t44.5 -113q0 -33 -22 -68q-14 70 -64 70q-70 0 -69.5 -79t82.5 -127t163 -52q10 0 26.5 1t23.5 1q209 0 351 -138.5t142 -348.5t-141 -344t-354 -134t-355.5 136t-142.5 349z M315.5 438q-0.5 -436 264 -436t264.5 436.5t-262 435.5q-266 0 -266.5 -436z" />
<glyph unicode="&#x220f;" horiz-adv-x="1157" d="M82 869.5q0 21.5 22 58.5q49 76 164 129q20 10 74.5 64t87.5 55q72 0 158 -66q-18 -6 -62.5 -22.5t-79.5 -18.5q-47 -6 -61 -98q-4 -39 -8 -74t-41 -79t-80 -95q-53 -72 -49 -109v-8q-121 102 -115 154q2 25 -4 56.5t-6 53zM231 522q0 6 2 21q29 -31 45 -31h35q16 2 38 2 t40 -14q59 -51 137 -114t109 -64h6q-8 -29 -16 -56q-14 -31 -43 -35q-80 -12 -219.5 97.5t-133.5 193.5zM240 620q0 31 102 150q-2 -59 31 -113.5t84 -70.5q29 -16 65 -17l101 11q16 0 36.5 -14.5t39.5 -14.5t46 10q43 6 79 34t36 61t-27.5 81.5t-29.5 66t-19 52.5 q18 -10 29 -12q84 -8 199 -37q30 -44 12 -107q-10 -37 -98 -72.5t-111 -49.5q-68 -45 -76 -125q-6 -25 -43 -62t-57 -36q-26 1 -225 171q-29 23 -89.5 23t-45.5 -2q-25 25 -32 33.5t-7 39.5zM375 747.5q0 36.5 6 57.5q27 80 160 78q-39 -66 -39 -119t10 -90l2 -2 q5 -19 29 -68q-39 -4 -74 14q-27 6 -60.5 49.5t-33.5 80zM410 889q10 80 12 92q10 51 29 53q51 6 155 45q56 -94 72 -123q-33 -12 -62 -23t-53 -18q-96 8 -153 -26zM537 758q0 35 21.5 75.5t21.5 49.5q78 23 112 43q45 -29 74 -115q-61 -84 -223 -113q-6 25 -6 60zM551 664 q145 27 225 108q2 -2 25.5 -47t23.5 -63q0 -55 -86 -68h-2q-35 -12 -71.5 5t-85.5 9q-16 25 -29 56zM635 1098q127 43 145 43q63 0 155.5 -64.5t104.5 -93.5q8 -16 4 -76.5t0 -87.5q-20 33 -227 60q-14 2 -57 36.5t-49 48t-76 134.5zM700 348q66 53 74 101q10 72 76 108 q61 27 127 55.5t80 77.5q8 31 6 64q12 -43 12 -82q0 -133 -125 -250q-90 -84 -157 -84q-29 0 -93 10z" />
<glyph unicode="&#x2211;" horiz-adv-x="1894" d="M20 179q0 80 45.5 123.5t100.5 43.5q160 0 160 -131q0 -12 -2 -25q-43 39 -64 39q-57 0 -57 -67q0 -68 55 -107q45 -35 104 -35q223 2 297 285q39 150 39 488q0 373 283 557q186 123 381 123q109 0 267.5 -21.5t215.5 -21.5q29 0 29 -28t-29 -28q-23 4 -51 4 q-209 0 -209 -237v-854q0 -236 209 -236q27 0 51 4q27 0 27 -27.5t-27 -27.5l-377 4l-374 -4q-27 0 -27 28t26 25.5t52 -2.5q209 0 209 236v458h-602q0 -449 -86 -606q-98 -184 -404 -184q-80 0 -161 72t-81 152zM752 793h602v348q0 70 -6 96q-14 51 -60 51 q-512 0 -536 -495z" />
<glyph unicode="&#x221a;" horiz-adv-x="1507" d="M20 1401q0 29 29 29l375 -7l375 7q29 0 28 -29q0 -29 -28 -29l-66 6q-172 0 -172 -123q0 -47 27 -110l280 -676l349 477q100 139 132 218t31.5 183.5t-67.5 157.5t-166 54q-41 0 -72 -31t-31 -68q0 -57 82 -76q-43 -29 -79 -28q-82 0 -137.5 53t-55.5 137t63.5 148 t178.5 63q368 0 368 -414q0 -86 -51 -180t-166 -250l-358 -489q78 -178 78 -269t-71 -150.5t-177 -59.5q-121 0 -121 125q0 37 33 82l86 116l-365 877q-4 12 -30 53q-119 182 -232 182q-25 0 -41 -8q-29 0 -29 29zM643 72q0 -82 72 -82q67 0 67 102q0 37 -45 129 q-94 -123 -94 -149z" />
<glyph unicode="&#x221e;" horiz-adv-x="1366" d="M37 695q0 142 90 232.5t229 90.5q184 0 322 -189q139 188 330 189q143 0 232 -90.5t89 -232.5t-90 -232t-229 -90q-186 0 -322 190q-147 -190 -330 -190q-143 0 -232 90t-89 232zM244 695.5q0 -60.5 41 -101.5t100 -41q103 0 197 141q-94 143 -197 144q-61 0 -101 -41 t-40 -101.5zM782 696q98 -143 199 -143q59 0 100 41t41 101t-41 101.5t-102 41.5q-102 0 -197 -142z" />
<glyph unicode="&#x222b;" horiz-adv-x="1230" d="M-90 -146.5q0 52.5 24.5 78t63.5 25.5q76 0 121 -107q25 -59 63 -59q74 0 137.5 104.5t120.5 409.5q78 365 176 821q53 139 95.5 203t125 118t195 54t173.5 -39t61 -102q0 -94 -92 -94q-74 0 -111 100q-23 61 -74 61q-66 0 -125 -122q-29 -55 -80 -209l-180 -914 q-37 -182 -139 -303q-135 -160 -340 -160q-96 0 -155.5 41t-59.5 93.5z" />
<glyph unicode="&#x2248;" horiz-adv-x="1699" d="M20 28q0 28 29 27q12 -6 35 -6q127 0 330 191l366 450l-327 473q-147 215 -328 215q-27 0 -47 -6q-29 0 -29 29t29 29l375 -7l374 7q29 0 29 -29t-29 -29q-27 6 -55 6q-111 0 -110 -73q0 -51 61 -142l207 -291l162 195q135 166 133 246q0 63 -86 63q-20 0 -41 -4 q-29 0 -29 29t29 29l260 -7l260 7q29 0 29 -29t-29 -29q-179 -7 -328 -153l-327 -394l399 -569q78 -109 176 -306t143 -259q82 -102 181 -103q70 0 108.5 40t38.5 78t-19.5 67.5t-50.5 29.5t-51 -11t-18 -11q31 131 184 131q63 0 120.5 -49t57.5 -142t-103 -139.5 t-253 -46.5q-295 0 -619 465q-80 117 -444 645l-235 -285q-137 -162 -138 -241q0 -66 92 -66q18 0 37 2q29 0 29 -27.5t-29 -27.5l-258 4l-262 -4q-29 0 -29 28z" />
<glyph unicode="&#x2260;" horiz-adv-x="1366" d="M20 -523q0 24 25 23q141 0 168 15q59 33 59 180v1395q0 156 -28.5 207t-118.5 51q-53 0 -65.5 3t-12.5 17q0 20 27 21l37 4q152 8 321 118q16 10 25 11q20 0 20 -37v-733q96 170 307.5 170t345.5 -135.5t134 -344.5t-134.5 -348t-340 -139t-312.5 172v-387 q0 -178 58 -219q31 -20 174 -21q25 0 24 -24q0 -23 -24 -23l-332 8l-332 -8q-25 0 -25 24zM477 346q31 -344 273 -344q129 0 204.5 119.5t75.5 319.5t-74.5 316.5t-203.5 116.5q-70 0 -132 -38q-124 -74 -143 -289v-201z" />
<glyph unicode="&#x2264;" horiz-adv-x="1323" d="M82 846l22 8q35 -104 56 -145q47 -100 112 -160q109 -100 249 -100t220 69l-559 557q-39 41 -32 96q6 55 49 99q88 88 223 88q94 0 141 -48t42 -104.5t-58 -103.5h2q90 -4 252 -15q162 -18 256 -112q127 -128 184 -357l-22 -10q-37 104 -70 175t-98 132 q-109 100 -249 100.5t-220 -69.5l557 -559q41 -39 35 -94t-50 -98q-88 -88 -223 -89q-94 0 -141 47.5t-42 104.5t58 104h-2q-90 2 -252 17.5t-256 109.5q-127 125 -184 357zM279 1030l610 -608q82 25 151 8l2 2l-608 610q-82 -27 -153 -10z" />
<glyph unicode="&#x2265;" horiz-adv-x="1380" d="M82 446q0 61 51 103q49 35 113 35q123 0 209 -49.5t153 -116.5t84.5 -67.5t18.5 20.5q0 61 -125 153q-227 166 -232 170q-123 111 -123 226.5t77 197.5t207 82t175 -117q78 121 176 121q137 0 219 -75.5t82 -219.5t-88 -231q-37 -37 -155.5 -104.5t-135.5 -133.5 q-10 -37 -10 -71q0 -72 40 -72t100 78q92 121 114 143q80 80 166 80q100 0 100 -104q0 -66 -154.5 -88.5t-197.5 -53.5q-2 -4 -51 -67.5t-96 -63.5t-137.5 88t-182.5 88q-43 0 -117.5 -53t-125.5 -53q-154 0 -154 155zM129 467q0 -43 28.5 -70.5t75.5 -27.5t96.5 37.5 t100.5 37.5q51 1 133 -26q-57 61 -144 98t-169 37q-121 0 -121 -86zM170 465q0 49 80.5 49t191.5 -47q-39 8 -92 8t-83.5 -23.5t-55.5 -23.5q-41 0 -41 37zM348 934q0 -115 113 -225q100 -86 201 -174q2 0 4 -1t2 0t-17 58q-205 168 -205 362q0 135 113 136q45 0 90 -48 l10 21q-35 51 -50.5 65t-61.5 15q-199 0 -199 -209zM489 937q0 -122 140 -280q-25 98 -25 188.5t37 176.5q-45 37 -74 37q-78 0 -78 -122zM569 1219q33 68 33 100l-12 53q0 55 42 55t42 -51q0 -78 -105 -157zM662 106q0 45 81 97q74 -58 74 -97t-37 -38q-23 0 -32 28 q-12 -37 -39 -37q-16 0 -31.5 15.5t-15.5 31.5zM662 1227q0 41 39.5 41t39.5 -41t-40 -41t-39 41zM739 1370q0 68 52 68q31 0 30 -37l-12 -41q-1 -64 65 -111q-135 29 -135 121zM975 399q70 45 173 63.5t103 47.5q0 47 -49 47q-106 0 -227 -158z" />
<glyph unicode="&#x25ca;" horiz-adv-x="1366" d="M152 684l530 735l532 -735l-532 -737zM385 684l297 -408l297 408l-297 408z" />
<glyph unicode="&#xe000;" horiz-adv-x="890" d="M0 0v891h891v-891h-891z" />
<glyph unicode="&#xf000;" horiz-adv-x="1271" d="M61 229v1409h1164v-1409h-1164zM80 250h1128v1368h-1128v-1368zM90 264v1340h1106v-1340h-1106zM96 270h1094v1325h-1094v-1325zM104 281v1304h1078v-1304h-1078zM123 68q4 6 10 20q2 -10 8 -20q-4 -4 -8 -11q-4 4 -10 11zM127 446q72 -145 255 -145t257 152v288 q-76 154 -260 154q-72 0 -144.5 -41t-107.5 -111v-297zM168 2v4q10 0 10 12v109q0 12 -10 12v4h96l10 -32h-2q-17 28 -45 28h-28v-59h30q12 0 13 10h4v-31h-4q0 8 -13 9h-30v-52q0 -10 8 -10v-4h-39zM182 586q0 113 45 192q55 98 153.5 98.5t151 -91t52.5 -193.5t-52 -182 q-57 -92 -151 -92.5t-146.5 77.5t-52.5 191zM213 1069q4 0 20 -18q15 18 19 18q-4 0 -19 43q-16 -43 -20 -43zM278.5 73q0.5 73 69.5 72q72 1 72 -72t-74 -73q-68 0 -67.5 73zM299 72.5q0 -68.5 49 -68.5t49 69t-47 68q-51 0 -51 -68.5zM299 952h74v9q-18 0 -19 16v96h60 q20 0 20 -18h8v57h-8q0 -18 -20 -18h-60v108h54q51 0 81 -51l7 2l-19 57h-178v-8q18 0 18 -20v-201q0 -20 -18 -20v-9zM418 139v4h28l99 -112v96q0 12 -10 12v4h30v-4q-8 0 -8 -12v-125h-12l-101 115v-99q0 -12 9 -12v-4h-31v4q10 0 10 12v111q-8 10 -14 10zM455 1272h18 q0 29 8 34t39 5h139v-934q0 -31 -5 -39t-33 -8v-17h124v17q-27 0 -32.5 8t-5.5 39v350l368 -420h47v516q0 29 5 38t34 9v17h-125v-17q27 0 33 -9t6 -38v-399l-368 434v453h141q29 0 38 -5.5t9 -33.5h16v125h-16q0 -27 -8 -33t-39 -6h-141v137q0 29 6 37t32 8v19h-124v-19 q29 0 33.5 -8t4.5 -37v-137h-139q-31 0 -39 6t-8 33h-18v-125zM514 1069q4 0 18 -18q17 18 21 18q-4 0 -21 43q-14 -43 -18 -43zM578 53v41h4q0 -10 12 -10h43v43q0 12 -10 12v4h39v-4q-8 0 -9 -12v-43h43q12 0 11 10h6v-41h-6q0 10 -11 10h-43v-45q0 -12 9 -12v-4h-39v4 q10 0 10 12v45h-43q-12 0 -12 -10h-4zM717 2v4q8 2 12 10l41 109l-4 6q6 4 16 16l47 -120q8 -18 19 -21v-4h-41v4q8 0 4 12t-12 35h-45q-14 -49 -15 -39q0 -6 6 -8v-4h-28zM758 66h37l-19 47zM770 1069q4 0 18 -18q17 18 21 18q-4 0 -21 43q-14 -43 -18 -43zM817 948h55v8 q-10 2 -10 17t27 69h82q6 -16 24 -71q6 -14 -10 -15v-8h76v8q-20 4 -33 35l-86 221q-10 -10 -31 -28l7 -10l-76 -199q-6 -16 -25 -19v-8zM862 139v4h31l96 -112v96q0 12 -8 12v4h29v-4q-8 0 -9 -12v-125h-12l-100 115v-99q0 -12 10 -12v-4h-31v4q8 0 9 12v111q-8 10 -15 10z M897 1063l31 88l35 -88h-66zM1016 2v4q10 2 14 10l41 109l-4 6q6 4 16 16l47 -120q8 -18 19 -21v-4h-41v4q8 0 4 12t-12 35h-45q-14 -49 -15 -39q0 -6 7 -8v-4h-31zM1059 66h37l-19 47zM1065 1069q4 0 18 -18q17 18 21 18q-4 0 -21 43q-14 -43 -18 -43zM1145 68q4 6 10 20 q4 -10 10 -20q-6 -4 -10 -11q-4 4 -10 11z" />
<glyph unicode="&#xf001;" horiz-adv-x="1419" d="M20 24q0 24 50 23q109 0 131 10q74 31 73 201v582h-198q-25 0 -25 24q0 25 25 25h198v125q0 94 18 171.5t17 94.5q0 59 -39 59t-39 -43q0 -31 43 -39q-20 -14 -52 -14t-60.5 27.5t-28.5 68.5t30 68t70 27q96 0 150 -107q127 158 326.5 158t324.5 -98t125 -275 q0 -49 -38 -91t-94 -42t-94 39t-38 104q0 14 17 77.5t12 113.5q-14 115 -154.5 114.5t-216.5 -96.5t-76 -244l2 -198h322q145 0 237 16t84 17q23 0 23 -41v-590q0 -203 80 -234q29 -12 93.5 -12t47.5 2q33 -4 33 -25.5t-25 -21.5l-332 6l-333 -6l-332 6l-332 -6 q-25 0 -25 24zM479 279q0 -190 76 -222q31 -14 154.5 -14t154.5 14q76 31 76 230v307q0 129 -35 180q-43 66 -164 66h-260q-2 -549 -2 -561z" />
<glyph unicode="&#xf002;" horiz-adv-x="1437" d="M20 24q0 24 50 23q8 0 22 -1t48 -1t61 12q74 31 73 203v580h-198q-25 0 -25 24q0 25 25 25h198v125q0 41 15.5 125t15.5 125q0 72 -37 71q-41 0 -41 -43q0 -31 43 -39q-23 -14 -53.5 -14t-59 27.5t-28.5 68.5t29.5 68t70.5 27q96 0 150 -107q135 170 323 170 q37 0 116 -16.5t145.5 -16.5t92 11.5t50 27.5t41.5 17q18 0 18 -43v-1182q0 -199 80 -232q33 -14 94 -14t47 2q31 -1 31 -24t-22 -23l-332 6l-354 -8l-332 8l-332 -6q-25 0 -25 24zM477 1110l2 -221h168q88 0 88 -90q0 -37 -25.5 -64.5t-62.5 -27.5q-63 0 -63 51t51 51 l37 -14q20 0 20 22q0 23 -47 23h-164q-2 -545 -2 -561q0 -143 36 -191.5t173 -48.5h103q106 0 143 70q27 49 27 167v852q0 158 -68 234t-225 76q-82 0 -136.5 -75t-54.5 -253z" />
<glyph horiz-adv-x="0" />
</font>
</defs>
</svg>
